<svg width="1440" height="300" viewBox="0 0 1440 300" xmlns="http://www.w3.org/2000/svg"
     xmlns:xlink="http://www.w3.org/1999/xlink">
  <defs>
    <linearGradient x1="0%" y1="0%" y2="100%" id="section-gradient-b">
      <stop stop-color="#2439C4" offset="0%"/>
      <stop stop-color="#00A4FB" offset="100%"/>
    </linearGradient>
    <path id="section-gradient-a" d="M0 0h1460v300H0z"/>
  </defs>
  <g transform="translate(-7)" fill="none" fill-rule="evenodd">
    <mask id="section-gradient-c" fill="#fff">
      <use xlink:href="#section-gradient-a"/>
    </mask>
    <use fill="url(#section-gradient-b)" xlink:href="#section-gradient-a"/>
    <g opacity=".2" mask="url(#section-gradient-c)" stroke="#2550D3">
      <path
        d="M195.917-25.306C254.539-83.91 320.539-128.216 387.83-157.35c11.35-4.901 17.786-17.095 15.817-29.289C386.466-292.784 323.485-404 137.101-404-92.896-404-135-234.676-135-114.49c0 86.02 90.584 406.884 177.002 582.39.108.217.362.048.277-.182-52.874-144.538 3.562-342.957 153.638-493.024"/>
      <path
        d="M187.95 627.873c24.91-18.666 100.592-86.9 183.345-319.194C469.913 31.86 440.541-65.511 437.858-86 372.811-56.897 309.122-13.556 252.373 43.36c-150.556 151.042-206.51 351.12-151.89 495.804 15.179 30.671 30.226 56.758 44.612 76.148 1.515 2.063 4.065 5.092 6.844 8.277 8.96 10.293 24.465 12.61 35.543 4.622.156-.097.312-.217.469-.338M962.025 81.038c-.181-.121-.374.072-.277.254 74.575 146.293 21.564 363.991-139.569 525.63-32.412 32.528-67.114 60.667-103.022 84.247a.34.34 0 0 0 .012.58c47.262 29.614 103.263 42.202 162.205 37.172 149.477-12.782 261.214-134.056 243.845-338.452-11.68-137.333-76.565-252.5-163.194-309.431"/>
      <path
        d="M217 677.187v.06c13.478 7.753 27.619 14.358 42.327 19.816 113.179 42.058 259.659 16.809 390.164-68.515 36.113-23.619 70.996-51.803 103.586-84.43 161.526-161.651 214.508-379.452 139.349-525.55-12.549-24.38-28.632-46.768-48.42-66.56-85.077-85.142-218.104-102.385-351.77-59.168a.18.18 0 0 0-.085.06c15.867 55.257 54.598 138.455-16.76 382.918C404.047 520.294 239.154 662.154 217 677.188"/>
    </g>
  </g>
</svg>
