<svg width="451" height="212" viewBox="0 0 451 212" xmlns="http://www.w3.org/2000/svg"><title>Group 2</title><g fill="none"><path d="M133 83.103c0 4.297-3.52 7.78-7.862 7.78H7.862C3.52 90.885 0 87.4 0 83.104V7.896C0 3.6 3.52.116 7.862.116h117.276c4.342 0 7.862 3.483 7.862 7.78v75.207z" fill="#306FC5"/><path d="M5.59 83.103V7.896c0-4.297 3.52-7.78 7.862-7.78h-5.59C3.52.116 0 3.599 0 7.896v75.208c0 4.297 3.52 7.78 7.862 7.78h5.59c-4.342 0-7.863-3.484-7.863-7.78z" fill="#202121" opacity=".15"/><g fill="#FFF"><path d="M19.376 36.438h3.974l-1.987-5.005zM40.51 53.24v2.323h6.683v2.503h-6.684v2.682h7.406l3.432-3.754-3.251-3.755zm52.2-21.807l-2.168 5.005h4.155zM59.836 62.177V51.989l-4.696 5.005zm8.851-7.328c-.18-1.073-.904-1.61-1.988-1.61h-3.792v3.218h3.974c1.083 0 1.806-.536 1.806-1.608zM81.33 56.1c.361-.179.543-.716.543-1.25.18-.715-.182-1.073-.543-1.252-.36-.18-.903-.18-1.444-.18h-3.613v2.861h3.613c.54 0 1.083 0 1.444-.179z"/><path d="M107.34 26.785v2.145l-1.083-2.145h-8.489v2.145l-1.084-2.145h-11.56c-1.987 0-3.613.358-5.058 1.073v-1.073h-8.128v1.073c-.902-.715-1.986-1.073-3.431-1.073H39.426l-1.988 4.47-1.986-4.47H26.24v2.145l-.903-2.145h-7.948l-3.613 8.401-4.154 9.116-.076.18h9.404l.065-.18 1.084-2.68h2.348l1.084 2.86h10.475v-2.146l.904 2.145h5.238l.903-2.145v2.146h25.106v-4.648h.363c.36 0 .36 0 .36.536v3.932h13.006V43.23c1.084.537 2.708 1.072 4.876 1.072h5.42l1.083-2.859h2.528l1.084 2.86h10.476v-2.681l1.626 2.68h8.489V26.785h-8.128zM46.109 41.801h-2.89v-9.832l-.181.41v-.005l-4.202 9.427h-2.662l-4.335-9.832v9.832h-6.14l-1.265-2.682h-6.142l-1.265 2.682h-3.175l5.344-12.513h4.515l5.057 11.976V29.288h4.786l.085.18h.006l2.279 4.908 1.637 3.677.057-.185 3.613-8.58h4.877v12.513zm12.463-9.832h-7.044v2.324h6.863v2.502h-6.863v2.503h7.044v2.68H48.457v-12.69h10.115v2.681zm12.883 4.61l.017.01c.068.072.126.143.176.212.346.449.626 1.116.64 2.095l.003.051.002.028v.016c.003.098.006.199.006.307v2.503H69.59v-1.43c0-.716 0-1.788-.542-2.503a1.645 1.645 0 0 0-.532-.36c-.27-.173-.784-.176-1.635-.176h-3.252v4.469h-3.07V29.288h6.864c1.625 0 2.709 0 3.612.537.885.526 1.42 1.398 1.44 2.779-.042 1.902-1.276 2.946-2.163 3.298 0 0 .603.12 1.143.676zm6.083 5.222h-3.071V29.288h3.07v12.513zm35.222 0h-3.975l-5.78-9.474v7.864l-.018-.018v1.635h-3.052v-.007h-3.07L95.78 39.12h-6.323l-1.084 2.859h-3.431c-1.444 0-3.252-.357-4.335-1.43-1.084-1.072-1.625-2.502-1.625-4.825 0-1.788.36-3.576 1.625-5.006.902-1.073 2.529-1.43 4.515-1.43h2.89v2.681h-2.89c-1.084 0-1.624.178-2.348.716-.541.536-.903 1.608-.903 2.859 0 1.43.18 2.324.903 3.039.543.537 1.265.716 2.168.716h1.264l4.154-9.831h4.516l5.058 11.976V29.469h4.515l5.237 8.757v-8.758h3.072v12.333z"/><path d="M68.88 34.5a.959.959 0 0 0 .14-.192c.164-.256.352-.718.25-1.348a.989.989 0 0 0-.026-.163c-.004-.014-.003-.027-.007-.041h-.002c-.09-.306-.32-.494-.548-.609-.362-.178-.904-.178-1.446-.178h-3.613v2.86h3.613c.542 0 1.084 0 1.446-.179a.682.682 0 0 0 .15-.106v.003l.043-.047zm54.536 25.175c0-1.25-.36-2.502-.902-3.396v-8.043h-.009v-.537h-8.698c-1.126 0-2.493 1.072-2.493 1.072V47.7h-8.308c-1.265 0-2.89.358-3.613 1.072V47.7H84.582v1.072c-1.083-.893-3.071-1.072-3.974-1.072h-9.754v1.072c-.903-.893-3.071-1.073-4.156-1.073H55.863l-2.53 2.682-2.348-2.682H34.729v18.055h15.895l2.612-2.586 2.264 2.586h10.116v-4.111h.903c1.264 0 2.89 0 4.154-.537v4.826h8.129v-4.648h.36c.543 0 .543 0 .543.537v4.111h24.564c1.627 0 3.251-.358 4.154-1.073v1.073h7.768c1.624 0 3.251-.178 4.335-.894 1.663-.987 2.711-2.735 2.867-4.82.007-.061.016-.123.022-.185l-.01-.01c.006-.115.01-.23.01-.347zM66.52 58.603h-3.614v4.647H56.97l-3.455-3.933-.012.013-.169-.192-3.973 4.112H37.8V50.738h11.74l3.208 3.477.674.728.092-.094 3.793-4.11h9.573c1.858 0 3.939.453 4.727 2.324.095.37.15.782.15 1.25 0 3.575-2.529 4.29-5.237 4.29zm18.062-.179c.36.535.542 1.251.542 2.324v2.502h-3.07v-1.608c0-.716 0-1.967-.543-2.504-.36-.535-1.084-.535-2.167-.535h-3.25v4.647h-3.071V50.56h6.863c1.444 0 2.708 0 3.613.535.902.537 1.625 1.43 1.625 2.86 0 1.966-1.264 3.039-2.168 3.397.904.356 1.445.714 1.626 1.072zm12.464-5.185H90v2.324h6.864v2.503H90v2.503h7.046v2.68H86.93V50.56h10.115v2.68zm7.585 10.011h-5.78v-2.68h5.78c.541 0 .903 0 1.265-.359.181-.179.36-.536.36-.893 0-.359-.179-.715-.36-.894-.181-.178-.543-.357-1.084-.357-2.89-.18-6.322 0-6.322-3.932 0-1.788 1.083-3.754 4.335-3.754h5.96v3.038h-5.599c-.541 0-.903 0-1.265.179-.36.179-.36.537-.36.894 0 .536.36.715.721.893.363.179.723.179 1.084.179h1.626c1.626 0 2.71.357 3.432 1.072.542.537.903 1.43.903 2.682 0 2.68-1.625 3.932-4.696 3.932zm15.534-1.252c-.722.716-1.987 1.252-3.794 1.252h-5.778v-2.68h5.778c.542 0 .904 0 1.265-.359a1.36 1.36 0 0 0 .361-.893c0-.359-.18-.715-.36-.894-.182-.178-.542-.357-1.085-.357-2.889-.18-6.321 0-6.321-3.932 0-1.699.982-3.234 3.404-3.69.29-.039.596-.064.93-.064h5.962v3.038h-5.599c-.543 0-.904 0-1.265.179a1.354 1.354 0 0 0-.362.894c0 .536.18.715.723.893.36.179.722.179 1.084.179h1.625c.79 0 1.386.096 1.933.286.5.18 2.156.912 2.527 2.826a4 4 0 0 1 .055.642c0 1.072-.36 1.966-1.083 2.68z"/></g><path d="M292 83.104c0 4.297-3.52 7.78-7.862 7.78H166.862c-4.342 0-7.862-3.484-7.862-7.78V7.896c0-4.297 3.52-7.78 7.862-7.78h117.276c4.342 0 7.862 3.483 7.862 7.78v75.208z" fill="#0099DF"/><path d="M164.59 83.104V7.896c0-4.297 3.52-7.78 7.862-7.78h-5.59C162.52.116 159 3.6 159 7.896v75.208c0 4.297 3.52 7.78 7.862 7.78h5.59c-4.342 0-7.863-3.484-7.863-7.78z" fill="#202121" opacity=".15"/><path d="M245.94 39.993c0-4.634 2.157-8.77 5.532-11.478a14.959 14.959 0 0 0-9.392-3.292c-8.243 0-14.923 6.613-14.923 14.77s6.68 14.768 14.923 14.768c3.56 0 6.828-1.233 9.392-3.292-3.375-2.707-5.532-6.842-5.532-11.476z" fill="#EA001B"/><path d="M260.864 25.224a14.96 14.96 0 0 0-9.392 3.292c3.376 2.708 5.533 6.843 5.533 11.477s-2.157 8.77-5.533 11.477a14.958 14.958 0 0 0 9.392 3.292c8.244 0 14.925-6.612 14.925-14.769s-6.682-14.77-14.925-14.77z" fill="#F79F1A"/><path d="M257.005 39.993c0-4.634-2.157-8.77-5.533-11.478-3.374 2.708-5.532 6.844-5.532 11.478 0 4.634 2.157 8.77 5.532 11.476 3.375-2.707 5.533-6.842 5.533-11.476z" fill="#FF5F01"/><path d="M202.08 46.84a1.89 1.89 0 0 1-1.898 1.878h-23.556a1.888 1.888 0 0 1-1.899-1.878V28.674c0-1.038.85-1.879 1.899-1.879h23.556c1.048 0 1.898.841 1.898 1.879V46.84z" fill="#FFC715"/><path d="M202.34 64.807h-27.613a2.157 2.157 0 0 1-2.169-2.146c0-1.185.971-2.146 2.169-2.146h27.613c1.198 0 2.169.96 2.169 2.146a2.158 2.158 0 0 1-2.169 2.146zm0 8.949h-27.613a2.157 2.157 0 0 1-2.169-2.146c0-1.185.971-2.146 2.169-2.146h27.613c1.198 0 2.169.96 2.169 2.146a2.158 2.158 0 0 1-2.169 2.146z" fill="#34495E"/><path d="M182.091 48.718h4.337V26.795h-4.337v5.161h-7.364v4.292h7.364v3.017h-7.364v4.292h7.364v3.015zm17.821-12.47h2.169v-4.292h-6.304v-5.161h-4.337v14.616c0 1.185.97 2.146 2.168 2.146h8.473v-4.292h-6.304v-3.017h4.135z" fill="#FFA617"/><path d="M178.721 46.84V28.674c0-1.038.85-1.879 1.899-1.879h-3.994c-1.05 0-1.899.841-1.899 1.879V46.84c0 1.037.85 1.878 1.899 1.878h3.994a1.888 1.888 0 0 1-1.899-1.878z" fill="#202121" opacity=".15"/><path d="M292 204.104c0 4.297-3.52 7.78-7.862 7.78H166.862c-4.342 0-7.862-3.484-7.862-7.78v-75.208c0-4.297 3.52-7.78 7.862-7.78h117.276c4.342 0 7.862 3.483 7.862 7.78v75.208z" fill="#34495E"/><path d="M164.59 204.104v-75.208c0-4.297 3.52-7.78 7.862-7.78h-5.59c-4.342 0-7.862 3.484-7.862 7.78v75.208c0 4.297 3.52 7.78 7.862 7.78h5.59c-4.342 0-7.863-3.484-7.863-7.78z" fill="#202121" opacity=".15"/><path d="M239.369 166.449a9.517 9.517 0 0 0-2.817-6.827c-1.893-1.873-4.406-2.801-6.914-2.787h-.036c-5.447 0-9.767 4.274-9.767 9.666 0 5.338 4.373 9.665 9.767 9.665 5.448 0 9.768-4.275 9.768-9.665l-.001-.052z" fill="#F26E21"/><path d="M218.018 170.59c-1.46 1.446-2.807 2.01-4.258 2.041-3.536-.03-6.136-2.622-6.136-6.316 0-1.86.712-3.384 1.84-4.686 1.056-.993 2.418-1.635 3.984-1.635 1.69 0 3.005.558 4.507 2.045v-4.275c-1.501-.743-2.817-1.115-4.507-1.115a10.941 10.941 0 0 0-6.366 2.622 9.345 9.345 0 0 0-1.38 1.493c-1.26 1.618-2.023 3.599-2.023 5.737 0 5.39 4.321 9.48 9.768 9.48.027 0 .053-.003.079-.003l.109.002c1.502 0 2.818-.37 4.509-1.114l-.126-4.276c-.063.062.063.12 0 .18v-.18zm33.682-11.28l-4.253 10.35-4.884-12.269h-3.944l7.7 18.775h2.067l8.077-18.775h-3.944zm6.266 6.26v10.039h10.331v-2.975h-6.574v-5.018h6.387v-3.16h-6.387v-3.904h6.574v-3.16h-10.33zm-84.904-8.179h-5.26v18.218h5.26c2.817 0 4.883-.744 6.574-2.045 2.066-1.673 3.381-4.275 3.381-7.063 0-5.392-3.945-9.11-9.955-9.11zm4.32 13.757c-1.127.929-2.63 1.486-4.884 1.486h-1.127v-12.082h.94c2.253 0 3.756.371 4.884 1.486a5.913 5.913 0 0 1 2.066 4.462c.188 1.673-.563 3.531-1.879 4.648zm7.328-13.758h3.568v18.217h-3.569zm12.583 7.065c-2.253-.743-2.818-1.301-2.818-2.23 0-1.116 1.128-2.045 2.63-2.045 1.127 0 2.066.372 3.006 1.487l1.879-2.416c-1.504-1.302-3.381-2.045-5.448-2.045-3.194 0-5.824 2.231-5.824 5.204 0 2.603 1.129 3.719 4.51 5.02 1.502.557 2.066.743 2.442 1.115.75.371 1.126 1.115 1.126 1.858 0 1.487-1.126 2.603-2.818 2.603a4.384 4.384 0 0 1-3.945-2.417l-2.254 2.231c1.691 2.417 3.758 3.532 6.387 3.532 3.757 0 6.386-2.417 6.386-5.949 0-3.16-1.126-4.46-5.259-5.948zm81.148 3.532c2.817-.557 4.32-2.417 4.32-5.204 0-3.346-2.442-5.392-6.574-5.392h-5.448v18.218h3.57v-7.25h.563l5.07 7.25h4.322l-5.823-7.622zm-3.006-2.231h-1.127v-5.576h1.127c2.254 0 3.57.929 3.57 2.789 0 1.858-1.316 2.787-3.57 2.787z" fill="#E7E8E3"/><g><path d="M133 204.103c0 4.297-3.52 7.78-7.862 7.78H7.862C3.52 211.885 0 208.4 0 204.104v-75.207c0-4.297 3.52-7.78 7.862-7.78h117.276c4.342 0 7.862 3.483 7.862 7.78v75.207z" fill="#FFF"/><path d="M29.52 167.023l-3.123-14.825c-.534-2.044-2.087-2.653-4.028-2.733H8.05l-.128.677c11.152 2.676 18.53 9.13 21.597 16.881z" fill="#F79F1A"/><path d="M62.695 149.763h-9.25l-5.778 33.554h9.235zm-27.537 33.52l14.55-33.497h-9.791l-9.051 22.886-.966-3.456c-1.775-4.157-6.845-10.14-12.798-13.906l8.273 27.984 9.783-.01zm53.924-10.935c.034-3.81-2.438-6.715-7.764-9.115-3.237-1.55-5.21-2.583-5.186-4.156 0-1.39 1.67-2.883 5.29-2.883 3.03-.046 5.21.609 6.917 1.286l.836.38 1.253-7.27c-1.833-.677-4.7-1.4-8.285-1.4-9.132 0-15.56 4.547-15.62 11.07-.057 4.823 4.597 7.51 8.1 9.117 3.598 1.639 4.804 2.687 4.781 4.157-.023 2.247-2.866 3.272-5.523 3.272-3.702 0-5.663-.505-8.705-1.759l-1.182-.537-1.298 7.519c2.157.933 6.148 1.748 10.291 1.782 9.712 0 16.025-4.49 16.095-11.463zm10.988 5.94c1.056 0 10.49.011 11.837.011a517.49 517.49 0 0 1 1.125 5.03h8.575l-7.484-33.531h-7.136c-2.217 0-3.864.597-4.84 2.778L88.42 183.33h9.713s1.578-4.134 1.937-5.041zm6.336-16.25c-.046.092.766-1.94 1.23-3.203l.627 2.893s1.764 8.016 2.135 9.693h-7.67c.765-1.93 3.678-9.382 3.678-9.382zm18.732-40.922H7.862c-4.342 0-7.862 3.483-7.862 7.78v8.075h133v-8.075c0-4.297-3.52-7.78-7.862-7.78z" fill="#059BBF"/><path d="M125.138 211.884H7.862c-4.342 0-7.862-3.483-7.862-7.78v-8.075h133v8.075c0 4.297-3.52 7.78-7.862 7.78z" fill="#F79F1A"/><path d="M5.59 204.103v-75.207c0-4.297 3.52-7.78 7.862-7.78h-5.59c-4.342 0-7.862 3.483-7.862 7.78v75.208c0 4.297 3.52 7.78 7.862 7.78h5.59c-4.342 0-7.863-3.484-7.863-7.78z" fill="#202121" opacity=".15"/></g><g><path d="M451 83.104c0 4.297-3.52 7.78-7.862 7.78H325.862c-4.342 0-7.862-3.484-7.862-7.78V7.896c0-4.297 3.52-7.78 7.862-7.78h117.276c4.342 0 7.862 3.483 7.862 7.78v75.208z" fill="#92DBEF"/><path d="M323.59 83.104V7.896c0-4.297 3.52-7.78 7.862-7.78h-5.59C321.52.116 318 3.599 318 7.896v75.208c0 4.297 3.52 7.78 7.862 7.78h5.59c-4.342 0-7.863-3.484-7.863-7.78z" fill="#202121" opacity=".15"/><path d="M404.355 17.858c-2.914-3.297-8.327-4.944-15.82-4.944h-20.82c-1.249 0-2.497 1.237-2.914 2.471l-8.327 53.975c0 1.237.833 2.06 1.664 2.06h12.907l3.331-20.188v.824c.417-1.237 1.665-2.472 2.915-2.472h6.246c12.074 0 21.232-4.944 24.147-18.542v-1.236c-.416 0-.416 0 0 0 .417-5.355-.416-8.652-3.329-11.948" fill="#263B80"/><path d="M407.684 31.042v-1.236l.007-.12a11.82 11.82 0 0 0-1.964-1.095c-2.528-1.033-5.113-1.228-6.306-1.258l-.007-.005h-6.071l.007.005h-12.736c-2.165.078-2.762 1.806-2.919 2.557l-3.319 21.342v.824c.418-1.237 1.665-2.472 2.916-2.472h6.246c12.073 0 21.231-4.944 24.146-18.542z" fill="#232C65"/><path d="M411.774 34.913c-.94-2.57-2.605-4.21-4.082-5.227l-.008.12v1.236c-2.915 13.598-12.073 18.542-24.146 18.542h-6.246c-1.25 0-2.498 1.234-2.915 2.472v-.318a3.508 3.508 0 0 0-.128.318l-2.352 14.202-.852 5.162h-.003l-.955 5.769c0 .823.417 1.646 1.664 1.646h10.379c2.088 0 2.744-1.608 2.945-2.474l.088-.538 1.993-12.232s.26-2.884 3.103-2.884h1.062c10.409 0 18.736-4.12 20.818-16.48.578-3.445.55-6.688-.365-9.314z" fill="#139AD6"/></g></g></svg>