<svg width="627" height="420" viewBox="0 0 627 420" xmlns="http://www.w3.org/2000/svg" xmlns:xlink="http://www.w3.org/1999/xlink"><title>Illustration / API / 1</title><defs><linearGradient x1="0%" y1="100%" y2="0%" id="b"><stop stop-color="#FA5153" offset="0%"/><stop stop-color="#FC624D" offset="45.023%"/><stop stop-color="#FF7645" offset="100%"/></linearGradient><path d="M83.896 39.707c.585-.253 1.521-.63 2.809-1.128-.072-1.713-.162-2.909-.27-3.587C83.676 17.904 73.57 0 43.662 0 6.756 0 0 27.259 0 46.607c0 13.848 14.536 65.503 28.403 93.757-8.44-23.298.616-55.24 24.698-79.4 9.406-9.434 19.997-16.567 30.795-21.257z" id="a"/><path d="M51.01 168.103c3.985-2.973 16.089-13.84 29.324-50.835C96.106 73.182 91.409 57.675 90.98 54.412c-10.404 4.635-20.59 11.537-29.666 20.601-24.079 24.055-33.028 55.92-24.292 78.962 2.427 4.885 4.834 9.04 7.135 12.127.242.329.65.811 1.094 1.318 1.433 1.64 3.913 2.009 5.685.736.025-.015.05-.034.075-.053" id="c"/><path d="M174.824 79.021a.031.031 0 0 0-.045.041c12.226 23.591 3.535 58.697-22.88 84.763a105.812 105.812 0 0 1-16.89 13.586.054.054 0 0 0 .002.093c7.748 4.776 16.929 6.806 26.592 5.995 24.505-2.061 42.822-21.618 39.975-54.579-1.915-22.146-12.552-40.718-26.754-49.899" id="d"/><path d="M54.659 178.26v.01a44.83 44.83 0 0 0 6.803 3.227c18.19 6.847 41.734 2.737 62.71-11.155 5.804-3.846 11.41-8.434 16.648-13.746 25.962-26.319 34.477-61.78 22.397-85.566a43.225 43.225 0 0 0-7.782-10.837c-13.674-13.862-35.055-16.67-56.539-9.633a.029.029 0 0 0-.013.01c2.55 8.996 8.775 22.542-2.694 62.343-11.467 39.804-37.97 62.9-41.53 65.348" id="e"/></defs><g fill="none" fill-rule="evenodd"><path d="M51 67c75.667 10 146.5 36.667 212.5 80M51 284s84.5-69.5 211.5-29m73.5-93S374.5 41 550 43M401 263.025S451 173 592.5 210m-308 152.5s-2-89 39-93" stroke="#FF5527" stroke-width="2" stroke-linecap="square" stroke-dasharray="10"/><g transform="translate(214 104)"><use fill="#FFF" xlink:href="#a"/><use fill="url(#b)" xlink:href="#a"/></g><g transform="translate(214 104)"><use fill="#FFF" xlink:href="#c"/><use fill="url(#b)" xlink:href="#c"/></g><g transform="translate(214 104)"><use fill="#FFF" xlink:href="#d"/><use fill="url(#b)" xlink:href="#d"/></g><g transform="translate(214 104)"><use fill="#FFF" xlink:href="#e"/><use fill="url(#b)" xlink:href="#e"/></g><circle stroke-width="2" cx="35" cy="35" r="35" transform="translate(535 1)" fill="#FFF" stroke="#F15A29"/><circle stroke-width="2" cx="35" cy="35" r="35" transform="translate(1 20)" fill="#FFF" stroke="#F15A29"/><circle stroke-width="2" cx="35" cy="35" r="35" transform="translate(1 254)" fill="#FFF" stroke="#F15A29"/><circle stroke-width="2" cx="35" cy="35" r="35" transform="translate(245 349)" fill="#FFF" stroke="#F15A29"/><circle stroke-width="2" cx="35" cy="35" r="35" transform="translate(556 174)" fill="#FFF" stroke="#F15A29"/></g></svg>