<svg width="694px" height="347px" viewBox="0 0 694 347" version="1.1" xmlns="http://www.w3.org/2000/svg" xmlns:xlink="http://www.w3.org/1999/xlink">
  <!-- Generator: Sketch 48.1 (47250) - http://www.bohemiancoding.com/sketch -->
  <desc>Created with Sketch.</desc>
  <defs>
    <filter x="-13.5%" y="-25.7%" width="127.0%" height="167.2%" filterUnits="objectBoundingBox" id="filter-1">
      <feOffset dx="0" dy="20" in="SourceAlpha" result="shadowOffsetOuter1"></feOffset>
      <feGaussianBlur stdDeviation="25" in="shadowOffsetOuter1" result="shadowBlurOuter1"></feGaussianBlur>
      <feColorMatrix values="0 0 0 0 0   0 0 0 0 0   0 0 0 0 0  0 0 0 0.12 0" type="matrix" in="shadowBlurOuter1" result="shadowMatrixOuter1"></feColorMatrix>
      <feMerge>
        <feMergeNode in="shadowMatrixOuter1"></feMergeNode>
        <feMergeNode in="SourceGraphic"></feMergeNode>
      </feMerge>
    </filter>
    <rect id="path-2" x="0" y="167.245087" width="60.2571317" height="58.3056266"></rect>
    <rect id="path-3" x="0" y="113.542536" width="60.2571317" height="58.3056266"></rect>
    <rect id="path-4" x="0" y="56.771268" width="60.2571317" height="58.3056266"></rect>
    <rect id="path-5" x="0" y="0" width="60.2571317" height="58.3056266"></rect>
    <rect id="path-6" x="0" y="167.218632" width="123.147951" height="58.3320811"></rect>
    <rect id="path-7" x="0" y="112.775357" width="123.147951" height="58.3320811"></rect>
    <rect id="path-8" x="0" y="56.3876784" width="123.147951" height="58.3320811"></rect>
    <rect id="path-9" x="0" y="0" width="123.147951" height="58.3320811"></rect>
    <rect id="path-10" x="0" y="167.218632" width="126.305591" height="58.3320811"></rect>
    <rect id="path-11" x="0" y="112.775357" width="126.305591" height="58.3320811"></rect>
    <rect id="path-12" x="0" y="56.3876784" width="126.305591" height="58.3320811"></rect>
    <rect id="path-13" x="0" y="0" width="126.305591" height="58.3320811"></rect>
    <rect id="path-14" x="0" y="167.218632" width="123.147951" height="58.3320811"></rect>
    <rect id="path-15" x="0" y="112.775357" width="123.147951" height="58.3320811"></rect>
    <rect id="path-16" x="0" y="56.3876784" width="123.147951" height="58.3320811"></rect>
    <rect id="path-17" x="0" y="0" width="123.147951" height="58.3320811"></rect>
    <rect id="path-18" x="0" y="167.218632" width="126.305591" height="58.3320811"></rect>
    <rect id="path-19" x="0" y="112.775357" width="126.305591" height="58.3320811"></rect>
    <rect id="path-20" x="0" y="56.3876784" width="126.305591" height="58.3320811"></rect>
    <rect id="path-21" x="0" y="0" width="126.305591" height="58.3320811"></rect>
    <rect id="path-22" x="0" y="167.218632" width="38.0254761" height="58.3320811"></rect>
    <rect id="path-23" x="0" y="112.775357" width="38.0254761" height="58.3320811"></rect>
    <rect id="path-24" x="0" y="56.3876784" width="38.0254761" height="58.3320811"></rect>
    <rect id="path-25" x="0" y="0" width="38.0254761" height="58.3320811"></rect>
  </defs>
  <g id="Illustrations" stroke="none" stroke-width="1" fill="none" fill-rule="evenodd">
    <g id="Illustration-/-Ladders-/-5" transform="translate(-28.000000, -84.000000)">
      <g id="Group-114" filter="url(#filter-1)" transform="translate(46.000000, 114.000000)">
        <g id="Group-113" transform="translate(47.000000, 0.000000)">
          <path d="M34.8869503,251.489563 C34.5679383,251.489563 34.3010139,251.448873 34.0861691,251.367492 L34.0861691,250.386047 C34.359608,250.454407 34.5972358,250.488586 34.7990597,250.488586 C35.4370837,250.488586 35.756091,250.084944 35.756091,249.277649 L35.756091,242.358703 L36.927966,242.358703 L36.927966,249.238586 C36.927966,249.967757 36.7546279,250.525205 36.4079464,250.91095 C36.061265,251.296694 35.5542714,251.489563 34.8869503,251.489563 Z M42.0353878,249.497375 L41.8058957,248.745422 L41.7668332,248.745422 C41.5064152,249.0742 41.2443735,249.297993 40.9807003,249.416809 C40.7170271,249.535625 40.3784889,249.595032 39.9650753,249.595032 C39.4344737,249.595032 39.0202526,249.451804 38.7223996,249.165344 C38.4245465,248.878884 38.2756222,248.473615 38.2756222,247.949524 C38.2756222,247.39288 38.4823259,246.972963 38.8957394,246.689758 C39.3091529,246.406554 39.9390294,246.251933 40.7853878,246.225891 L41.718005,246.196594 L41.718005,245.908508 C41.718005,245.563454 41.6374394,245.305482 41.4763058,245.134582 C41.3151722,244.963683 41.0653375,244.878235 40.7267941,244.878235 C40.4501,244.878235 40.1848032,244.918924 39.9308957,245.000305 C39.6769881,245.081686 39.43285,245.177713 39.1984738,245.288391 L38.82738,244.468078 C39.1203502,244.315083 39.4409851,244.19871 39.7892941,244.118957 C40.1376031,244.039204 40.4663759,243.999328 40.7756222,243.999328 C41.4624746,243.999328 41.9808614,244.149067 42.330798,244.448547 C42.6807346,244.748028 42.8557003,245.218401 42.8557003,245.85968 L42.8557003,249.497375 L42.0353878,249.497375 Z M40.3264035,248.716125 C40.7430722,248.716125 41.0775415,248.599753 41.3298214,248.367004 C41.5821013,248.134256 41.7082394,247.807924 41.7082394,247.388 L41.7082394,246.91925 L41.01488,246.948547 C40.4745127,246.968079 40.0814503,247.05841 39.8356808,247.219543 C39.5899114,247.380677 39.4670285,247.627256 39.4670285,247.959289 C39.4670285,248.200176 39.5386423,248.386535 39.6818722,248.518371 C39.8251021,248.650208 40.0399437,248.716125 40.3264035,248.716125 Z M49.2082394,249.497375 L48.0558957,249.497375 L48.0558957,246.177063 C48.0558957,245.760394 47.9720749,245.449525 47.8044308,245.244446 C47.6367867,245.039366 47.3706761,244.936828 47.006091,244.936828 C46.5210625,244.936828 46.1662483,245.080056 45.9416378,245.366516 C45.7170273,245.652976 45.6047238,246.133114 45.6047238,246.806946 L45.6047238,249.497375 L44.4572628,249.497375 L44.4572628,244.096985 L45.3557003,244.096985 L45.5168332,244.804992 L45.5754269,244.804992 C45.7381881,244.54783 45.9693056,244.349264 46.2687863,244.209289 C46.5682669,244.069315 46.9002949,243.999328 47.26488,243.999328 C48.5604594,243.999328 49.2082394,244.658502 49.2082394,245.976867 L49.2082394,249.497375 Z M57.8605832,249.497375 L53.021716,249.497375 L53.021716,248.628235 L54.8625363,246.777649 C55.4061588,246.221005 55.7666695,245.826315 55.9440792,245.593567 C56.121489,245.360818 56.2508822,245.141908 56.3322628,244.936828 C56.4136435,244.731749 56.4543332,244.512025 56.4543332,244.277649 C56.4543332,243.955381 56.3574917,243.701478 56.1638058,243.51593 C55.9701199,243.330382 55.7023817,243.23761 55.3605832,243.23761 C55.0871443,243.23761 54.8226613,243.288065 54.5671261,243.388977 C54.311591,243.489889 54.0161838,243.672179 53.6808957,243.935852 L53.0607785,243.179016 C53.4579159,242.843728 53.8436542,242.6061 54.218005,242.466125 C54.5923559,242.326151 54.9911149,242.256164 55.4142941,242.256164 C56.0783599,242.256164 56.6105812,242.429502 57.0109738,242.776184 C57.4113664,243.122865 57.6115597,243.589169 57.6115597,244.17511 C57.6115597,244.497377 57.5537803,244.803363 57.4382199,245.093078 C57.3226594,245.382793 57.1452523,245.681456 56.9059933,245.989075 C56.6667343,246.296693 56.2687891,246.712542 55.7121457,247.236633 L54.4719113,248.437805 L54.4719113,248.486633 L57.8605832,248.486633 L57.8605832,249.497375 Z M63.568591,245.928039 C63.568591,247.16828 63.3692115,248.089495 62.9704464,248.691711 C62.5716814,249.293928 61.9621498,249.595032 61.1418332,249.595032 C60.3475583,249.595032 59.7453508,249.284162 59.3351925,248.662414 C58.9250342,248.040666 58.7199582,247.129217 58.7199582,245.928039 C58.7199582,244.668267 58.9193377,243.739729 59.3181027,243.142395 C59.7168677,242.545061 60.3247718,242.246399 61.1418332,242.246399 C61.9393632,242.246399 62.5431983,242.558896 62.9533566,243.183899 C63.3635149,243.808902 63.568591,244.723606 63.568591,245.928039 Z M59.8820675,245.928039 C59.8820675,246.901352 59.9821642,247.596332 60.1823605,248.013 C60.3825568,248.429669 60.7023778,248.638 61.1418332,248.638 C61.5812885,248.638 61.9027371,248.426414 62.1061886,248.003235 C62.3096402,247.580055 62.4113644,246.888331 62.4113644,245.928039 C62.4113644,244.971003 62.3096402,244.278465 62.1061886,243.850403 C61.9027371,243.422341 61.5812885,243.208313 61.1418332,243.208313 C60.7023778,243.208313 60.3825568,243.418272 60.1823605,243.838196 C59.9821642,244.25812 59.8820675,244.954727 59.8820675,245.928039 Z M67.8068722,249.497375 L66.6594113,249.497375 L66.6594113,244.888 C66.6594113,244.337867 66.672432,243.901674 66.6984738,243.579407 C66.6236036,243.657532 66.5316449,243.743794 66.4225949,243.838196 C66.3135448,243.932597 65.9481514,244.232073 65.3264035,244.736633 L64.7502316,244.009094 L66.849841,242.358703 L67.8068722,242.358703 L67.8068722,249.497375 Z M70.1652707,246.455383 C70.1652707,243.6624 71.3029546,242.26593 73.5783566,242.26593 C73.9364313,242.26593 74.2391626,242.293599 74.4865597,242.348938 L74.4865597,243.305969 C74.2391626,243.234354 73.9527072,243.198547 73.6271847,243.198547 C72.8622069,243.198547 72.2876684,243.403623 71.9035519,243.813782 C71.5194354,244.22394 71.3111042,244.881485 71.2785519,245.786438 L71.3371457,245.786438 C71.4901412,245.522765 71.7049828,245.318502 71.9816769,245.173645 C72.258371,245.028787 72.5838886,244.95636 72.9582394,244.95636 C73.6060291,244.95636 74.1105813,245.154925 74.4719113,245.552063 C74.8332412,245.9492 75.0139035,246.487932 75.0139035,247.168274 C75.0139035,247.916975 74.8047584,248.508604 74.3864621,248.943176 C73.9681657,249.377749 73.3976961,249.595032 72.6750363,249.595032 C72.163966,249.595032 71.7196345,249.472149 71.3420285,249.226379 C70.9644224,248.98061 70.673898,248.62254 70.4704464,248.15216 C70.2669949,247.68178 70.1652707,247.116194 70.1652707,246.455383 Z M72.655505,248.647766 C73.0493872,248.647766 73.3529323,248.520814 73.5661496,248.266907 C73.7793668,248.012999 73.8859738,247.650047 73.8859738,247.178039 C73.8859738,246.767881 73.7858771,246.445619 73.5856808,246.211242 C73.3854845,245.976866 73.0851945,245.85968 72.6848019,245.85968 C72.4374048,245.85968 72.2095425,245.912577 72.0012082,246.018371 C71.7928738,246.124166 71.6284874,246.269022 71.5080441,246.452942 C71.3876008,246.636862 71.32738,246.824848 71.32738,247.016907 C71.32738,247.475893 71.4518905,247.862445 71.7009152,248.176575 C71.9499399,248.490704 72.2681333,248.647766 72.655505,248.647766 Z" id="Jan-2016" fill="#808080"></path>
          <path d="M159.201879,249.497375 L158.488988,247.514953 L155.759496,247.514953 L155.061254,249.497375 L153.830785,249.497375 L156.501683,242.329407 L157.771215,242.329407 L160.442113,249.497375 L159.201879,249.497375 Z M158.181371,246.509094 L157.512426,244.565735 C157.463597,244.435526 157.396052,244.23045 157.309789,243.9505 C157.223526,243.670551 157.164119,243.465475 157.131566,243.335266 C157.043675,243.735659 156.915096,244.17348 156.745824,244.648742 L156.101293,246.509094 L158.181371,246.509094 Z M164.001683,249.595032 C163.318086,249.595032 162.787493,249.349266 162.409887,248.857727 L162.341527,248.857727 C162.3871,249.313458 162.409887,249.590148 162.409887,249.687805 L162.409887,251.899719 L161.262426,251.899719 L161.262426,244.096985 L162.19016,244.096985 C162.216202,244.197897 162.269912,244.43878 162.351293,244.819641 L162.409887,244.819641 C162.767961,244.272763 163.305065,243.999328 164.021215,243.999328 C164.695046,243.999328 165.219943,244.243467 165.595922,244.73175 C165.9719,245.220034 166.159887,245.905248 166.159887,246.787414 C166.159887,247.66958 165.968645,248.35805 165.586156,248.852844 C165.203667,249.347638 164.675515,249.595032 164.001683,249.595032 Z M163.723363,244.936828 C163.267632,244.936828 162.93479,245.070291 162.724828,245.337219 C162.514866,245.604147 162.409887,246.030575 162.409887,246.616516 L162.409887,246.787414 C162.409887,247.44497 162.514052,247.921039 162.722387,248.215637 C162.930721,248.510235 163.270887,248.657532 163.742894,248.657532 C164.140032,248.657532 164.446018,248.494773 164.660863,248.16925 C164.875708,247.843728 164.983129,247.379865 164.983129,246.777649 C164.983129,246.172177 164.876522,245.714011 164.663305,245.403137 C164.450087,245.092263 164.136777,244.936828 163.723363,244.936828 Z M170.232152,243.999328 C170.463273,243.999328 170.653701,244.015604 170.803441,244.048157 L170.691137,245.117492 C170.528375,245.07843 170.359106,245.058899 170.183324,245.058899 C169.724337,245.058899 169.352434,245.208637 169.067601,245.508117 C168.782769,245.807598 168.640355,246.196592 168.640355,246.67511 L168.640355,249.497375 L167.492894,249.497375 L167.492894,244.096985 L168.391332,244.096985 L168.542699,245.049133 L168.601293,245.049133 C168.78033,244.726866 169.013889,244.471335 169.301976,244.282532 C169.590064,244.093729 169.900119,243.999328 170.232152,243.999328 Z M178.860082,249.497375 L174.021215,249.497375 L174.021215,248.628235 L175.862035,246.777649 C176.405658,246.221005 176.766168,245.826315 176.943578,245.593567 C177.120988,245.360818 177.250381,245.141908 177.331762,244.936828 C177.413142,244.731749 177.453832,244.512025 177.453832,244.277649 C177.453832,243.955381 177.35699,243.701478 177.163305,243.51593 C176.969619,243.330382 176.701881,243.23761 176.360082,243.23761 C176.086643,243.23761 175.82216,243.288065 175.566625,243.388977 C175.31109,243.489889 175.015683,243.672179 174.680394,243.935852 L174.060277,243.179016 C174.457415,242.843728 174.843153,242.6061 175.217504,242.466125 C175.591855,242.326151 175.990614,242.256164 176.413793,242.256164 C177.077859,242.256164 177.61008,242.429502 178.010473,242.776184 C178.410865,243.122865 178.611058,243.589169 178.611058,244.17511 C178.611058,244.497377 178.553279,244.803363 178.437719,245.093078 C178.322158,245.382793 178.144751,245.681456 177.905492,245.989075 C177.666233,246.296693 177.268288,246.712542 176.711644,247.236633 L175.47141,248.437805 L175.47141,248.486633 L178.860082,248.486633 L178.860082,249.497375 Z M184.56809,245.928039 C184.56809,247.16828 184.36871,248.089495 183.969945,248.691711 C183.57118,249.293928 182.961649,249.595032 182.141332,249.595032 C181.347057,249.595032 180.74485,249.284162 180.334691,248.662414 C179.924533,248.040666 179.719457,247.129217 179.719457,245.928039 C179.719457,244.668267 179.918836,243.739729 180.317601,243.142395 C180.716366,242.545061 181.324271,242.246399 182.141332,242.246399 C182.938862,242.246399 183.542697,242.558896 183.952855,243.183899 C184.363014,243.808902 184.56809,244.723606 184.56809,245.928039 Z M180.881566,245.928039 C180.881566,246.901352 180.981663,247.596332 181.181859,248.013 C181.382056,248.429669 181.701877,248.638 182.141332,248.638 C182.580787,248.638 182.902236,248.426414 183.105687,248.003235 C183.309139,247.580055 183.410863,246.888331 183.410863,245.928039 C183.410863,244.971003 183.309139,244.278465 183.105687,243.850403 C182.902236,243.422341 182.580787,243.208313 182.141332,243.208313 C181.701877,243.208313 181.382056,243.418272 181.181859,243.838196 C180.981663,244.25812 180.881566,244.954727 180.881566,245.928039 Z M188.806371,249.497375 L187.65891,249.497375 L187.65891,244.888 C187.65891,244.337867 187.671931,243.901674 187.697973,243.579407 C187.623102,243.657532 187.531144,243.743794 187.422094,243.838196 C187.313044,243.932597 186.94765,244.232073 186.325902,244.736633 L185.74973,244.009094 L187.84934,242.358703 L188.806371,242.358703 L188.806371,249.497375 Z M191.164769,246.455383 C191.164769,243.6624 192.302453,242.26593 194.577855,242.26593 C194.93593,242.26593 195.238661,242.293599 195.486058,242.348938 L195.486058,243.305969 C195.238661,243.234354 194.952206,243.198547 194.626683,243.198547 C193.861706,243.198547 193.287167,243.403623 192.903051,243.813782 C192.518934,244.22394 192.310603,244.881485 192.278051,245.786438 L192.336644,245.786438 C192.48964,245.522765 192.704482,245.318502 192.981176,245.173645 C193.25787,245.028787 193.583387,244.95636 193.957738,244.95636 C194.605528,244.95636 195.11008,245.154925 195.47141,245.552063 C195.83274,245.9492 196.013402,246.487932 196.013402,247.168274 C196.013402,247.916975 195.804257,248.508604 195.385961,248.943176 C194.967664,249.377749 194.397195,249.595032 193.674535,249.595032 C193.163465,249.595032 192.719133,249.472149 192.341527,249.226379 C191.963921,248.98061 191.673397,248.62254 191.469945,248.15216 C191.266494,247.68178 191.164769,247.116194 191.164769,246.455383 Z M193.655004,248.647766 C194.048886,248.647766 194.352431,248.520814 194.565648,248.266907 C194.778866,248.012999 194.885473,247.650047 194.885473,247.178039 C194.885473,246.767881 194.785376,246.445619 194.58518,246.211242 C194.384983,245.976866 194.084693,245.85968 193.684301,245.85968 C193.436904,245.85968 193.209041,245.912577 193.000707,246.018371 C192.792373,246.124166 192.627986,246.269022 192.507543,246.452942 C192.3871,246.636862 192.326879,246.824848 192.326879,247.016907 C192.326879,247.475893 192.451389,247.862445 192.700414,248.176575 C192.949439,248.490704 193.267632,248.647766 193.655004,248.647766 Z" id="Apr-2016" fill="#808080"></path>
          <path d="M279.618699,251.489563 C279.299687,251.489563 279.032763,251.448873 278.817918,251.367492 L278.817918,250.386047 C279.091357,250.454407 279.328985,250.488586 279.530809,250.488586 C280.168833,250.488586 280.48784,250.084944 280.48784,249.277649 L280.48784,242.358703 L281.659715,242.358703 L281.659715,249.238586 C281.659715,249.967757 281.486377,250.525205 281.139695,250.91095 C280.793014,251.296694 280.28602,251.489563 279.618699,251.489563 Z M287.196824,249.497375 L287.035692,248.789367 L286.977098,248.789367 C286.817592,249.04002 286.590543,249.236958 286.295945,249.380188 C286.001348,249.523418 285.665251,249.595032 285.287645,249.595032 C284.633344,249.595032 284.145068,249.432273 283.822801,249.10675 C283.500534,248.781228 283.339402,248.288069 283.339402,247.627258 L283.339402,244.096985 L284.496629,244.096985 L284.496629,247.427063 C284.496629,247.840476 284.581264,248.150532 284.750535,248.357239 C284.919807,248.563945 285.185104,248.667297 285.546434,248.667297 C286.028207,248.667297 286.382207,248.523256 286.608445,248.235168 C286.834684,247.947081 286.947801,247.464501 286.947801,246.787414 L286.947801,244.096985 L288.100145,244.096985 L288.100145,249.497375 L287.196824,249.497375 Z M290.883348,249.497375 L289.735887,249.497375 L289.735887,241.899719 L290.883348,241.899719 L290.883348,249.497375 Z M299.579637,249.497375 L294.74077,249.497375 L294.74077,248.628235 L296.58159,246.777649 C297.125212,246.221005 297.485723,245.826315 297.663133,245.593567 C297.840543,245.360818 297.969936,245.141908 298.051317,244.936828 C298.132697,244.731749 298.173387,244.512025 298.173387,244.277649 C298.173387,243.955381 298.076545,243.701478 297.882859,243.51593 C297.689174,243.330382 297.421435,243.23761 297.079637,243.23761 C296.806198,243.23761 296.541715,243.288065 296.28618,243.388977 C296.030645,243.489889 295.735237,243.672179 295.399949,243.935852 L294.779832,243.179016 C295.17697,242.843728 295.562708,242.6061 295.937059,242.466125 C296.31141,242.326151 296.710169,242.256164 297.133348,242.256164 C297.797414,242.256164 298.329635,242.429502 298.730027,242.776184 C299.13042,243.122865 299.330613,243.589169 299.330613,244.17511 C299.330613,244.497377 299.272834,244.803363 299.157274,245.093078 C299.041713,245.382793 298.864306,245.681456 298.625047,245.989075 C298.385788,246.296693 297.987843,246.712542 297.431199,247.236633 L296.190965,248.437805 L296.190965,248.486633 L299.579637,248.486633 L299.579637,249.497375 Z M305.287645,245.928039 C305.287645,247.16828 305.088265,248.089495 304.6895,248.691711 C304.290735,249.293928 303.681203,249.595032 302.860887,249.595032 C302.066612,249.595032 301.464404,249.284162 301.054246,248.662414 C300.644088,248.040666 300.439012,247.129217 300.439012,245.928039 C300.439012,244.668267 300.638391,243.739729 301.037156,243.142395 C301.435921,242.545061 302.043825,242.246399 302.860887,242.246399 C303.658417,242.246399 304.262252,242.558896 304.67241,243.183899 C305.082569,243.808902 305.287645,244.723606 305.287645,245.928039 Z M301.601121,245.928039 C301.601121,246.901352 301.701218,247.596332 301.901414,248.013 C302.10161,248.429669 302.421431,248.638 302.860887,248.638 C303.300342,248.638 303.621791,248.426414 303.825242,248.003235 C304.028694,247.580055 304.130418,246.888331 304.130418,245.928039 C304.130418,244.971003 304.028694,244.278465 303.825242,243.850403 C303.621791,243.422341 303.300342,243.208313 302.860887,243.208313 C302.421431,243.208313 302.10161,243.418272 301.901414,243.838196 C301.701218,244.25812 301.601121,244.954727 301.601121,245.928039 Z M309.525926,249.497375 L308.378465,249.497375 L308.378465,244.888 C308.378465,244.337867 308.391486,243.901674 308.417527,243.579407 C308.342657,243.657532 308.250699,243.743794 308.141649,243.838196 C308.032599,243.932597 307.667205,244.232073 307.045457,244.736633 L306.469285,244.009094 L308.568895,242.358703 L309.525926,242.358703 L309.525926,249.497375 Z M311.884324,246.455383 C311.884324,243.6624 313.022008,242.26593 315.29741,242.26593 C315.655485,242.26593 315.958216,242.293599 316.205613,242.348938 L316.205613,243.305969 C315.958216,243.234354 315.671761,243.198547 315.346238,243.198547 C314.581261,243.198547 314.006722,243.403623 313.622606,243.813782 C313.238489,244.22394 313.030158,244.881485 312.997606,245.786438 L313.056199,245.786438 C313.209195,245.522765 313.424036,245.318502 313.700731,245.173645 C313.977425,245.028787 314.302942,244.95636 314.677293,244.95636 C315.325083,244.95636 315.829635,245.154925 316.190965,245.552063 C316.552295,245.9492 316.732957,246.487932 316.732957,247.168274 C316.732957,247.916975 316.523812,248.508604 316.105516,248.943176 C315.687219,249.377749 315.11675,249.595032 314.39409,249.595032 C313.88302,249.595032 313.438688,249.472149 313.061082,249.226379 C312.683476,248.98061 312.392952,248.62254 312.1895,248.15216 C311.986049,247.68178 311.884324,247.116194 311.884324,246.455383 Z M314.374559,248.647766 C314.768441,248.647766 315.071986,248.520814 315.285203,248.266907 C315.49842,248.012999 315.605027,247.650047 315.605027,247.178039 C315.605027,246.767881 315.504931,246.445619 315.304734,246.211242 C315.104538,245.976866 314.804248,245.85968 314.403856,245.85968 C314.156459,245.85968 313.928596,245.912577 313.720262,246.018371 C313.511927,246.124166 313.347541,246.269022 313.227098,246.452942 C313.106654,246.636862 313.046434,246.824848 313.046434,247.016907 C313.046434,247.475893 313.170944,247.862445 313.419969,248.176575 C313.668994,248.490704 313.987187,248.647766 314.374559,248.647766 Z" id="Jul-2016" fill="#808080"></path>
          <path d="M406.158158,245.918274 C406.158158,247.080389 405.867633,247.9837 405.286576,248.628235 C404.705518,249.272769 403.882772,249.595032 402.818314,249.595032 C401.740835,249.595032 400.913206,249.275211 400.335404,248.635559 C399.757602,247.995907 399.468705,247.086899 399.468705,245.908508 C399.468705,244.730117 399.759229,243.825178 400.340287,243.193664 C400.921344,242.562151 401.7506,242.246399 402.82808,242.246399 C403.889283,242.246399 404.709587,242.567034 405.289017,243.208313 C405.868447,243.849592 406.158158,244.752903 406.158158,245.918274 Z M400.708939,245.918274 C400.708939,246.797184 400.886346,247.463682 401.241166,247.917785 C401.595985,248.371889 402.121696,248.598938 402.818314,248.598938 C403.511677,248.598938 404.034946,248.374331 404.388138,247.92511 C404.74133,247.475889 404.917923,246.80695 404.917923,245.918274 C404.917923,245.042618 404.742958,244.378562 404.393021,243.926086 C404.043084,243.47361 403.521443,243.247375 402.82808,243.247375 C402.128206,243.247375 401.600054,243.47361 401.243607,243.926086 C400.88716,244.378562 400.708939,245.042618 400.708939,245.918274 Z M409.747025,249.595032 C408.929964,249.595032 408.309039,249.35659 407.884232,248.8797 C407.459425,248.402809 407.247025,247.718408 407.247025,246.826477 C407.247025,245.918269 407.469191,245.220034 407.913529,244.73175 C408.357867,244.243467 408.99995,243.999328 409.839798,243.999328 C410.409463,243.999328 410.922153,244.105122 411.377884,244.316711 L411.031205,245.239563 C410.546176,245.05076 410.14579,244.95636 409.830033,244.95636 C408.895783,244.95636 408.428666,245.576471 408.428666,246.816711 C408.428666,247.422183 408.545038,247.877094 408.777787,248.181457 C409.010535,248.485821 409.351515,248.638 409.800736,248.638 C410.311806,248.638 410.7952,248.511048 411.250931,248.257141 L411.250931,249.258117 C411.045852,249.378561 410.826942,249.464823 410.594193,249.516907 C410.361444,249.56899 410.079058,249.595032 409.747025,249.595032 Z M414.532181,248.667297 C414.812131,248.667297 415.092076,248.623352 415.372025,248.535461 L415.372025,249.399719 C415.245071,249.455058 415.081499,249.501444 414.881302,249.538879 C414.681106,249.576314 414.473589,249.595032 414.258744,249.595032 C413.171499,249.595032 412.627884,249.022121 412.627884,247.876282 L412.627884,244.966125 L411.89058,244.966125 L411.89058,244.458313 L412.681595,244.038391 L413.07222,242.895813 L413.780228,242.895813 L413.780228,244.096985 L415.318314,244.096985 L415.318314,244.966125 L413.780228,244.966125 L413.780228,247.85675 C413.780228,248.133444 413.849401,248.337707 413.987748,248.469543 C414.126095,248.60138 414.307571,248.667297 414.532181,248.667297 Z M423.506791,249.497375 L418.667923,249.497375 L418.667923,248.628235 L420.508744,246.777649 C421.052366,246.221005 421.412877,245.826315 421.590287,245.593567 C421.767696,245.360818 421.89709,245.141908 421.97847,244.936828 C422.059851,244.731749 422.100541,244.512025 422.100541,244.277649 C422.100541,243.955381 422.003699,243.701478 421.810013,243.51593 C421.616327,243.330382 421.348589,243.23761 421.006791,243.23761 C420.733352,243.23761 420.468869,243.288065 420.213334,243.388977 C419.957798,243.489889 419.662391,243.672179 419.327103,243.935852 L418.706986,243.179016 C419.104123,242.843728 419.489862,242.6061 419.864212,242.466125 C420.238563,242.326151 420.637322,242.256164 421.060502,242.256164 C421.724567,242.256164 422.256789,242.429502 422.657181,242.776184 C423.057574,243.122865 423.257767,243.589169 423.257767,244.17511 C423.257767,244.497377 423.199988,244.803363 423.084427,245.093078 C422.968867,245.382793 422.79146,245.681456 422.552201,245.989075 C422.312942,246.296693 421.914997,246.712542 421.358353,247.236633 L420.118119,248.437805 L420.118119,248.486633 L423.506791,248.486633 L423.506791,249.497375 Z M429.214798,245.928039 C429.214798,247.16828 429.015419,248.089495 428.616654,248.691711 C428.217889,249.293928 427.608357,249.595032 426.788041,249.595032 C425.993766,249.595032 425.391558,249.284162 424.9814,248.662414 C424.571242,248.040666 424.366166,247.129217 424.366166,245.928039 C424.366166,244.668267 424.565545,243.739729 424.96431,243.142395 C425.363075,242.545061 425.970979,242.246399 426.788041,242.246399 C427.585571,242.246399 428.189406,242.558896 428.599564,243.183899 C429.009722,243.808902 429.214798,244.723606 429.214798,245.928039 Z M425.528275,245.928039 C425.528275,246.901352 425.628372,247.596332 425.828568,248.013 C426.028764,248.429669 426.348585,248.638 426.788041,248.638 C427.227496,248.638 427.548945,248.426414 427.752396,248.003235 C427.955848,247.580055 428.057572,246.888331 428.057572,245.928039 C428.057572,244.971003 427.955848,244.278465 427.752396,243.850403 C427.548945,243.422341 427.227496,243.208313 426.788041,243.208313 C426.348585,243.208313 426.028764,243.418272 425.828568,243.838196 C425.628372,244.25812 425.528275,244.954727 425.528275,245.928039 Z M433.45308,249.497375 L432.305619,249.497375 L432.305619,244.888 C432.305619,244.337867 432.318639,243.901674 432.344681,243.579407 C432.269811,243.657532 432.177852,243.743794 432.068802,243.838196 C431.959752,243.932597 431.594359,244.232073 430.972611,244.736633 L430.396439,244.009094 L432.496048,242.358703 L433.45308,242.358703 L433.45308,249.497375 Z M435.811478,246.455383 C435.811478,243.6624 436.949162,242.26593 439.224564,242.26593 C439.582639,242.26593 439.88537,242.293599 440.132767,242.348938 L440.132767,243.305969 C439.88537,243.234354 439.598915,243.198547 439.273392,243.198547 C438.508414,243.198547 437.933876,243.403623 437.549759,243.813782 C437.165643,244.22394 436.957312,244.881485 436.924759,245.786438 L436.983353,245.786438 C437.136349,245.522765 437.35119,245.318502 437.627884,245.173645 C437.904578,245.028787 438.230096,244.95636 438.604447,244.95636 C439.252237,244.95636 439.756789,245.154925 440.118119,245.552063 C440.479449,245.9492 440.660111,246.487932 440.660111,247.168274 C440.660111,247.916975 440.450966,248.508604 440.03267,248.943176 C439.614373,249.377749 439.043904,249.595032 438.321244,249.595032 C437.810173,249.595032 437.365842,249.472149 436.988236,249.226379 C436.61063,248.98061 436.320105,248.62254 436.116654,248.15216 C435.913202,247.68178 435.811478,247.116194 435.811478,246.455383 Z M438.301712,248.647766 C438.695595,248.647766 438.99914,248.520814 439.212357,248.266907 C439.425574,248.012999 439.532181,247.650047 439.532181,247.178039 C439.532181,246.767881 439.432085,246.445619 439.231888,246.211242 C439.031692,245.976866 438.731402,245.85968 438.331009,245.85968 C438.083612,245.85968 437.85575,245.912577 437.647416,246.018371 C437.439081,246.124166 437.274695,246.269022 437.154252,246.452942 C437.033808,246.636862 436.973587,246.824848 436.973587,247.016907 C436.973587,247.475893 437.098098,247.862445 437.347123,248.176575 C437.596147,248.490704 437.914341,248.647766 438.301712,248.647766 Z" id="Oct-2016" fill="#808080"></path>
          <path d="M521.337753,251.489563 C521.018741,251.489563 520.751817,251.448873 520.536972,251.367492 L520.536972,250.386047 C520.810411,250.454407 521.048038,250.488586 521.249862,250.488586 C521.887886,250.488586 522.206894,250.084944 522.206894,249.277649 L522.206894,242.358703 L523.378769,242.358703 L523.378769,249.238586 C523.378769,249.967757 523.205431,250.525205 522.858749,250.91095 C522.512068,251.296694 522.005074,251.489563 521.337753,251.489563 Z M528.48619,249.497375 L528.256698,248.745422 L528.217636,248.745422 C527.957218,249.0742 527.695176,249.297993 527.431503,249.416809 C527.16783,249.535625 526.829292,249.595032 526.415878,249.595032 C525.885276,249.595032 525.471055,249.451804 525.173202,249.165344 C524.875349,248.878884 524.726425,248.473615 524.726425,247.949524 C524.726425,247.39288 524.933129,246.972963 525.346542,246.689758 C525.759956,246.406554 526.389832,246.251933 527.23619,246.225891 L528.168808,246.196594 L528.168808,245.908508 C528.168808,245.563454 528.088242,245.305482 527.927108,245.134582 C527.765975,244.963683 527.51614,244.878235 527.177597,244.878235 C526.900903,244.878235 526.635606,244.918924 526.381698,245.000305 C526.127791,245.081686 525.883653,245.177713 525.649276,245.288391 L525.278183,244.468078 C525.571153,244.315083 525.891788,244.19871 526.240097,244.118957 C526.588406,244.039204 526.917179,243.999328 527.226425,243.999328 C527.913277,243.999328 528.431664,244.149067 528.781601,244.448547 C529.131537,244.748028 529.306503,245.218401 529.306503,245.85968 L529.306503,249.497375 L528.48619,249.497375 Z M526.777206,248.716125 C527.193875,248.716125 527.528344,248.599753 527.780624,248.367004 C528.032904,248.134256 528.159042,247.807924 528.159042,247.388 L528.159042,246.91925 L527.465683,246.948547 C526.925315,246.968079 526.532253,247.05841 526.286483,247.219543 C526.040714,247.380677 525.917831,247.627256 525.917831,247.959289 C525.917831,248.200176 525.989445,248.386535 526.132675,248.518371 C526.275905,248.650208 526.490746,248.716125 526.777206,248.716125 Z M535.659042,249.497375 L534.506698,249.497375 L534.506698,246.177063 C534.506698,245.760394 534.422878,245.449525 534.255233,245.244446 C534.087589,245.039366 533.821479,244.936828 533.456894,244.936828 C532.971865,244.936828 532.617051,245.080056 532.39244,245.366516 C532.16783,245.652976 532.055526,246.133114 532.055526,246.806946 L532.055526,249.497375 L530.908065,249.497375 L530.908065,244.096985 L531.806503,244.096985 L531.967636,244.804992 L532.02623,244.804992 C532.188991,244.54783 532.420108,244.349264 532.719589,244.209289 C533.01907,244.069315 533.351098,243.999328 533.715683,243.999328 C535.011262,243.999328 535.659042,244.658502 535.659042,245.976867 L535.659042,249.497375 Z M544.311386,249.497375 L539.472519,249.497375 L539.472519,248.628235 L541.313339,246.777649 C541.856961,246.221005 542.217472,245.826315 542.394882,245.593567 C542.572292,245.360818 542.701685,245.141908 542.783065,244.936828 C542.864446,244.731749 542.905136,244.512025 542.905136,244.277649 C542.905136,243.955381 542.808294,243.701478 542.614608,243.51593 C542.420923,243.330382 542.153184,243.23761 541.811386,243.23761 C541.537947,243.23761 541.273464,243.288065 541.017929,243.388977 C540.762394,243.489889 540.466986,243.672179 540.131698,243.935852 L539.511581,243.179016 C539.908719,242.843728 540.294457,242.6061 540.668808,242.466125 C541.043159,242.326151 541.441918,242.256164 541.865097,242.256164 C542.529163,242.256164 543.061384,242.429502 543.461776,242.776184 C543.862169,243.122865 544.062362,243.589169 544.062362,244.17511 C544.062362,244.497377 544.004583,244.803363 543.889023,245.093078 C543.773462,245.382793 543.596055,245.681456 543.356796,245.989075 C543.117537,246.296693 542.719592,246.712542 542.162948,247.236633 L540.922714,248.437805 L540.922714,248.486633 L544.311386,248.486633 L544.311386,249.497375 Z M550.019394,245.928039 C550.019394,247.16828 549.820014,248.089495 549.421249,248.691711 C549.022484,249.293928 548.412952,249.595032 547.592636,249.595032 C546.798361,249.595032 546.196153,249.284162 545.785995,248.662414 C545.375837,248.040666 545.170761,247.129217 545.170761,245.928039 C545.170761,244.668267 545.37014,243.739729 545.768905,243.142395 C546.16767,242.545061 546.775574,242.246399 547.592636,242.246399 C548.390166,242.246399 548.994001,242.558896 549.404159,243.183899 C549.814318,243.808902 550.019394,244.723606 550.019394,245.928039 Z M546.33287,245.928039 C546.33287,246.901352 546.432967,247.596332 546.633163,248.013 C546.833359,248.429669 547.15318,248.638 547.592636,248.638 C548.032091,248.638 548.35354,248.426414 548.556991,248.003235 C548.760443,247.580055 548.862167,246.888331 548.862167,245.928039 C548.862167,244.971003 548.760443,244.278465 548.556991,243.850403 C548.35354,243.422341 548.032091,243.208313 547.592636,243.208313 C547.15318,243.208313 546.833359,243.418272 546.633163,243.838196 C546.432967,244.25812 546.33287,244.954727 546.33287,245.928039 Z M554.257675,249.497375 L553.110214,249.497375 L553.110214,244.888 C553.110214,244.337867 553.123235,243.901674 553.149276,243.579407 C553.074406,243.657532 552.982448,243.743794 552.873398,243.838196 C552.764347,243.932597 552.398954,244.232073 551.777206,244.736633 L551.201034,244.009094 L553.300644,242.358703 L554.257675,242.358703 L554.257675,249.497375 Z M557.407089,249.497375 L560.229355,243.379211 L556.518417,243.379211 L556.518417,242.368469 L561.45494,242.368469 L561.45494,243.16925 L558.647323,249.497375 L557.407089,249.497375 Z" id="Jan-2017" fill="#808080"></path>
          <g id="Group-9">
            <g id="Group-11">
              <g id="Group-10">
                <g id="Rectangle-16-Copy-2">
                  <use fill="#FFFFFF" fill-rule="evenodd" xlink:href="#path-2"></use>
                  <rect stroke="#E6E6E6" stroke-width="1" x="0.5" y="167.745087" width="59.2571317" height="57.3056266"></rect>
                </g>
                <g id="Rectangle-16-Copy-4">
                  <use fill="#FFFFFF" fill-rule="evenodd" xlink:href="#path-3"></use>
                  <rect stroke="#E6E6E6" stroke-width="1" x="0.5" y="114.042536" width="59.2571317" height="57.3056266"></rect>
                </g>
                <g id="Rectangle-16-Copy-3">
                  <use fill="#FFFFFF" fill-rule="evenodd" xlink:href="#path-4"></use>
                  <rect stroke="#E6E6E6" stroke-width="1" x="0.5" y="57.271268" width="59.2571317" height="57.3056266"></rect>
                </g>
                <g id="Rectangle-16-Copy-5">
                  <use fill="#FFFFFF" fill-rule="evenodd" xlink:href="#path-5"></use>
                  <rect stroke="#E6E6E6" stroke-width="1" x="0.5" y="0.5" width="59.2571317" height="57.3056266"></rect>
                </g>
              </g>
              <g id="Group-10-Copy" transform="translate(55.358678, 0.000000)">
                <g id="Rectangle-16-Copy-2">
                  <use fill="#FFFFFF" fill-rule="evenodd" xlink:href="#path-6"></use>
                  <rect stroke="#E6E6E6" stroke-width="1" x="0.5" y="167.718632" width="122.147951" height="57.3320811"></rect>
                </g>
                <g id="Rectangle-16-Copy-4">
                  <use fill="#FFFFFF" fill-rule="evenodd" xlink:href="#path-7"></use>
                  <rect stroke="#E6E6E6" stroke-width="1" x="0.5" y="113.275357" width="122.147951" height="57.3320811"></rect>
                </g>
                <g id="Rectangle-16-Copy-3">
                  <use fill="#FFFFFF" fill-rule="evenodd" xlink:href="#path-8"></use>
                  <rect stroke="#E6E6E6" stroke-width="1" x="0.5" y="56.8876784" width="122.147951" height="57.3320811"></rect>
                </g>
                <g id="Rectangle-16-Copy-5">
                  <use fill="#FFFFFF" fill-rule="evenodd" xlink:href="#path-9"></use>
                  <rect stroke="#E6E6E6" stroke-width="1" x="0.5" y="0.5" width="122.147951" height="57.3320811"></rect>
                </g>
              </g>
            </g>
            <g id="Group-11-Copy" transform="translate(175.348989, 0.000000)">
              <g id="Group-10">
                <g id="Rectangle-16-Copy-2">
                  <use fill="#FFFFFF" fill-rule="evenodd" xlink:href="#path-10"></use>
                  <rect stroke="#E6E6E6" stroke-width="1" x="0.5" y="167.718632" width="125.305591" height="57.3320811"></rect>
                </g>
                <g id="Rectangle-16-Copy-4">
                  <use fill="#FFFFFF" fill-rule="evenodd" xlink:href="#path-11"></use>
                  <rect stroke="#E6E6E6" stroke-width="1" x="0.5" y="113.275357" width="125.305591" height="57.3320811"></rect>
                </g>
                <g id="Rectangle-16-Copy-3">
                  <use fill="#FFFFFF" fill-rule="evenodd" xlink:href="#path-12"></use>
                  <rect stroke="#E6E6E6" stroke-width="1" x="0.5" y="56.8876784" width="125.305591" height="57.3320811"></rect>
                </g>
                <g id="Rectangle-16-Copy-5">
                  <use fill="#FFFFFF" fill-rule="evenodd" xlink:href="#path-13"></use>
                  <rect stroke="#E6E6E6" stroke-width="1" x="0.5" y="0.5" width="125.305591" height="57.3320811"></rect>
                </g>
              </g>
              <g id="Group-10-Copy" transform="translate(123.147951, 0.000000)">
                <g id="Rectangle-16-Copy-2">
                  <use fill="#FFFFFF" fill-rule="evenodd" xlink:href="#path-14"></use>
                  <rect stroke="#E6E6E6" stroke-width="1" x="0.5" y="167.718632" width="122.147951" height="57.3320811"></rect>
                </g>
                <g id="Rectangle-16-Copy-4">
                  <use fill="#FFFFFF" fill-rule="evenodd" xlink:href="#path-15"></use>
                  <rect stroke="#E6E6E6" stroke-width="1" x="0.5" y="113.275357" width="122.147951" height="57.3320811"></rect>
                </g>
                <g id="Rectangle-16-Copy-3">
                  <use fill="#FFFFFF" fill-rule="evenodd" xlink:href="#path-16"></use>
                  <rect stroke="#E6E6E6" stroke-width="1" x="0.5" y="56.8876784" width="122.147951" height="57.3320811"></rect>
                </g>
                <g id="Rectangle-16-Copy-5">
                  <use fill="#FFFFFF" fill-rule="evenodd" xlink:href="#path-17"></use>
                  <rect stroke="#E6E6E6" stroke-width="1" x="0.5" y="0.5" width="122.147951" height="57.3320811"></rect>
                </g>
              </g>
            </g>
            <g id="Group-11-Copy-2" transform="translate(418.487252, 0.000000)">
              <g id="Group-10">
                <g id="Rectangle-16-Copy-2">
                  <use fill="#FFFFFF" fill-rule="evenodd" xlink:href="#path-18"></use>
                  <rect stroke="#E6E6E6" stroke-width="1" x="0.5" y="167.718632" width="125.305591" height="57.3320811"></rect>
                </g>
                <g id="Rectangle-16-Copy-4">
                  <use fill="#FFFFFF" fill-rule="evenodd" xlink:href="#path-19"></use>
                  <rect stroke="#E6E6E6" stroke-width="1" x="0.5" y="113.275357" width="125.305591" height="57.3320811"></rect>
                </g>
                <g id="Rectangle-16-Copy-3">
                  <use fill="#FFFFFF" fill-rule="evenodd" xlink:href="#path-20"></use>
                  <rect stroke="#E6E6E6" stroke-width="1" x="0.5" y="56.8876784" width="125.305591" height="57.3320811"></rect>
                </g>
                <g id="Rectangle-16-Copy-5">
                  <use fill="#FFFFFF" fill-rule="evenodd" xlink:href="#path-21"></use>
                  <rect stroke="#E6E6E6" stroke-width="1" x="0.5" y="0.5" width="125.305591" height="57.3320811"></rect>
                </g>
              </g>
              <g id="Group-10-Copy" transform="translate(123.147951, 0.000000)">
                <g id="Rectangle-16-Copy-2">
                  <use fill="#FFFFFF" fill-rule="evenodd" xlink:href="#path-22"></use>
                  <rect stroke="#E6E6E6" stroke-width="1" x="0.5" y="167.718632" width="37.0254761" height="57.3320811"></rect>
                </g>
                <g id="Rectangle-16-Copy-4">
                  <use fill="#FFFFFF" fill-rule="evenodd" xlink:href="#path-23"></use>
                  <rect stroke="#E6E6E6" stroke-width="1" x="0.5" y="113.275357" width="37.0254761" height="57.3320811"></rect>
                </g>
                <g id="Rectangle-16-Copy-3">
                  <use fill="#FFFFFF" fill-rule="evenodd" xlink:href="#path-24"></use>
                  <rect stroke="#E6E6E6" stroke-width="1" x="0.5" y="56.8876784" width="37.0254761" height="57.3320811"></rect>
                </g>
                <g id="Rectangle-16-Copy-5">
                  <use fill="#FFFFFF" fill-rule="evenodd" xlink:href="#path-25"></use>
                  <rect stroke="#E6E6E6" stroke-width="1" x="0.5" y="0.5" width="37.0254761" height="57.3320811"></rect>
                </g>
              </g>
            </g>
          </g>
        </g>
        <g id="Group-13" transform="translate(0.000000, 2.000000)" fill="#808080">
          <g id="Group-112">
            <path d="M35.1005859,11.4949595 L33.953125,11.4949595 L33.953125,6.88558446 C33.953125,6.3354515 33.9661457,5.89925794 33.9921875,5.57699071 C33.9173173,5.6551161 33.8253586,5.74137826 33.7163086,5.83577977 C33.6072586,5.93018128 33.2418651,6.22965745 32.6201172,6.73421727 L32.0439453,6.00667821 L34.1435547,4.35628758 L35.1005859,4.35628758 L35.1005859,11.4949595 Z" id="1"></path>
            <path d="M30.8623047,63.653627 L26.0234375,63.653627 L26.0234375,62.7844864 L27.8642578,60.9339004 C28.4078803,60.377257 28.768391,59.982567 28.9458008,59.7498184 C29.1232105,59.5170698 29.2526038,59.2981593 29.3339844,59.0930801 C29.415365,58.888001 29.4560547,58.6682766 29.4560547,58.4339004 C29.4560547,58.1116332 29.3592132,57.8577295 29.1655273,57.6721817 C28.9718415,57.4866339 28.7041033,57.3938614 28.3623047,57.3938614 C28.0888658,57.3938614 27.8243828,57.4443166 27.5688477,57.5452286 C27.3133125,57.6461405 27.0179053,57.8284304 26.6826172,58.0921036 L26.0625,57.3352676 C26.4596374,56.9999795 26.8453757,56.7623517 27.2197266,56.622377 C27.5940774,56.4824023 27.9928364,56.4124161 28.4160156,56.4124161 C29.0800814,56.4124161 29.6123027,56.5857542 30.0126953,56.9324356 C30.4130879,57.279117 30.6132812,57.7454209 30.6132812,58.3313614 C30.6132812,58.6536286 30.5555019,58.9596151 30.4399414,59.2493301 C30.3243809,59.5390451 30.1469739,59.8377075 29.9077148,60.1453262 C29.6684558,60.4529449 29.2705106,60.8687937 28.7138672,61.3928848 L27.4736328,62.5940567 L27.4736328,62.6428848 L30.8623047,62.6428848 L30.8623047,63.653627 Z M34.1533203,59.1956192 C34.872725,59.1956192 35.4423807,59.386047 35.8623047,59.7669082 C36.2822287,60.1477695 36.4921875,60.6669701 36.4921875,61.3245254 C36.4921875,62.086248 36.2537459,62.6811314 35.7768555,63.1091934 C35.2999651,63.5372554 34.6220747,63.7512832 33.7431641,63.7512832 C32.945634,63.7512832 32.3190127,63.6227038 31.8632812,63.3655411 L31.8632812,62.325502 C32.1269544,62.4752423 32.4296858,62.5908011 32.7714844,62.6721817 C33.113283,62.7535623 33.4306626,62.794252 33.7236328,62.794252 C34.2412135,62.794252 34.6350898,62.6786933 34.9052734,62.4475723 C35.1754571,62.2164514 35.3105469,61.8779131 35.3105469,61.4319473 C35.3105469,60.5790785 34.7669325,60.1526504 33.6796875,60.1526504 C33.5266919,60.1526504 33.3378917,60.1681125 33.1132812,60.1990372 C32.8886708,60.2299618 32.6917326,60.2649549 32.5224609,60.3040176 L32.0097656,60.0012832 L32.2832031,56.5149551 L35.9941406,56.5149551 L35.9941406,57.5354629 L33.2939453,57.5354629 L33.1328125,59.3030411 C33.2467454,59.2835097 33.3859041,59.2607235 33.550293,59.2346817 C33.7146818,59.2086399 33.9156889,59.1956192 34.1533203,59.1956192 Z" id="25"></path>
            <path d="M28.4453125,112.888365 C29.1647171,112.888365 29.7343729,113.078793 30.1542969,113.459654 C30.5742208,113.840516 30.7841797,114.359716 30.7841797,115.017271 C30.7841797,115.778994 30.5457381,116.373877 30.0688477,116.801939 C29.5919573,117.230001 28.9140669,117.444029 28.0351562,117.444029 C27.2376262,117.444029 26.6110049,117.31545 26.1552734,117.058287 L26.1552734,116.018248 C26.4189466,116.167988 26.721678,116.283547 27.0634766,116.364928 C27.4052751,116.446308 27.7226548,116.486998 28.015625,116.486998 C28.5332057,116.486998 28.927082,116.371439 29.1972656,116.140318 C29.4674493,115.909197 29.6025391,115.570659 29.6025391,115.124693 C29.6025391,114.271824 29.0589247,113.845396 27.9716797,113.845396 C27.8186841,113.845396 27.6298839,113.860859 27.4052734,113.891783 C27.1806629,113.922708 26.9837248,113.957701 26.8144531,113.996764 L26.3017578,113.694029 L26.5751953,110.207701 L30.2861328,110.207701 L30.2861328,111.228209 L27.5859375,111.228209 L27.4248047,112.995787 C27.5387375,112.976256 27.6778963,112.953469 27.8422852,112.927428 C28.006674,112.901386 28.2076811,112.888365 28.4453125,112.888365 Z M36.5703125,113.777037 C36.5703125,115.017278 36.370933,115.938492 35.972168,116.540709 C35.573403,117.142925 34.9638713,117.444029 34.1435547,117.444029 C33.3492799,117.444029 32.7470724,117.13316 32.3369141,116.511412 C31.9267558,115.889664 31.7216797,114.978215 31.7216797,113.777037 C31.7216797,112.517265 31.9210592,111.588726 32.3198242,110.991393 C32.7185892,110.394059 33.3264933,110.095396 34.1435547,110.095396 C34.9410847,110.095396 35.5449198,110.407893 35.9550781,111.032896 C36.3652364,111.6579 36.5703125,112.572604 36.5703125,113.777037 Z M32.8837891,113.777037 C32.8837891,114.750349 32.9838857,115.445329 33.184082,115.861998 C33.3842783,116.278667 33.7040994,116.486998 34.1435547,116.486998 C34.58301,116.486998 34.9044586,116.275412 35.1079102,115.852232 C35.3113617,115.429053 35.4130859,114.737328 35.4130859,113.777037 C35.4130859,112.820001 35.3113617,112.127462 35.1079102,111.6994 C34.9044586,111.271338 34.58301,111.057311 34.1435547,111.057311 C33.7040994,111.057311 33.3842783,111.267269 33.184082,111.687193 C32.9838857,112.107117 32.8837891,112.803725 32.8837891,113.777037 Z" id="50"></path>
            <path d="M26.8339844,170 L29.65625,163.881836 L25.9453125,163.881836 L25.9453125,162.871094 L30.8818359,162.871094 L30.8818359,163.671875 L28.0742188,170 L26.8339844,170 Z M34.1533203,165.541992 C34.872725,165.541992 35.4423807,165.73242 35.8623047,166.113281 C36.2822287,166.494143 36.4921875,167.013343 36.4921875,167.670898 C36.4921875,168.432621 36.2537459,169.027504 35.7768555,169.455566 C35.2999651,169.883628 34.6220747,170.097656 33.7431641,170.097656 C32.945634,170.097656 32.3190127,169.969077 31.8632812,169.711914 L31.8632812,168.671875 C32.1269544,168.821615 32.4296858,168.937174 32.7714844,169.018555 C33.113283,169.099935 33.4306626,169.140625 33.7236328,169.140625 C34.2412135,169.140625 34.6350898,169.025066 34.9052734,168.793945 C35.1754571,168.562824 35.3105469,168.224286 35.3105469,167.77832 C35.3105469,166.925451 34.7669325,166.499023 33.6796875,166.499023 C33.5266919,166.499023 33.3378917,166.514486 33.1132812,166.54541 C32.8886708,166.576335 32.6917326,166.611328 32.5224609,166.650391 L32.0097656,166.347656 L32.2832031,162.861328 L35.9941406,162.861328 L35.9941406,163.881836 L33.2939453,163.881836 L33.1328125,165.649414 C33.2467454,165.629883 33.3859041,165.607096 33.550293,165.581055 C33.7146818,165.555013 33.9156889,165.541992 34.1533203,165.541992 Z" id="75"></path>
            <path d="M23.6845703,221 L22.5371094,221 L22.5371094,216.390625 C22.5371094,215.840492 22.5501301,215.404298 22.5761719,215.082031 C22.5013017,215.160157 22.409343,215.246419 22.300293,215.34082 C22.1912429,215.435222 21.8258495,215.734698 21.2041016,216.239258 L20.6279297,215.511719 L22.7275391,213.861328 L23.6845703,213.861328 L23.6845703,221 Z M30.8623047,217.430664 C30.8623047,218.670905 30.6629252,219.592119 30.2641602,220.194336 C29.8653951,220.796552 29.2558635,221.097656 28.4355469,221.097656 C27.6412721,221.097656 27.0390646,220.786787 26.6289062,220.165039 C26.2187479,219.543291 26.0136719,218.631842 26.0136719,217.430664 C26.0136719,216.170892 26.2130514,215.242353 26.6118164,214.64502 C27.0105814,214.047686 27.6184855,213.749023 28.4355469,213.749023 C29.2330769,213.749023 29.836912,214.06152 30.2470703,214.686523 C30.6572286,215.311527 30.8623047,216.226231 30.8623047,217.430664 Z M27.1757812,217.430664 C27.1757812,218.403976 27.2758779,219.098956 27.4760742,219.515625 C27.6762705,219.932294 27.9960916,220.140625 28.4355469,220.140625 C28.8750022,220.140625 29.1964508,219.929039 29.3999023,219.505859 C29.6033539,219.08268 29.7050781,218.390955 29.7050781,217.430664 C29.7050781,216.473628 29.6033539,215.781089 29.3999023,215.353027 C29.1964508,214.924965 28.8750022,214.710938 28.4355469,214.710938 C27.9960916,214.710938 27.6762705,214.920896 27.4760742,215.34082 C27.2758779,215.760744 27.1757812,216.457352 27.1757812,217.430664 Z M36.5703125,217.430664 C36.5703125,218.670905 36.370933,219.592119 35.972168,220.194336 C35.573403,220.796552 34.9638713,221.097656 34.1435547,221.097656 C33.3492799,221.097656 32.7470724,220.786787 32.3369141,220.165039 C31.9267558,219.543291 31.7216797,218.631842 31.7216797,217.430664 C31.7216797,216.170892 31.9210592,215.242353 32.3198242,214.64502 C32.7185892,214.047686 33.3264933,213.749023 34.1435547,213.749023 C34.9410847,213.749023 35.5449198,214.06152 35.9550781,214.686523 C36.3652364,215.311527 36.5703125,216.226231 36.5703125,217.430664 Z M32.8837891,217.430664 C32.8837891,218.403976 32.9838857,219.098956 33.184082,219.515625 C33.3842783,219.932294 33.7040994,220.140625 34.1435547,220.140625 C34.58301,220.140625 34.9044586,219.929039 35.1079102,219.505859 C35.3113617,219.08268 35.4130859,218.390955 35.4130859,217.430664 C35.4130859,216.473628 35.3113617,215.781089 35.1079102,215.353027 C34.9044586,214.924965 34.58301,214.710938 34.1435547,214.710938 C33.7040994,214.710938 33.3842783,214.920896 33.184082,215.34082 C32.9838857,215.760744 32.8837891,216.457352 32.8837891,217.430664 Z" id="100"></path>
          </g>
        </g>
        <polyline id="Path-3" stroke="#F5A623" stroke-width="2" points="48 193 103.303171 169.074875 125.928957 129.570103 174.185791 87.9066903 207.328234 73.0097783 223.971681 80.9217494 261.098827 41.8786893 265.816349 26.6315575 297.775008 7 344.280828 7 394.116042 12.9814902 469.797217 43.9608747 552.454266 73.0097783 566.853454 65.928014 583.36302 58.8462497 601 65.928014"></polyline>
        <g id="Group-115" transform="translate(101.000000, 5.000000)" fill="#FFFFFF" stroke="#F5A623" stroke-width="2">
          <circle id="Oval-3" cx="2.93641026" cy="163.171171" r="2.5"></circle>
          <circle id="Oval-3-Copy" cx="27.2748718" cy="122.288288" r="2.5"></circle>
          <circle id="Oval-3-Copy-2" cx="72.7066667" cy="83.4684685" r="2.5"></circle>
          <circle id="Oval-3-Copy-3" cx="106.780513" cy="68.1531532" r="2.5"></circle>
          <circle id="Oval-3-Copy-4" cx="123.006154" cy="75.8108108" r="2.5"></circle>
          <circle id="Oval-3-Copy-5" cx="165.815385" cy="20.7387387" r="2.5"></circle>
          <circle id="Oval-3-Copy-6" cx="160.325128" cy="36.0540541" r="2.5"></circle>
          <circle id="Oval-3-Copy-7" cx="197.644103" cy="2.82882883" r="2.5"></circle>
          <circle id="Oval-3-Copy-8" cx="244.698462" cy="2.82882883" r="2.5"></circle>
          <circle id="Oval-3-Copy-9" cx="296.620513" cy="9.42342342" r="2.5"></circle>
          <circle id="Oval-3-Copy-10" cx="453.009231" cy="67.1531532" r="2.5"></circle>
          <circle id="Oval-3-Copy-11" cx="483.837949" cy="54.3693694" r="2.5"></circle>
          <circle id="Oval-3-Copy-12" cx="501.06359" cy="62.027027" r="2.5"></circle>
        </g>
      </g>
    </g>
  </g>
</svg>
