<svg width="442" height="252" viewBox="0 0 442 252" xmlns="http://www.w3.org/2000/svg" xmlns:xlink="http://www.w3.org/1999/xlink"><defs><path d="M41.516 0H255.5c5.523 0 10 4.477 10 10v86c0 5.523-4.477 10-10 10H41.516a10 10 0 0 1-7.924-3.9C11.197 73.006 0 56.64 0 53c0-3.64 11.197-20.006 33.592-49.1A10 10 0 0 1 41.516 0z" id="a"/><path d="M41.516 0H255.5c5.523 0 10 4.477 10 10v86c0 5.523-4.477 10-10 10H41.516a10 10 0 0 1-7.924-3.9C11.197 73.006 0 56.64 0 53c0-3.64 11.197-20.006 33.592-49.1A10 10 0 0 1 41.516 0z" id="b"/></defs><g fill="none" fill-rule="evenodd"><g><use fill="#FFF" xlink:href="#a"/><path stroke="#F15A29" stroke-width="3" d="M41.516 1.5a8.5 8.5 0 0 0-6.736 3.315C12.892 33.252 1.5 49.902 1.5 53c0 3.098 11.392 19.748 33.28 48.185a8.5 8.5 0 0 0 6.736 3.315H255.5A8.5 8.5 0 0 0 264 96V10a8.5 8.5 0 0 0-8.5-8.5H41.516z"/></g><path d="M97.992 53.263c0 3.486-.871 6.196-2.615 8.13-1.743 1.933-4.211 2.9-7.404 2.9-3.233 0-5.716-.96-7.45-2.878-1.732-1.92-2.6-4.646-2.6-8.182 0-3.535.872-6.25 2.616-8.144 1.743-1.895 4.23-2.842 7.463-2.842 3.184 0 5.644.962 7.383 2.886 1.738 1.924 2.607 4.634 2.607 8.13zm-16.347 0c0 2.636.532 4.636 1.596 5.998 1.065 1.363 2.642 2.044 4.732 2.044 2.08 0 3.65-.674 4.71-2.022 1.059-1.347 1.588-3.354 1.588-6.02 0-2.627-.524-4.62-1.574-5.977-1.05-1.357-2.615-2.036-4.695-2.036-2.1 0-3.684.679-4.753 2.036-1.07 1.358-1.604 3.35-1.604 5.977zm35.126-4.204c0 2.236-.732 3.95-2.197 5.141-1.465 1.192-3.55 1.787-6.255 1.787h-2.226V64h-3.501V42.584h6.167c2.676 0 4.68.547 6.013 1.64 1.333 1.094 2 2.706 2 4.835zm-10.678 3.984h1.86c1.797 0 3.115-.313 3.955-.938.84-.625 1.26-1.601 1.26-2.93 0-1.23-.376-2.148-1.128-2.753-.752-.606-1.924-.908-3.516-.908h-2.431v7.529zM128.446 64h-3.5V45.587h-6.3v-3.003h16.1v3.003h-6.3V64zm36.387-10.737c0 3.486-.872 6.196-2.615 8.13-1.743 1.933-4.211 2.9-7.405 2.9-3.232 0-5.715-.96-7.448-2.878-1.734-1.92-2.6-4.646-2.6-8.182 0-3.535.871-6.25 2.614-8.144 1.744-1.895 4.231-2.842 7.464-2.842 3.183 0 5.644.962 7.383 2.886 1.738 1.924 2.607 4.634 2.607 8.13zm-16.348 0c0 2.636.533 4.636 1.597 5.998 1.064 1.363 2.642 2.044 4.731 2.044 2.08 0 3.65-.674 4.71-2.022 1.06-1.347 1.59-3.354 1.59-6.02 0-2.627-.526-4.62-1.575-5.977-1.05-1.357-2.615-2.036-4.695-2.036-2.1 0-3.684.679-4.754 2.036-1.069 1.358-1.604 3.35-1.604 5.977zm37.735-10.679v13.857c0 1.582-.34 2.967-1.018 4.153-.68 1.187-1.66 2.1-2.945 2.74-1.284.64-2.82.959-4.607.959-2.656 0-4.721-.703-6.196-2.11-1.475-1.406-2.212-3.34-2.212-5.8V42.584h3.516v13.55c0 1.767.41 3.071 1.23 3.91.82.84 2.08 1.26 3.78 1.26 3.3 0 4.95-1.733 4.95-5.2v-13.52h3.502zM199.096 64h-3.501V45.587h-6.3v-3.003h16.1v3.003h-6.3V64z" fill="#F15A29"/><g><g transform="matrix(-1 0 0 1 442 146)"><use fill="#FFF" xlink:href="#b"/><path stroke="#F15A29" stroke-width="3" d="M41.516 1.5a8.5 8.5 0 0 0-6.736 3.315C12.892 33.252 1.5 49.902 1.5 53c0 3.098 11.392 19.748 33.28 48.185a8.5 8.5 0 0 0 6.736 3.315H255.5A8.5 8.5 0 0 0 264 96V10a8.5 8.5 0 0 0-8.5-8.5H41.516z"/></g><path d="M274.15 199.263c0 3.486-.872 6.196-2.615 8.13-1.744 1.933-4.212 2.9-7.405 2.9-3.233 0-5.715-.96-7.449-2.878-1.733-1.92-2.6-4.646-2.6-8.182 0-3.535.872-6.25 2.615-8.144 1.743-1.895 4.23-2.842 7.463-2.842 3.184 0 5.645.962 7.383 2.886 1.738 1.924 2.607 4.634 2.607 8.13zm-16.348 0c0 2.636.532 4.636 1.596 5.998 1.065 1.363 2.642 2.044 4.732 2.044 2.08 0 3.65-.674 4.71-2.022 1.059-1.347 1.589-3.354 1.589-6.02 0-2.627-.525-4.62-1.575-5.977-1.05-1.357-2.615-2.036-4.695-2.036-2.1 0-3.684.679-4.753 2.036-1.07 1.358-1.604 3.35-1.604 5.977zm35.127-4.204c0 2.236-.733 3.95-2.198 5.141-1.464 1.192-3.55 1.787-6.254 1.787h-2.227V210h-3.501v-21.416h6.167c2.676 0 4.68.547 6.013 1.64 1.333 1.094 2 2.706 2 4.835zm-10.679 3.984h1.86c1.797 0 3.116-.313 3.955-.938.84-.625 1.26-1.601 1.26-2.93 0-1.23-.376-2.148-1.128-2.753-.752-.606-1.924-.908-3.515-.908h-2.432v7.529zM304.604 210h-3.501v-18.413h-6.3v-3.003h16.1v3.003h-6.3V210zm17.373 0v-21.416h3.5V210h-3.5zm26.997 0h-4.292l-10.533-17.065h-.117l.073.952a66.8 66.8 0 0 1 .206 4.98V210h-3.18v-21.416h4.249l10.503 16.978h.088a99.339 99.339 0 0 1-.117-2.454 84.783 84.783 0 0 1-.088-3.303v-11.221h3.208V210z" fill="#F15A29"/></g></g></svg>