<svg width="557" height="375" viewBox="0 0 557 375" xmlns="http://www.w3.org/2000/svg" xmlns:xlink="http://www.w3.org/1999/xlink"><defs><path id="a" d="M21.582 23.698V.328H.52v23.37h21.062z"/><path d="M31.907 5.415C31.165 2.685 25.649 0 16 0 6.35 0 .834 2.685.093 5.415A.62.62 0 0 0 0 5.727v23.546c0 .103.028.2.075.287C.83 32.675 7.593 35 16 35c8.388 0 15.14-2.316 15.92-5.42a.626.626 0 0 0 .08-.307V5.727a.62.62 0 0 0-.093-.312z" id="c"/></defs><g fill="none" fill-rule="evenodd"><path d="M180.481 182.27c2.503-2.383 5.35-4.131 8.23-5.2-.471-4.171-2.748-8.894-10.529-8.894-8.987 0-10.632 6.302-10.632 10.775 0 3.22 3.578 15.277 6.973 21.785-2.143-5.39.052-12.84 5.958-18.465" fill="#FF7133"/><path d="M184.68 195.724c3.427-10.7 3.389-13.96 3.292-14.724-2.363 1.086-4.676 2.703-6.737 4.826-3.514 3.622-5.608 8-6.13 12.099a13.473 13.473 0 0 0 2.005 8.893c.408.641 1.143 1.182 1.143 1.182s3.629-3.537 6.428-12.276" fill="#EF3D14"/><path d="M207.701 187.438c2.85 5.52.366 13.277-5.76 19.385a24.501 24.501 0 0 1-3.914 3.182c-.006.004-.006.014 0 .017 1.796 1.12 3.923 1.596 6.161 1.406 5.674-.483 9.915-5.059 9.256-12.773-.444-5.194-2.442-9.074-5.743-11.217" fill="#FFB600"/><path d="M205.721 184.613a10.048 10.048 0 0 0-1.843-2.515c-3.241-3.217-8.308-3.868-13.399-2.234.605 2.083.837 7.26-2.016 15.837-2.423 7.291-6.213 12.284-8.463 13.796 4.461 2.548 10.855 1.804 16.471-1.839a24.694 24.694 0 0 0 3.944-3.19c6.151-6.106 8.168-14.335 5.306-19.855" fill="#FF5527"/><path d="M242.673 192.775c0-.624-.254-1.118-.76-1.481-.508-.363-1.137-.695-1.887-.997a51.363 51.363 0 0 0-2.441-.907 10.486 10.486 0 0 1-2.442-1.209 6.768 6.768 0 0 1-1.886-1.904c-.507-.765-.76-1.763-.76-2.992 0-1.046.18-1.968.54-2.764.362-.797.868-1.45 1.521-1.965.653-.514 1.442-.901 2.369-1.163.925-.262 1.944-.393 3.055-.393 1.287 0 2.51.116 3.67.348 1.16.231 2.11.559 2.85.982l-1.374 3.747a7.062 7.062 0 0 0-.891-.439 8.072 8.072 0 0 0-1.243-.392c-.468-.11-.965-.201-1.491-.272a12.093 12.093 0 0 0-1.608-.106c-.975 0-1.73.177-2.266.529-.537.353-.805.842-.805 1.465 0 .625.254 1.124.76 1.497.507.372 1.136.715 1.886 1.027.75.313 1.565.625 2.442.937.877.312 1.69.715 2.442 1.208a6.755 6.755 0 0 1 1.886 1.86c.506.744.76 1.702.76 2.87 0 1.169-.196 2.176-.585 3.022a5.573 5.573 0 0 1-1.652 2.1c-.712.554-1.565.962-2.559 1.224-.994.262-2.086.393-3.274.393-.8 0-1.555-.045-2.266-.136-.712-.09-1.37-.202-1.974-.332a15.883 15.883 0 0 1-1.594-.423 7.72 7.72 0 0 1-1.096-.439l1.433-3.777c.214.12.511.252.891.393.38.14.804.277 1.272.408.468.13.97.237 1.506.317.536.08 1.077.12 1.623.12 1.287 0 2.266-.19 2.94-.574.671-.382 1.008-.976 1.008-1.782M257.485 185.483c-.943 0-1.67.214-2.18.64-.511.427-.905 1.086-1.18 1.98v6.073c.334.278.708.497 1.12.655.412.159.934.238 1.563.238 1.335 0 2.328-.422 2.976-1.265.648-.844.972-2.188.972-4.034 0-1.33-.25-2.376-.752-3.14-.5-.765-1.34-1.147-2.519-1.147zM250 182.447h2.947l.501 1.934h.353c.61-.793 1.316-1.388 2.122-1.786.806-.396 1.748-.595 2.83-.595 2.081 0 3.643.63 4.685 1.89 1.041 1.26 1.562 3.26 1.562 5.999 0 1.31-.167 2.496-.502 3.558-.333 1.062-.824 1.975-1.473 2.739a6.378 6.378 0 0 1-2.401 1.755c-.954.407-2.049.611-3.286.611-.669 0-1.248-.065-1.74-.193a9.745 9.745 0 0 1-1.472-.521V204H250v-21.553zM272.33 190.516c0 .673.07 1.307.212 1.899.14.592.355 1.108.646 1.547.29.44.666.791 1.128 1.057.46.265 1.022.398 1.684.398 2.446 0 3.67-1.634 3.67-4.901a9.34 9.34 0 0 0-.197-1.976c-.13-.602-.341-1.123-.631-1.562a3.018 3.018 0 0 0-1.143-1.026c-.471-.245-1.037-.368-1.699-.368-1.143 0-2.04.388-2.692 1.164-.651.777-.977 2.033-.977 3.768m-4.331 0c0-2.655.692-4.737 2.076-6.249 1.382-1.51 3.357-2.267 5.924-2.267 1.343 0 2.516.215 3.518.644 1.003.429 1.835 1.025 2.497 1.791a7.64 7.64 0 0 1 1.488 2.696c.33 1.031.497 2.16.497 3.385 0 1.307-.18 2.486-.542 3.537-.36 1.053-.882 1.945-1.564 2.68a6.68 6.68 0 0 1-2.51 1.685c-.993.388-2.121.582-3.384.582-1.364 0-2.546-.214-3.55-.643-1.002-.429-1.833-1.026-2.495-1.792a7.45 7.45 0 0 1-1.473-2.695c-.322-1.031-.482-2.15-.482-3.354M296.394 186.171a5.82 5.82 0 0 0-1.818-.298c-.89 0-1.622.209-2.197.626-.576.417-.954.944-1.136 1.579V198H287v-15.642h3.333l.455 2.174h.394c.404-.814.944-1.44 1.62-1.877.678-.436 1.45-.655 2.32-.655.545 0 1.171.109 1.878.328l-.606 3.843zM299 183.354h2.5v-2.215l4.375-1.139v3.354h4.406v3.6h-4.406v5.6c0 1.293.13 2.22.39 2.785.26.564.777.846 1.548.846a5.85 5.85 0 0 0 1.218-.108c.333-.071.688-.19 1.062-.354l.907 3.231c-.668.287-1.433.533-2.297.739-.865.205-1.703.307-2.515.307-1.625 0-2.813-.395-3.563-1.184-.75-.79-1.125-2.057-1.125-3.8v-8.062H299v-3.6z" fill="#001433"/><path d="M318.394 191.782l.669 2.535h.304l.578-2.535L322.65 183H327l-5.291 14.335a96.788 96.788 0 0 1-1.263 3.199c-.395.945-.826 1.75-1.292 2.414-.466.664-.989 1.172-1.566 1.524-.578.352-1.262.528-2.053.528a8.045 8.045 0 0 1-1.505-.136 4.406 4.406 0 0 1-1.232-.407l.882-3.26c.305.101.618.152.943.152.284 0 .558-.03.82-.09.264-.061.508-.177.731-.348.223-.17.43-.412.623-.724s.36-.73.502-1.253L310 183h5.14l3.254 8.782zM342.375 190.917h-8.75V200H329v-22h4.625v8.831h8.75V178H347v22h-4.625z" fill="#001433"/><g transform="translate(349 177)"><mask id="b" fill="#fff"><use xlink:href="#a"/></mask><path d="M10.466 18.633c-.883 0-1.647-.173-2.294-.52a4.275 4.275 0 0 1-1.586-1.47c-.41-.632-.718-1.387-.924-2.265-.205-.877-.308-1.846-.308-2.908 0-2.49.452-4.305 1.355-5.448.904-1.142 2.156-1.714 3.757-1.714.925 0 1.71.179 2.356.536.647.357 1.18.857 1.602 1.5.42.642.723 1.403.908 2.28.185.877.277 1.826.277 2.846 0 1.58-.172 2.881-.514 3.906l-2.59-2.109L10 16.307l2.436 1.984a5.461 5.461 0 0 1-1.97.342zm11.116 2.025L18.75 18.35c.398-.652.737-1.368 1.002-2.165.462-1.388.694-2.96.694-4.715 0-1.652-.212-3.162-.632-4.53-.421-1.367-1.047-2.54-1.879-3.52-.831-.979-1.868-1.739-3.11-2.28C13.582.6 12.129.329 10.466.329c-1.56 0-2.956.25-4.188.75a8.356 8.356 0 0 0-3.125 2.173C2.3 4.201 1.648 5.37 1.197 6.757.745 8.145.52 9.716.52 11.47c0 1.653.205 3.163.615 4.53.41 1.368 1.032 2.54 1.864 3.52.83.98 1.868 1.74 3.11 2.28 1.241.541 2.694.812 4.357.812 1.54 0 2.926-.25 4.158-.75.479-.194.921-.433 1.344-.695l3.108 2.53 2.506-3.04z" fill="#0D0C44" mask="url(#b)"/></g><g><path d="M39.552 69.688V71h-6.72V59.8h1.6v9.888h5.12zm2.096.272c-.821-.821-1.232-1.808-1.232-2.96s.41-2.136 1.232-2.952c.821-.816 1.808-1.224 2.96-1.224 1.163 0 2.155.41 2.976 1.232.821.821 1.232 1.803 1.232 2.944 0 1.152-.41 2.136-1.232 2.952-.821.816-1.813 1.224-2.976 1.224-1.152 0-2.139-.405-2.96-1.216zm.32-2.944c0 .768.259 1.424.776 1.968s1.139.816 1.864.816c.736 0 1.363-.272 1.88-.816.517-.544.776-1.2.776-1.968 0-.779-.259-1.443-.776-1.992-.517-.55-1.144-.824-1.88-.824-.725 0-1.347.275-1.864.824-.517.55-.776 1.213-.776 1.992zm9.216 2.96c-.736-.81-1.104-1.803-1.104-2.976s.368-2.163 1.104-2.968c.736-.805 1.69-1.208 2.864-1.208 1.248 0 2.213.485 2.896 1.456V63h1.552v8h-1.552v-1.28c-.683.97-1.648 1.456-2.896 1.456-1.173 0-2.128-.4-2.864-1.2zM56.976 67c-.01-.81-.27-1.48-.776-2.008-.507-.528-1.16-.792-1.96-.792s-1.435.27-1.904.808c-.47.539-.704 1.203-.704 1.992 0 .79.235 1.453.704 1.992.47.539 1.104.808 1.904.808.8 0 1.453-.264 1.96-.792.507-.528.765-1.197.776-2.008zm4.512 2.976c-.736-.81-1.104-1.803-1.104-2.976s.368-2.163 1.104-2.968c.736-.805 1.69-1.208 2.864-1.208 1.248 0 2.213.485 2.896 1.456v-4.848H68.8V71h-1.552v-1.28c-.683.97-1.648 1.456-2.896 1.456-1.173 0-2.128-.4-2.864-1.2zM67.28 67c-.01-.81-.27-1.48-.776-2.008-.507-.528-1.16-.792-1.96-.792s-1.435.27-1.904.808c-.47.539-.704 1.203-.704 1.992 0 .79.235 1.453.704 1.992.47.539 1.104.808 1.904.808.8 0 1.453-.264 1.96-.792.507-.528.765-1.197.776-2.008zm15.52-2.96c.736.8 1.104 1.787 1.104 2.96s-.368 2.163-1.104 2.968c-.736.805-1.69 1.208-2.864 1.208-1.248 0-2.213-.485-2.896-1.456V71h-1.552V59.432h1.552v4.848c.683-.97 1.648-1.456 2.896-1.456 1.173 0 2.128.405 2.864 1.216zM77.008 67c.01.81.27 1.48.776 2.008.507.528 1.16.792 1.96.792s1.435-.27 1.904-.808c.47-.539.704-1.203.704-1.992 0-.79-.235-1.453-.704-1.992-.47-.539-1.104-.808-1.904-.808-.8 0-1.453.264-1.96.792-.507.528-.765 1.197-.776 2.008zm9.296 2.976c-.736-.81-1.104-1.803-1.104-2.976s.368-2.163 1.104-2.968c.736-.805 1.69-1.208 2.864-1.208 1.248 0 2.213.485 2.896 1.456V63h1.552v8h-1.552v-1.28c-.683.97-1.648 1.456-2.896 1.456-1.173 0-2.128-.4-2.864-1.2zM92.096 67c-.01-.81-.27-1.48-.776-2.008-.507-.528-1.16-.792-1.96-.792s-1.435.27-1.904.808c-.47.539-.704 1.203-.704 1.992 0 .79.235 1.453.704 1.992.47.539 1.104.808 1.904.808.8 0 1.453-.264 1.96-.792.507-.528.765-1.197.776-2.008zm5.584-7.568V71h-1.552V59.432h1.552zm3.024 10.544c-.736-.81-1.104-1.803-1.104-2.976s.368-2.163 1.104-2.968c.736-.805 1.69-1.208 2.864-1.208 1.248 0 2.213.485 2.896 1.456V63h1.552v8h-1.552v-1.28c-.683.97-1.648 1.456-2.896 1.456-1.173 0-2.128-.4-2.864-1.2zM106.496 67c-.01-.81-.27-1.48-.776-2.008-.507-.528-1.16-.792-1.96-.792s-1.435.27-1.904.808c-.47.539-.704 1.203-.704 1.992 0 .79.235 1.453.704 1.992.47.539 1.104.808 1.904.808.8 0 1.453-.264 1.96-.792.507-.528.765-1.197.776-2.008zm9.744 4v-4.512c0-.79-.155-1.368-.464-1.736a1.462 1.462 0 0 0-1.168-.552c-.245 0-.499.045-.76.136a3.25 3.25 0 0 0-.824.448c-.288.208-.525.528-.712.96-.187.432-.28.947-.28 1.544V71h-1.552v-8h1.552v1.6c.17-.565.496-1.003.976-1.312.48-.31 1.05-.464 1.712-.464.917 0 1.659.304 2.224.912.565.608.848 1.525.848 2.752V71h-1.552zm3.312-3.904c0-1.227.397-2.245 1.192-3.056.795-.81 1.896-1.216 3.304-1.216 1.035 0 1.99.325 2.864.976l-.736 1.056c-.576-.437-1.264-.656-2.064-.656-.864 0-1.581.261-2.152.784-.57.523-.856 1.195-.856 2.016s.285 1.493.856 2.016c.57.523 1.288.784 2.152.784.8 0 1.488-.219 2.064-.656l.736 1.056c-.875.65-1.83.976-2.864.976-1.376 0-2.47-.387-3.28-1.16-.81-.773-1.216-1.747-1.216-2.92zm15.584 1.696l.864.896c-.885.992-2.053 1.488-3.504 1.488-1.355 0-2.445-.397-3.272-1.192-.827-.795-1.24-1.779-1.24-2.952s.41-2.168 1.232-2.984c.821-.816 1.845-1.224 3.072-1.224 1.141 0 2.107.37 2.896 1.112.79.741 1.184 1.81 1.184 3.208h-6.832c-.021.779.248 1.416.808 1.912s1.283.744 2.168.744c.97 0 1.845-.336 2.624-1.008zm-2.816-4.608c-1.312 0-2.192.587-2.64 1.76h5.088c-.352-1.173-1.168-1.76-2.448-1.76zM139.664 63v1.808c.128-.619.39-1.104.784-1.456a1.984 1.984 0 0 1 1.36-.528c.213 0 .459.059.736.176v1.52a1.694 1.694 0 0 0-.848-.208c-.192 0-.379.035-.56.104-.181.07-.395.213-.64.432s-.445.597-.6 1.136c-.155.539-.232 1.203-.232 1.992V71h-1.552v-8h1.552z" fill="#0D0C44"/><path d="M58.985 33.516l56.014-.016-.01-8.443a4 4 0 0 0-4-3.995H62.957a4 4 0 0 0-3.99 4.009l.019 8.445z" stroke="#F15A29" stroke-width="2"/><path d="M86 33V12.11" stroke="#F15A29" stroke-width="2" stroke-linecap="square"/><path fill="#F15A29" d="M59 39l-4-6h8z"/><path d="M59.052 48.228c1.628 0 2.948-1.395 2.948-3.114C62 43.394 60.68 42 59.052 42c-1.629 0-2.95 1.394-2.95 3.114s1.321 3.114 2.95 3.114z" stroke="#F15A29" stroke-width="2"/><path fill="#F15A29" d="M86 39l-4-6h8z"/><path d="M86.052 48.228c1.628 0 2.948-1.395 2.948-3.114C89 43.394 87.68 42 86.052 42c-1.629 0-2.95 1.394-2.95 3.114s1.321 3.114 2.95 3.114z" stroke="#F15A29" stroke-width="2"/><g><path fill="#F15A29" d="M115 39l-4-6h8z"/><path d="M115.052 48.228c1.628 0 2.948-1.395 2.948-3.114 0-1.72-1.32-3.114-2.948-3.114-1.629 0-2.95 1.394-2.95 3.114s1.321 3.114 2.95 3.114z" stroke="#F15A29" stroke-width="2"/></g><path d="M86 12c2.762 0 5-2.463 5-5.5C91 3.462 88.761 1 86 1c-2.76 0-5 2.463-5 5.5 0 3.038 2.24 5.5 5 5.5z" stroke="#F15A29" stroke-width="2"/></g><g><path d="M1.68 296.512c-1.088-1.12-1.632-2.49-1.632-4.112 0-1.621.547-2.99 1.64-4.104 1.093-1.115 2.563-1.672 4.408-1.672 1.397 0 2.63.4 3.696 1.2l-.624 1.2c-.384-.277-.853-.507-1.408-.688a5.328 5.328 0 0 0-1.664-.272c-1.355 0-2.43.416-3.224 1.248-.795.832-1.192 1.861-1.192 3.088s.397 2.256 1.192 3.088c.795.832 1.87 1.248 3.224 1.248.555 0 1.11-.09 1.664-.272.555-.181 1.024-.41 1.408-.688l.624 1.2c-1.067.8-2.299 1.2-3.696 1.2-1.845 0-3.317-.555-4.416-1.664zm10.304.464c-.736-.81-1.104-1.803-1.104-2.976s.368-2.163 1.104-2.968c.736-.805 1.69-1.208 2.864-1.208 1.248 0 2.213.485 2.896 1.456V290h1.552v8h-1.552v-1.28c-.683.97-1.648 1.456-2.896 1.456-1.173 0-2.128-.4-2.864-1.2zM17.776 294c-.01-.81-.27-1.48-.776-2.008-.507-.528-1.16-.792-1.96-.792s-1.435.27-1.904.808c-.47.539-.704 1.203-.704 1.992 0 .79.235 1.453.704 1.992.47.539 1.104.808 1.904.808.8 0 1.453-.264 1.96-.792.507-.528.765-1.197.776-2.008zm3.392.096c0-1.227.397-2.245 1.192-3.056.795-.81 1.896-1.216 3.304-1.216 1.035 0 1.99.325 2.864.976l-.736 1.056c-.576-.437-1.264-.656-2.064-.656-.864 0-1.581.261-2.152.784-.57.523-.856 1.195-.856 2.016s.285 1.493.856 2.016c.57.523 1.288.784 2.152.784.8 0 1.488-.219 2.064-.656l.736 1.056c-.875.65-1.83.976-2.864.976-1.376 0-2.47-.387-3.28-1.16-.81-.773-1.216-1.747-1.216-2.92zm14.8 3.904v-4.512c0-.79-.155-1.368-.464-1.736a1.462 1.462 0 0 0-1.168-.552c-.245 0-.499.045-.76.136a3.25 3.25 0 0 0-.824.448c-.288.208-.525.528-.712.96-.187.432-.28.947-.28 1.544V298h-1.552v-11.568h1.552v5.168c.17-.565.496-1.003.976-1.312.48-.31 1.05-.464 1.712-.464.917 0 1.659.304 2.224.912.565.608.848 1.525.848 2.752V298h-1.552zm3.936 0v-8h1.552v8h-1.552zm0-9.808a1.041 1.041 0 0 1-.304-.768c0-.31.104-.568.312-.776.208-.208.461-.312.76-.312s.555.104.768.312c.213.208.32.467.32.776 0 .299-.104.552-.312.76a1.053 1.053 0 0 1-.776.312c-.299 0-.555-.101-.768-.304zM49.728 298v-4.512c0-.79-.155-1.368-.464-1.736a1.462 1.462 0 0 0-1.168-.552c-.245 0-.499.045-.76.136a3.25 3.25 0 0 0-.824.448c-.288.208-.525.528-.712.96-.187.432-.28.947-.28 1.544V298h-1.552v-8h1.552v1.6c.17-.565.496-1.003.976-1.312.48-.31 1.05-.464 1.712-.464.917 0 1.659.304 2.224.912.565.608.848 1.525.848 2.752V298h-1.552zm11.728-8v7.936c0 1.259-.4 2.21-1.2 2.856-.8.645-1.792.968-2.976.968-1.333 0-2.475-.384-3.424-1.152l.624-1.216c.768.672 1.701 1.008 2.8 1.008.8 0 1.437-.227 1.912-.68.475-.453.712-1.096.712-1.928v-1.072c-.683.97-1.648 1.456-2.896 1.456-1.173 0-2.128-.403-2.864-1.208-.736-.805-1.104-1.795-1.104-2.968s.368-2.163 1.104-2.968c.736-.805 1.69-1.208 2.864-1.208 1.248 0 2.213.485 2.896 1.456V290h1.552zm-1.52 4c-.01-.81-.27-1.48-.776-2.008-.507-.528-1.16-.792-1.96-.792s-1.435.27-1.904.808c-.47.539-.704 1.203-.704 1.992 0 .79.235 1.453.704 1.992.47.539 1.104.808 1.904.808.8 0 1.453-.264 1.96-.792.507-.528.765-1.197.776-2.008z" fill="#0D0C44"/><path d="M52.945 235.427c-1.01-3.744-8.532-7.427-21.69-7.427-13.159 0-20.681 3.683-21.691 7.427a.855.855 0 0 0-.128.428v32.29a.82.82 0 0 0 .102.394C10.57 272.811 19.79 276 31.255 276c11.438 0 20.644-3.176 21.709-7.432a.862.862 0 0 0 .109-.423v-32.29c0-.16-.054-.3-.128-.428zm-1.687 22.233a2.147 2.147 0 0 1-.226.576 2.958 2.958 0 0 1-.392.563 4.73 4.73 0 0 1-.317.343c-.07.068-.149.137-.227.205a7.186 7.186 0 0 1-.46.372c-.07.054-.148.105-.223.157-.198.137-.404.272-.63.404-.06.036-.123.07-.185.105-.26.147-.531.293-.824.434l-.116.053c-.327.155-.67.306-1.035.453l-.031.012c-1.982.792-4.517 1.458-7.472 1.894a48.025 48.025 0 0 1-1.813.232l-.301.028c-.528.055-1.062.106-1.612.146-.251.018-.515.027-.77.043-.414.024-.824.051-1.248.066a60.235 60.235 0 0 1-4.244-.003c-.424-.014-.833-.042-1.247-.066-.256-.015-.52-.024-.77-.043-.55-.04-1.085-.09-1.613-.145l-.302-.028a49.987 49.987 0 0 1-1.768-.226l-.044-.006c-2.954-.437-5.49-1.103-7.472-1.894a18.544 18.544 0 0 1-1.066-.465c-.038-.019-.078-.036-.115-.054a13.884 13.884 0 0 1-.825-.433c-.061-.035-.126-.07-.185-.105a10.075 10.075 0 0 1-.63-.404c-.074-.053-.152-.104-.224-.157a7.186 7.186 0 0 1-.459-.372c-.077-.068-.156-.136-.227-.206a4.555 4.555 0 0 1-.507-.584 3.254 3.254 0 0 1-.327-.581 2.115 2.115 0 0 1-.101-.317c-.032-.139-.068-.28-.068-.42 0-.1.011-.198.027-.296a.87.87 0 0 0-.027-.388v-6.48c.024.024.055.045.08.068.19.168.384.334.602.495 3.288 2.486 9.862 4.419 19.39 4.419 9.489 0 16.047-1.917 19.348-4.389.264-.192.501-.39.724-.591l.001-.001v6.479a.87.87 0 0 0-.027.388c.017.098.027.197.027.295 0 .14-.036.282-.069.424zm.07-18.059v6.48a.87.87 0 0 0-.028.388c.017.097.027.196.027.295 0 .14-.036.282-.069.423a2.147 2.147 0 0 1-.226.576 2.959 2.959 0 0 1-.392.564 4.73 4.73 0 0 1-.317.342c-.07.069-.149.137-.227.206a7.186 7.186 0 0 1-.46.372c-.07.053-.148.104-.223.157-.198.136-.404.271-.63.404a14.417 14.417 0 0 1-1.01.538c-.037.019-.076.036-.115.053-.327.155-.67.307-1.035.453l-.031.013c-1.982.791-4.517 1.457-7.472 1.893l-.044.007c-.574.084-1.163.16-1.768.226-.099.01-.203.017-.302.027-.528.055-1.062.106-1.612.146-.251.019-.515.027-.77.043-.414.024-.824.051-1.248.066a60.234 60.234 0 0 1-4.244-.003c-.424-.014-.833-.042-1.247-.066-.256-.014-.52-.024-.77-.042-.55-.04-1.085-.091-1.613-.146l-.302-.028a49.987 49.987 0 0 1-1.812-.232c-2.954-.437-5.49-1.102-7.472-1.894l-.031-.012a18.544 18.544 0 0 1-1.035-.453c-.038-.019-.078-.036-.115-.053a13.884 13.884 0 0 1-.825-.434c-.061-.035-.126-.07-.185-.105a10.075 10.075 0 0 1-.63-.404c-.074-.052-.152-.104-.224-.157a7.186 7.186 0 0 1-.459-.372c-.077-.068-.156-.136-.227-.206a4.555 4.555 0 0 1-.507-.584 3.254 3.254 0 0 1-.327-.58 2.115 2.115 0 0 1-.101-.318c-.032-.138-.068-.28-.068-.42 0-.099.011-.198.027-.295a.87.87 0 0 0-.027-.389v-6.479c.105.095.224.189.338.283.062.052.12.105.187.157.262.206.545.41.851.607.064.041.135.082.202.123a14.932 14.932 0 0 0 1.133.638c.319.162.653.32 1.005.473.057.025.11.051.168.076.41.173.844.339 1.296.5.125.044.256.086.384.13.36.12.732.237 1.117.35.138.04.274.082.417.12.51.141 1.037.276 1.59.4.077.017.159.031.235.048a39.826 39.826 0 0 0 2.05.388c.494.081 1.004.155 1.527.224.134.017.263.037.399.054.649.078 1.321.145 2.011.203.17.014.348.024.52.037.553.04 1.118.073 1.695.1l.635.026a68.34 68.34 0 0 0 2.313.044c.794 0 1.56-.019 2.312-.044a62.293 62.293 0 0 0 2.33-.127c.172-.012.349-.022.52-.036.69-.057 1.362-.125 2.011-.203.137-.017.265-.037.4-.054a47.074 47.074 0 0 0 2.061-.315c.52-.092 1.027-.19 1.515-.297.076-.017.158-.032.234-.048.554-.124 1.08-.26 1.591-.4.143-.04.279-.08.418-.12.384-.113.756-.23 1.116-.35.128-.044.259-.086.384-.13.452-.161.887-.327 1.296-.5.058-.025.11-.051.168-.076a18.656 18.656 0 0 0 1.325-.642c.285-.153.557-.309.813-.47.067-.04.138-.08.202-.122.306-.198.59-.4.85-.607.066-.052.125-.105.189-.157.113-.094.233-.188.337-.283zm-20.073-9.856c11.83 0 20.072 3.45 20.072 6.546s-8.243 6.545-20.072 6.545c-11.83 0-20.073-3.449-20.073-6.545 0-3.097 8.243-6.546 20.073-6.546zm20.072 38.141a.89.89 0 0 0-.028.118c-.494 3.019-8.668 6.25-20.044 6.25-11.377 0-19.55-3.231-20.045-6.25a.95.95 0 0 0-.028-.114v-7.343c.024.022.055.044.08.067.19.167.384.334.602.495 3.288 2.486 9.862 4.418 19.39 4.418 9.489 0 16.047-1.916 19.348-4.388.264-.192.501-.39.724-.592h.001v7.34z" fill="#F15A29" fill-rule="nonzero"/></g><g><path d="M396.792 90.48c-1.13-1.13-1.696-2.49-1.696-4.08 0-1.59.568-2.95 1.704-4.08 1.136-1.13 2.504-1.696 4.104-1.696s2.968.565 4.104 1.696c1.136 1.13 1.704 2.49 1.704 4.08 0 1.59-.568 2.95-1.704 4.08-1.136 1.13-2.504 1.696-4.104 1.696s-2.97-.565-4.112-1.696zm1.152-7.168c-.81.832-1.216 1.861-1.216 3.088s.408 2.256 1.224 3.088c.816.832 1.8 1.248 2.952 1.248s2.136-.416 2.952-1.248c.816-.832 1.224-1.861 1.224-3.088s-.408-2.256-1.224-3.088c-.816-.832-1.8-1.248-2.952-1.248s-2.139.416-2.96 1.248zm12.672 1.904v4.368c0 .416.088.725.264.928a.877.877 0 0 0 .696.304c.267 0 .496-.077.688-.232.192-.155.288-.37.288-.648 0-.256-.043-.475-.128-.656h1.36a1.4 1.4 0 0 1 .096.36c.021.144.032.264.032.36l.016.144c0 .597-.208 1.085-.624 1.464-.416.379-.997.568-1.744.568-.715 0-1.31-.213-1.784-.64-.475-.427-.712-1.115-.712-2.064v-4.256h-1.312V84h1.312l.352-2.304h1.2V84h2.544v1.216h-2.544zM421.144 92v-4.512c0-.79-.155-1.368-.464-1.736a1.462 1.462 0 0 0-1.168-.552c-.245 0-.499.045-.76.136a3.25 3.25 0 0 0-.824.448c-.288.208-.525.528-.712.96-.187.432-.28.947-.28 1.544V92h-1.552V80.432h1.552V85.6c.17-.565.496-1.003.976-1.312.48-.31 1.05-.464 1.712-.464.917 0 1.659.304 2.224.912.565.608.848 1.525.848 2.752V92h-1.552zm10.432-2.208l.864.896c-.885.992-2.053 1.488-3.504 1.488-1.355 0-2.445-.397-3.272-1.192-.827-.795-1.24-1.779-1.24-2.952s.41-2.168 1.232-2.984c.821-.816 1.845-1.224 3.072-1.224 1.141 0 2.107.37 2.896 1.112.79.741 1.184 1.81 1.184 3.208h-6.832c-.021.779.248 1.416.808 1.912s1.283.744 2.168.744c.97 0 1.845-.336 2.624-1.008zm-2.816-4.608c-1.312 0-2.192.587-2.64 1.76h5.088c-.352-1.173-1.168-1.76-2.448-1.76zM436.104 84v1.808c.128-.619.39-1.104.784-1.456a1.984 1.984 0 0 1 1.36-.528c.213 0 .459.059.736.176v1.52a1.694 1.694 0 0 0-.848-.208c-.192 0-.379.035-.56.104-.181.07-.395.213-.64.432s-.445.597-.6 1.136c-.155.539-.232 1.203-.232 1.992V92h-1.552v-8h1.552zm13.504 1.728l-1.376.304c-.213-.587-.63-.88-1.248-.88-.352 0-.637.096-.856.288a.936.936 0 0 0-.328.736c0 .427.32.747.96.96l1.152.384c1.28.395 1.92 1.147 1.92 2.256 0 .736-.277 1.32-.832 1.752-.555.432-1.237.648-2.048.648-.736 0-1.39-.184-1.96-.552a2.592 2.592 0 0 1-1.128-1.544l1.376-.336c.096.32.307.584.632.792.325.208.69.312 1.096.312.395 0 .723-.104.984-.312.261-.208.392-.467.392-.776 0-.437-.336-.773-1.008-1.008l-1.072-.368c-1.312-.395-1.968-1.12-1.968-2.176 0-.693.245-1.264.736-1.712.49-.448 1.125-.672 1.904-.672 1.387 0 2.277.635 2.672 1.904zm8.624 4.064l.864.896c-.885.992-2.053 1.488-3.504 1.488-1.355 0-2.445-.397-3.272-1.192-.827-.795-1.24-1.779-1.24-2.952s.41-2.168 1.232-2.984c.821-.816 1.845-1.224 3.072-1.224 1.141 0 2.107.37 2.896 1.112.79.741 1.184 1.81 1.184 3.208h-6.832c-.021.779.248 1.416.808 1.912s1.283.744 2.168.744c.97 0 1.845-.336 2.624-1.008zm-2.816-4.608c-1.312 0-2.192.587-2.64 1.76h5.088c-.352-1.173-1.168-1.76-2.448-1.76zM462.76 84v1.808c.128-.619.39-1.104.784-1.456a1.984 1.984 0 0 1 1.36-.528c.213 0 .459.059.736.176v1.52a1.694 1.694 0 0 0-.848-.208c-.192 0-.379.035-.56.104-.181.07-.395.213-.64.432s-.445.597-.6 1.136c-.155.539-.232 1.203-.232 1.992V92h-1.552v-8h1.552zm11.376 0l-3.088 8h-1.76l-3.088-8h1.632l2.336 6.288L472.504 84h1.632zm1.648 8v-8h1.552v8h-1.552zm0-9.808a1.041 1.041 0 0 1-.304-.768c0-.31.104-.568.312-.776.208-.208.461-.312.76-.312s.555.104.768.312c.213.208.32.467.32.776 0 .299-.104.552-.312.76a1.053 1.053 0 0 1-.776.312c-.299 0-.555-.101-.768-.304zm3.472 5.904c0-1.227.397-2.245 1.192-3.056.795-.81 1.896-1.216 3.304-1.216 1.035 0 1.99.325 2.864.976l-.736 1.056c-.576-.437-1.264-.656-2.064-.656-.864 0-1.581.261-2.152.784-.57.523-.856 1.195-.856 2.016s.285 1.493.856 2.016c.57.523 1.288.784 2.152.784.8 0 1.488-.219 2.064-.656l.736 1.056c-.875.65-1.83.976-2.864.976-1.376 0-2.47-.387-3.28-1.16-.81-.773-1.216-1.747-1.216-2.92zm15.584 1.696l.864.896c-.885.992-2.053 1.488-3.504 1.488-1.355 0-2.445-.397-3.272-1.192-.827-.795-1.24-1.779-1.24-2.952s.41-2.168 1.232-2.984c.821-.816 1.845-1.224 3.072-1.224 1.141 0 2.107.37 2.896 1.112.79.741 1.184 1.81 1.184 3.208h-6.832c-.021.779.248 1.416.808 1.912s1.283.744 2.168.744c.97 0 1.845-.336 2.624-1.008zm-2.816-4.608c-1.312 0-2.192.587-2.64 1.76h5.088c-.352-1.173-1.168-1.76-2.448-1.76zm10.768.544l-1.376.304c-.213-.587-.63-.88-1.248-.88-.352 0-.637.096-.856.288a.936.936 0 0 0-.328.736c0 .427.32.747.96.96l1.152.384c1.28.395 1.92 1.147 1.92 2.256 0 .736-.277 1.32-.832 1.752-.555.432-1.237.648-2.048.648-.736 0-1.39-.184-1.96-.552a2.592 2.592 0 0 1-1.128-1.544l1.376-.336c.096.32.307.584.632.792.325.208.69.312 1.096.312.395 0 .723-.104.984-.312.261-.208.392-.467.392-.776 0-.437-.336-.773-1.008-1.008l-1.072-.368c-1.312-.395-1.968-1.12-1.968-2.176 0-.693.245-1.264.736-1.712.49-.448 1.125-.672 1.904-.672 1.387 0 2.277.635 2.672 1.904z" fill="#0D0C44"/><g fill="#F15A29" fill-rule="nonzero"><path d="M470.529 40.667h-4.49a1.676 1.676 0 0 1-1.594-1.064 1.677 1.677 0 0 1 .374-1.88l3.175-3.174a2.456 2.456 0 0 0 .723-1.747c0-.66-.257-1.281-.723-1.749l-4.047-4.047c-.934-.933-2.561-.935-3.496 0l-3.175 3.174c-.51.51-1.214.652-1.879.375a1.676 1.676 0 0 1-1.064-1.593v-4.49a2.474 2.474 0 0 0-2.47-2.472h-5.725a2.474 2.474 0 0 0-2.471 2.471v4.49c0 .723-.398 1.317-1.064 1.594a1.675 1.675 0 0 1-1.88-.375l-3.174-3.174c-.935-.935-2.562-.933-3.496 0l-4.047 4.047a2.457 2.457 0 0 0-.723 1.749c0 .66.257 1.28.723 1.747l3.175 3.175c.51.51.65 1.212.374 1.879a1.675 1.675 0 0 1-1.593 1.064h-4.49a2.474 2.474 0 0 0-2.472 2.47v5.724a2.474 2.474 0 0 0 2.471 2.472h4.49c.723 0 1.317.398 1.594 1.064a1.677 1.677 0 0 1-.374 1.88l-3.175 3.174a2.456 2.456 0 0 0-.723 1.747c0 .66.257 1.281.723 1.749l4.047 4.047c.935.934 2.561.936 3.496 0l3.175-3.175c.51-.51 1.211-.65 1.879-.374a1.676 1.676 0 0 1 1.064 1.593v4.49a2.474 2.474 0 0 0 2.47 2.472h5.724a2.474 2.474 0 0 0 2.471-2.471v-4.49c0-.723.398-1.317 1.064-1.594a1.675 1.675 0 0 1 1.88.374l3.174 3.175c.935.935 2.562.933 3.496 0l4.047-4.047a2.457 2.457 0 0 0 .723-1.749c0-.66-.256-1.28-.723-1.747l-3.175-3.175a1.679 1.679 0 0 1-.374-1.879 1.676 1.676 0 0 1 1.594-1.064h4.49a2.474 2.474 0 0 0 2.472-2.47v-5.725a2.474 2.474 0 0 0-2.471-2.471zm.693 8.195a.694.694 0 0 1-.693.694h-4.49a3.448 3.448 0 0 0-3.236 2.161 3.446 3.446 0 0 0 .759 3.817l3.175 3.174a.694.694 0 0 1 0 .982l-4.047 4.047a.694.694 0 0 1-.982 0l-3.174-3.175a3.45 3.45 0 0 0-3.817-.76 3.448 3.448 0 0 0-2.161 3.236v4.49a.694.694 0 0 1-.694.694h-5.724a.694.694 0 0 1-.694-.693v-4.49a3.448 3.448 0 0 0-2.161-3.236 3.453 3.453 0 0 0-3.817.758l-3.174 3.175a.694.694 0 0 1-.982 0l-4.047-4.047a.694.694 0 0 1 0-.981l3.175-3.175a3.448 3.448 0 0 0 .76-3.817 3.448 3.448 0 0 0-3.236-2.16h-4.49a.694.694 0 0 1-.694-.694v-5.724c0-.382.31-.694.693-.694h4.49a3.448 3.448 0 0 0 3.236-2.161 3.446 3.446 0 0 0-.759-3.817l-3.175-3.174a.694.694 0 0 1 0-.982l4.047-4.047a.694.694 0 0 1 .982 0l3.174 3.174a3.448 3.448 0 0 0 3.817.76 3.446 3.446 0 0 0 2.161-3.235v-4.49c0-.383.312-.694.694-.694h5.723c.383 0 .695.31.695.693v4.49c0 1.444.828 2.684 2.161 3.236a3.447 3.447 0 0 0 3.817-.759l3.174-3.174a.694.694 0 0 1 .982 0l4.047 4.047a.694.694 0 0 1 0 .981l-3.175 3.175a3.448 3.448 0 0 0-.76 3.817 3.448 3.448 0 0 0 3.236 2.161h4.49c.383 0 .694.31.694.693v5.724z"/><path d="M449 38c-4.412 0-8 3.588-8 8s3.588 8 8 8 8-3.588 8-8-3.588-8-8-8zm0 14.222A6.23 6.23 0 0 1 442.778 46 6.23 6.23 0 0 1 449 39.778 6.23 6.23 0 0 1 455.222 46 6.23 6.23 0 0 1 449 52.222z"/></g></g><g><path d="M290.54 372.456c.757-.821 1.136-1.84 1.136-3.056s-.376-2.235-1.128-3.056c-.752-.821-1.752-1.232-3-1.232h-1.968v8.576h1.968c1.248 0 2.245-.41 2.992-1.232zm1.2-7.04c1.045 1.067 1.568 2.395 1.568 3.984 0 1.59-.523 2.92-1.568 3.992S289.297 375 287.548 375h-3.568v-11.2h3.568c1.75 0 3.147.539 4.192 1.616zm11.568 1.264c0 .619-.181 1.16-.544 1.624-.363.464-.896.787-1.6.968.864.085 1.528.384 1.992.896.464.512.696 1.13.696 1.856 0 .896-.344 1.616-1.032 2.16-.688.544-1.587.816-2.696.816h-4.496v-11.2h3.984c1.088 0 1.976.259 2.664.776.688.517 1.032 1.219 1.032 2.104zm-4 3.312h-2.08v3.696h2.896c.608 0 1.107-.157 1.496-.472.39-.315.584-.728.584-1.24 0-.565-.243-1.037-.728-1.416s-1.208-.568-2.168-.568zm-2.08-1.248h1.744c.907 0 1.581-.19 2.024-.568.443-.379.664-.84.664-1.384 0-.523-.197-.933-.592-1.232-.395-.299-.88-.448-1.456-.448h-2.384v3.632z" fill="#0D0C44"/><g fill="#F15A29" fill-rule="nonzero"><path d="M277.4 310.2a3.604 3.604 0 0 0-3.6 3.6c0 1.985 1.615 3.6 3.6 3.6s3.6-1.615 3.6-3.6-1.615-3.6-3.6-3.6zm0 5.6c-1.102 0-2-.897-2-2s.898-2 2-2c1.102 0 2 .897 2 2s-.898 2-2 2z"/><path d="M317 318.514v-9.428a3.69 3.69 0 0 0-3.686-3.686h-40.628a3.69 3.69 0 0 0-3.686 3.686v9.427c0 1.175.562 2.211 1.422 2.886a3.669 3.669 0 0 0-1.422 2.887v9.427c0 1.175.562 2.211 1.422 2.886a3.669 3.669 0 0 0-1.422 2.887v9.427a3.69 3.69 0 0 0 3.686 3.687h40.627a3.69 3.69 0 0 0 3.686-3.686v-9.428a3.665 3.665 0 0 0-1.421-2.886 3.664 3.664 0 0 0 1.422-2.886v-9.428a3.665 3.665 0 0 0-1.422-2.886 3.666 3.666 0 0 0 1.422-2.886zm-1.6 20.972v9.427c0 1.15-.936 2.086-2.086 2.086h-40.628a2.088 2.088 0 0 1-2.086-2.085v-9.428c0-1.15.936-2.086 2.086-2.086h40.627c1.151 0 2.087.936 2.087 2.086zm0-15.2v9.427c0 1.15-.936 2.086-2.086 2.086h-40.628a2.088 2.088 0 0 1-2.086-2.085v-9.428c0-1.15.936-2.086 2.086-2.086h40.627c1.151 0 2.087.936 2.087 2.086zm-42.714-3.686a2.089 2.089 0 0 1-2.086-2.086v-9.428c0-1.15.936-2.086 2.086-2.086h40.627c1.151 0 2.087.936 2.087 2.086v9.427c0 1.15-.936 2.086-2.086 2.086h-40.628v.001z"/><path d="M277.4 332.6c1.985 0 3.6-1.615 3.6-3.6s-1.615-3.6-3.6-3.6a3.604 3.604 0 0 0-3.6 3.6c0 1.985 1.615 3.6 3.6 3.6zm0-5.6c1.102 0 2 .897 2 2s-.898 2-2 2c-1.102 0-2-.897-2-2s.898-2 2-2zM277.4 347.8c1.985 0 3.6-1.615 3.6-3.6s-1.615-3.6-3.6-3.6a3.604 3.604 0 0 0-3.6 3.6c0 1.985 1.615 3.6 3.6 3.6zm0-5.6c1.102 0 2 .897 2 2s-.898 2-2 2c-1.102 0-2-.897-2-2s.898-2 2-2z"/></g></g><g><path d="M464.864 271.168l2.528 8.144 2.672-8.512h1.6l-3.488 11.2H466.8l-2.592-8.416-2.592 8.416h-1.376l-3.488-11.2h1.6l2.672 8.512 2.528-8.144h1.312zm15.072 8.624l.864.896c-.885.992-2.053 1.488-3.504 1.488-1.355 0-2.445-.397-3.272-1.192-.827-.795-1.24-1.779-1.24-2.952s.41-2.168 1.232-2.984c.821-.816 1.845-1.224 3.072-1.224 1.141 0 2.107.37 2.896 1.112.79.741 1.184 1.81 1.184 3.208h-6.832c-.021.779.248 1.416.808 1.912s1.283.744 2.168.744c.97 0 1.845-.336 2.624-1.008zm-2.816-4.608c-1.312 0-2.192.587-2.64 1.76h5.088c-.352-1.173-1.168-1.76-2.448-1.76zm13.104-.144c.736.8 1.104 1.787 1.104 2.96s-.368 2.163-1.104 2.968c-.736.805-1.69 1.208-2.864 1.208-1.248 0-2.213-.485-2.896-1.456V282h-1.552v-11.568h1.552v4.848c.683-.97 1.648-1.456 2.896-1.456 1.173 0 2.128.405 2.864 1.216zm-5.792 2.96c.01.81.27 1.48.776 2.008.507.528 1.16.792 1.96.792s1.435-.27 1.904-.808c.47-.539.704-1.203.704-1.992 0-.79-.235-1.453-.704-1.992-.47-.539-1.104-.808-1.904-.808-.8 0-1.453.264-1.96.792-.507.528-.765 1.197-.776 2.008zm17.984-2.272l-1.376.304c-.213-.587-.63-.88-1.248-.88-.352 0-.637.096-.856.288a.936.936 0 0 0-.328.736c0 .427.32.747.96.96l1.152.384c1.28.395 1.92 1.147 1.92 2.256 0 .736-.277 1.32-.832 1.752-.555.432-1.237.648-2.048.648-.736 0-1.39-.184-1.96-.552a2.592 2.592 0 0 1-1.128-1.544l1.376-.336c.096.32.307.584.632.792.325.208.69.312 1.096.312.395 0 .723-.104.984-.312.261-.208.392-.467.392-.776 0-.437-.336-.773-1.008-1.008l-1.072-.368c-1.312-.395-1.968-1.12-1.968-2.176 0-.693.245-1.264.736-1.712.49-.448 1.125-.672 1.904-.672 1.387 0 2.277.635 2.672 1.904zm8.624 4.064l.864.896c-.885.992-2.053 1.488-3.504 1.488-1.355 0-2.445-.397-3.272-1.192-.827-.795-1.24-1.779-1.24-2.952s.41-2.168 1.232-2.984c.821-.816 1.845-1.224 3.072-1.224 1.141 0 2.107.37 2.896 1.112.79.741 1.184 1.81 1.184 3.208h-6.832c-.021.779.248 1.416.808 1.912s1.283.744 2.168.744c.97 0 1.845-.336 2.624-1.008zm-2.816-4.608c-1.312 0-2.192.587-2.64 1.76h5.088c-.352-1.173-1.168-1.76-2.448-1.76zm7.344-1.184v1.808c.128-.619.39-1.104.784-1.456a1.984 1.984 0 0 1 1.36-.528c.213 0 .459.059.736.176v1.52a1.694 1.694 0 0 0-.848-.208c-.192 0-.379.035-.56.104-.181.07-.395.213-.64.432s-.445.597-.6 1.136c-.155.539-.232 1.203-.232 1.992V282h-1.552v-8h1.552zm11.376 0l-3.088 8h-1.76l-3.088-8h1.632l2.336 6.288 2.336-6.288h1.632zm8.144 5.792l.864.896c-.885.992-2.053 1.488-3.504 1.488-1.355 0-2.445-.397-3.272-1.192-.827-.795-1.24-1.779-1.24-2.952s.41-2.168 1.232-2.984c.821-.816 1.845-1.224 3.072-1.224 1.141 0 2.107.37 2.896 1.112.79.741 1.184 1.81 1.184 3.208h-6.832c-.021.779.248 1.416.808 1.912s1.283.744 2.168.744c.97 0 1.845-.336 2.624-1.008zm-2.816-4.608c-1.312 0-2.192.587-2.64 1.76h5.088c-.352-1.173-1.168-1.76-2.448-1.76zm7.344-1.184v1.808c.128-.619.39-1.104.784-1.456a1.984 1.984 0 0 1 1.36-.528c.213 0 .459.059.736.176v1.52a1.694 1.694 0 0 0-.848-.208c-.192 0-.379.035-.56.104-.181.07-.395.213-.64.432s-.445.597-.6 1.136c-.155.539-.232 1.203-.232 1.992V282h-1.552v-8h1.552zm9.28 1.728l-1.376.304c-.213-.587-.63-.88-1.248-.88-.352 0-.637.096-.856.288a.936.936 0 0 0-.328.736c0 .427.32.747.96.96l1.152.384c1.28.395 1.92 1.147 1.92 2.256 0 .736-.277 1.32-.832 1.752-.555.432-1.237.648-2.048.648-.736 0-1.39-.184-1.96-.552a2.592 2.592 0 0 1-1.128-1.544l1.376-.336c.096.32.307.584.632.792.325.208.69.312 1.096.312.395 0 .723-.104.984-.312.261-.208.392-.467.392-.776 0-.437-.336-.773-1.008-1.008l-1.072-.368c-1.312-.395-1.968-1.12-1.968-2.176 0-.693.245-1.264.736-1.712.49-.448 1.125-.672 1.904-.672 1.387 0 2.277.635 2.672 1.904zm-95.136 10.704c-1.59 2.315-2.384 4.661-2.384 7.04 0 2.336.795 4.677 2.384 7.024l-.992.592c-.277-.299-.56-.65-.848-1.056a14.088 14.088 0 0 1-.944-1.584c-.341-.65-.619-1.413-.832-2.288a11.438 11.438 0 0 1-.32-2.72c0-.928.107-1.827.32-2.696.213-.87.493-1.63.84-2.28.347-.65.661-1.179.944-1.584.283-.405.563-.757.84-1.056l.992.608zm2.112 10.544c-.736-.81-1.104-1.803-1.104-2.976s.368-2.163 1.104-2.968c.736-.805 1.69-1.208 2.864-1.208 1.248 0 2.213.485 2.896 1.456V290h1.552v8h-1.552v-1.28c-.683.97-1.648 1.456-2.896 1.456-1.173 0-2.128-.4-2.864-1.2zm5.792-2.976c-.01-.81-.27-1.48-.776-2.008-.507-.528-1.16-.792-1.96-.792s-1.435.27-1.904.808c-.47.539-.704 1.203-.704 1.992 0 .79.235 1.453.704 1.992.47.539 1.104.808 1.904.808.8 0 1.453-.264 1.96-.792.507-.528.765-1.197.776-2.008zm5.408-4v4.512c0 .79.155 1.368.464 1.736.31.368.699.552 1.168.552.245 0 .499-.045.76-.136.261-.09.536-.24.824-.448.288-.208.525-.528.712-.96.187-.432.28-.947.28-1.544V290h1.552v8h-1.552v-1.6a2.298 2.298 0 0 1-.976 1.312c-.48.31-1.05.464-1.712.464-.917 0-1.659-.304-2.224-.912-.565-.608-.848-1.525-.848-2.752V290h1.552zm10.16 1.216v4.368c0 .416.088.725.264.928a.877.877 0 0 0 .696.304c.267 0 .496-.077.688-.232.192-.155.288-.37.288-.648 0-.256-.043-.475-.128-.656h1.36a1.4 1.4 0 0 1 .096.36c.021.144.032.264.032.36l.016.144c0 .597-.208 1.085-.624 1.464-.416.379-.997.568-1.744.568-.715 0-1.31-.213-1.784-.64-.475-.427-.712-1.115-.712-2.064v-4.256h-1.312V290h1.312l.352-2.304h1.2V290h2.544v1.216h-2.544zm5.392 5.744c-.821-.821-1.232-1.808-1.232-2.96s.41-2.136 1.232-2.952c.821-.816 1.808-1.224 2.96-1.224 1.163 0 2.155.41 2.976 1.232.821.821 1.232 1.803 1.232 2.944 0 1.152-.41 2.136-1.232 2.952-.821.816-1.813 1.224-2.976 1.224-1.152 0-2.139-.405-2.96-1.216zm.32-2.944c0 .768.259 1.424.776 1.968s1.139.816 1.864.816c.736 0 1.363-.272 1.88-.816.517-.544.776-1.2.776-1.968 0-.779-.259-1.443-.776-1.992-.517-.55-1.144-.824-1.88-.824-.725 0-1.347.275-1.864.824-.517.55-.776 1.213-.776 1.992zm8.544-.192V292.4h5.344v1.424h-5.344zm12.624-2.096l-1.376.304c-.213-.587-.63-.88-1.248-.88-.352 0-.637.096-.856.288a.936.936 0 0 0-.328.736c0 .427.32.747.96.96l1.152.384c1.28.395 1.92 1.147 1.92 2.256 0 .736-.277 1.32-.832 1.752-.555.432-1.237.648-2.048.648-.736 0-1.39-.184-1.96-.552a2.592 2.592 0 0 1-1.128-1.544l1.376-.336c.096.32.307.584.632.792.325.208.69.312 1.096.312.395 0 .723-.104.984-.312.261-.208.392-.467.392-.776 0-.437-.336-.773-1.008-1.008l-1.072-.368c-1.312-.395-1.968-1.12-1.968-2.176 0-.693.245-1.264.736-1.712.49-.448 1.125-.672 1.904-.672 1.387 0 2.277.635 2.672 1.904zm1.488 2.368c0-1.227.397-2.245 1.192-3.056.795-.81 1.896-1.216 3.304-1.216 1.035 0 1.99.325 2.864.976l-.736 1.056c-.576-.437-1.264-.656-2.064-.656-.864 0-1.581.261-2.152.784-.57.523-.856 1.195-.856 2.016s.285 1.493.856 2.016c.57.523 1.288.784 2.152.784.8 0 1.488-.219 2.064-.656l.736 1.056c-.875.65-1.83.976-2.864.976-1.376 0-2.47-.387-3.28-1.16-.81-.773-1.216-1.747-1.216-2.92zm9.552 2.88c-.736-.81-1.104-1.803-1.104-2.976s.368-2.163 1.104-2.968c.736-.805 1.69-1.208 2.864-1.208 1.248 0 2.213.485 2.896 1.456V290h1.552v8h-1.552v-1.28c-.683.97-1.648 1.456-2.896 1.456-1.173 0-2.128-.4-2.864-1.2zm5.792-2.976c-.01-.81-.27-1.48-.776-2.008-.507-.528-1.16-.792-1.96-.792s-1.435.27-1.904.808c-.47.539-.704 1.203-.704 1.992 0 .79.235 1.453.704 1.992.47.539 1.104.808 1.904.808.8 0 1.453-.264 1.96-.792.507-.528.765-1.197.776-2.008zm5.584-7.568V298h-1.552v-11.568h1.552zm2.56 11.568v-8h1.552v8h-1.552zm0-9.808a1.041 1.041 0 0 1-.304-.768c0-.31.104-.568.312-.776.208-.208.461-.312.76-.312s.555.104.768.312c.213.208.32.467.32.776 0 .299-.104.552-.312.76a1.053 1.053 0 0 1-.776.312c-.299 0-.555-.101-.768-.304zm9.824 9.808v-4.512c0-.79-.155-1.368-.464-1.736a1.462 1.462 0 0 0-1.168-.552c-.245 0-.499.045-.76.136a3.25 3.25 0 0 0-.824.448c-.288.208-.525.528-.712.96-.187.432-.28.947-.28 1.544V298h-1.552v-8h1.552v1.6c.17-.565.496-1.003.976-1.312.48-.31 1.05-.464 1.712-.464.917 0 1.659.304 2.224.912.565.608.848 1.525.848 2.752V298h-1.552zm11.728-8v7.936c0 1.259-.4 2.21-1.2 2.856-.8.645-1.792.968-2.976.968-1.333 0-2.475-.384-3.424-1.152l.624-1.216c.768.672 1.701 1.008 2.8 1.008.8 0 1.437-.227 1.912-.68.475-.453.712-1.096.712-1.928v-1.072c-.683.97-1.648 1.456-2.896 1.456-1.173 0-2.128-.403-2.864-1.208-.736-.805-1.104-1.795-1.104-2.968s.368-2.163 1.104-2.968c.736-.805 1.69-1.208 2.864-1.208 1.248 0 2.213.485 2.896 1.456V290h1.552zm-1.52 4c-.01-.81-.27-1.48-.776-2.008-.507-.528-1.16-.792-1.96-.792s-1.435.27-1.904.808c-.47.539-.704 1.203-.704 1.992 0 .79.235 1.453.704 1.992.47.539 1.104.808 1.904.808.8 0 1.453-.264 1.96-.792.507-.528.765-1.197.776-2.008zm3.12-7.568l.992-.608c.277.299.557.65.84 1.056.283.405.597.933.944 1.584.347.65.627 1.41.84 2.28.213.87.32 1.768.32 2.696 0 .939-.107 1.845-.32 2.72-.213.875-.49 1.637-.832 2.288-.341.65-.656 1.179-.944 1.584-.288.405-.57.757-.848 1.056l-.992-.592c1.59-2.347 2.384-4.688 2.384-7.024 0-2.379-.795-4.725-2.384-7.04z" fill="#0D0C44"/><path d="M512.945 219.427c-1.01-3.744-8.532-7.427-21.69-7.427-13.159 0-20.681 3.683-21.691 7.427a.855.855 0 0 0-.128.428v32.29a.82.82 0 0 0 .102.394c1.031 4.272 10.252 7.461 21.717 7.461 11.438 0 20.644-3.176 21.709-7.432a.862.862 0 0 0 .109-.423v-32.29c0-.16-.054-.3-.128-.428z" fill="#FFF"/><path d="M512.945 219.427c-1.01-3.744-8.532-7.427-21.69-7.427-13.159 0-20.681 3.683-21.691 7.427a.855.855 0 0 0-.128.428v32.29a.82.82 0 0 0 .102.394c1.031 4.272 10.252 7.461 21.717 7.461 11.438 0 20.644-3.176 21.709-7.432a.862.862 0 0 0 .109-.423v-32.29c0-.16-.054-.3-.128-.428zm-1.687 22.233a2.147 2.147 0 0 1-.226.576 2.958 2.958 0 0 1-.392.563 4.73 4.73 0 0 1-.317.343c-.07.068-.149.137-.227.205a7.186 7.186 0 0 1-.46.372c-.07.054-.148.105-.223.157-.198.137-.404.272-.63.404-.06.036-.123.07-.185.105-.26.147-.531.293-.824.434l-.116.053c-.327.155-.67.306-1.035.453l-.031.012c-1.982.792-4.517 1.458-7.472 1.894a48.025 48.025 0 0 1-1.813.232l-.301.028c-.528.055-1.062.106-1.612.146-.251.018-.515.027-.77.043-.414.024-.824.051-1.248.066a60.235 60.235 0 0 1-4.244-.003c-.424-.014-.833-.042-1.247-.066-.256-.015-.52-.024-.77-.043-.55-.04-1.085-.09-1.613-.145l-.302-.028a49.987 49.987 0 0 1-1.768-.226l-.044-.006c-2.954-.437-5.49-1.103-7.472-1.894a18.544 18.544 0 0 1-1.066-.465c-.038-.019-.078-.036-.115-.054a13.884 13.884 0 0 1-.825-.433c-.061-.035-.126-.07-.185-.105a10.075 10.075 0 0 1-.63-.404c-.074-.053-.152-.104-.224-.157a7.186 7.186 0 0 1-.459-.372c-.077-.068-.156-.136-.227-.206a4.555 4.555 0 0 1-.507-.584 3.254 3.254 0 0 1-.327-.581 2.115 2.115 0 0 1-.101-.317c-.032-.139-.068-.28-.068-.42 0-.1.011-.198.027-.296a.87.87 0 0 0-.027-.388v-6.48c.024.024.055.045.08.068.19.168.384.334.602.495 3.288 2.486 9.862 4.419 19.39 4.419 9.489 0 16.047-1.917 19.348-4.389.264-.192.501-.39.724-.591l.001-.001v6.479a.87.87 0 0 0-.027.388c.017.098.027.197.027.295 0 .14-.036.282-.069.424zm.07-18.059v6.48a.87.87 0 0 0-.028.388c.017.097.027.196.027.295 0 .14-.036.282-.069.423a2.147 2.147 0 0 1-.226.576 2.959 2.959 0 0 1-.392.564 4.73 4.73 0 0 1-.317.342c-.07.069-.149.137-.227.206a7.186 7.186 0 0 1-.46.372c-.07.053-.148.104-.223.157-.198.136-.404.271-.63.404a14.417 14.417 0 0 1-1.01.538c-.037.019-.076.036-.115.053-.327.155-.67.307-1.035.453l-.031.013c-1.982.791-4.517 1.457-7.472 1.893l-.044.007c-.574.084-1.163.16-1.768.226-.099.01-.203.017-.302.027-.528.055-1.062.106-1.612.146-.251.019-.515.027-.77.043-.414.024-.824.051-1.248.066a60.234 60.234 0 0 1-4.244-.003c-.424-.014-.833-.042-1.247-.066-.256-.014-.52-.024-.77-.042-.55-.04-1.085-.091-1.613-.146l-.302-.028a49.987 49.987 0 0 1-1.812-.232c-2.954-.437-5.49-1.102-7.472-1.894l-.031-.012a18.544 18.544 0 0 1-1.035-.453c-.038-.019-.078-.036-.115-.053a13.884 13.884 0 0 1-.825-.434c-.061-.035-.126-.07-.185-.105a10.075 10.075 0 0 1-.63-.404c-.074-.052-.152-.104-.224-.157a7.186 7.186 0 0 1-.459-.372c-.077-.068-.156-.136-.227-.206a4.555 4.555 0 0 1-.507-.584 3.254 3.254 0 0 1-.327-.58 2.115 2.115 0 0 1-.101-.318c-.032-.138-.068-.28-.068-.42 0-.099.011-.198.027-.295a.87.87 0 0 0-.027-.389v-6.479c.105.095.224.189.338.283.062.052.12.105.187.157.262.206.545.41.851.607.064.041.135.082.202.123a14.932 14.932 0 0 0 1.133.638c.319.162.653.32 1.005.473.057.025.11.051.168.076.41.173.844.339 1.296.5.125.044.256.086.384.13.36.12.732.237 1.117.35.138.04.274.082.417.12.51.141 1.037.276 1.59.4.077.017.159.031.235.048a39.826 39.826 0 0 0 2.05.388c.494.081 1.004.155 1.527.224.134.017.263.037.399.054.649.078 1.321.145 2.011.203.17.014.348.024.52.037.553.04 1.118.073 1.695.1l.635.026a68.34 68.34 0 0 0 2.313.044c.794 0 1.56-.019 2.312-.044a62.293 62.293 0 0 0 2.33-.127c.172-.012.349-.022.52-.036.69-.057 1.362-.125 2.011-.203.137-.017.265-.037.4-.054a47.074 47.074 0 0 0 2.061-.315c.52-.092 1.027-.19 1.515-.297.076-.017.158-.032.234-.048.554-.124 1.08-.26 1.591-.4.143-.04.279-.08.418-.12.384-.113.756-.23 1.116-.35.128-.044.259-.086.384-.13.452-.161.887-.327 1.296-.5.058-.025.11-.051.168-.076a18.656 18.656 0 0 0 1.325-.642c.285-.153.557-.309.813-.47.067-.04.138-.08.202-.122.306-.198.59-.4.85-.607.066-.052.125-.105.189-.157.113-.094.233-.188.337-.283zm-20.073-9.856c11.83 0 20.072 3.45 20.072 6.546s-8.243 6.545-20.072 6.545c-11.83 0-20.073-3.449-20.073-6.545 0-3.097 8.243-6.546 20.073-6.546zm20.072 38.141a.89.89 0 0 0-.028.118c-.494 3.019-8.668 6.25-20.044 6.25-11.377 0-19.55-3.231-20.045-6.25a.95.95 0 0 0-.028-.114v-7.343c.024.022.055.044.08.067.19.167.384.334.602.495 3.288 2.486 9.862 4.418 19.39 4.418 9.489 0 16.047-1.916 19.348-4.388.264-.192.501-.39.724-.592h.001v7.34z" fill="#F15A29" fill-rule="nonzero"/><g><g transform="translate(506 225)"><use fill="#FFF" xlink:href="#c"/><path stroke="#FFF" stroke-width="2" d="M32.84 5.042c.101.21.16.435.16.685v23.546c0 .23-.048.454-.14.66C31.81 33.607 24.714 36 16 36 7.262 36 .152 33.595-.869 29.904A1.587 1.587 0 0 1-1 29.273V5.727c0-.25.059-.474.16-.685C.256 1.45 6.83-1 16-1s15.744 2.45 16.84 6.042z"/></g><path d="M537.907 230.415c-.742-2.73-6.258-5.415-15.907-5.415-9.65 0-15.166 2.685-15.907 5.415a.62.62 0 0 0-.093.312v23.546c0 .103.028.2.075.287.756 3.115 7.518 5.44 15.925 5.44 8.388 0 15.14-2.316 15.92-5.42a.626.626 0 0 0 .08-.307v-23.546a.62.62 0 0 0-.093-.312zm-1.238 16.212a1.56 1.56 0 0 1-.165.42 2.155 2.155 0 0 1-.288.41 3.457 3.457 0 0 1-.233.25 5.264 5.264 0 0 1-.503.421c-.052.04-.108.077-.164.115-.145.1-.296.198-.462.295-.043.026-.09.05-.135.076-.191.107-.39.213-.605.316l-.085.04c-.24.112-.49.223-.759.33l-.023.008c-1.453.578-3.312 1.063-5.479 1.381l-.032.005a35.41 35.41 0 0 1-1.297.165c-.072.007-.148.012-.221.02-.388.04-.78.077-1.182.106-.185.014-.378.02-.566.031-.303.018-.603.038-.914.049a44.424 44.424 0 0 1-3.112-.002c-.312-.01-.612-.031-.915-.048-.188-.011-.38-.018-.565-.032-.403-.029-.795-.066-1.182-.106-.073-.008-.15-.013-.222-.02a36.857 36.857 0 0 1-1.329-.17c-2.166-.318-4.026-.803-5.479-1.38l-.023-.01c-.268-.106-.52-.217-.76-.33l-.084-.038a10.202 10.202 0 0 1-.604-.317c-.045-.025-.093-.05-.136-.076a7.393 7.393 0 0 1-.461-.295c-.056-.038-.112-.075-.165-.114a5.264 5.264 0 0 1-.337-.271 3.329 3.329 0 0 1-.539-.576 2.37 2.37 0 0 1-.239-.424 1.536 1.536 0 0 1-.074-.231c-.024-.101-.05-.204-.05-.307 0-.072.008-.144.02-.215a.63.63 0 0 0-.02-.283v-4.724l.059.049c.14.122.281.243.441.36 2.411 1.813 7.232 3.222 14.22 3.222 6.958 0 11.767-1.397 14.188-3.2.193-.14.368-.284.531-.43l.001-.001v4.724a.63.63 0 0 0-.02.283c.012.071.02.143.02.215 0 .103-.026.206-.05.309zm.051-13.168v4.725a.63.63 0 0 0-.02.283c.012.071.02.143.02.215 0 .102-.026.205-.05.308a1.56 1.56 0 0 1-.166.42 2.155 2.155 0 0 1-.288.412 3.457 3.457 0 0 1-.233.249 5.264 5.264 0 0 1-.503.421c-.052.04-.108.077-.164.115-.145.1-.296.198-.462.294-.043.027-.09.051-.135.077-.191.107-.39.213-.605.316l-.085.039c-.24.113-.49.223-.759.33l-.023.01c-1.453.576-3.312 1.062-5.479 1.38a35.41 35.41 0 0 1-1.33.17c-.071.007-.147.012-.22.02-.388.04-.78.077-1.182.106-.185.013-.378.02-.566.031-.303.018-.603.038-.914.048a44.424 44.424 0 0 1-3.112-.002c-.312-.01-.612-.03-.915-.048-.188-.01-.38-.018-.565-.031-.403-.03-.795-.066-1.182-.106-.073-.008-.15-.013-.222-.02a36.857 36.857 0 0 1-1.296-.165l-.033-.005c-2.166-.318-4.026-.804-5.479-1.38l-.023-.01c-.268-.107-.52-.217-.76-.33l-.084-.039a10.202 10.202 0 0 1-.604-.316c-.045-.026-.093-.05-.136-.076a7.393 7.393 0 0 1-.461-.295c-.056-.038-.112-.076-.165-.115a5.264 5.264 0 0 1-.337-.27 3.329 3.329 0 0 1-.539-.576 2.37 2.37 0 0 1-.239-.424 1.536 1.536 0 0 1-.074-.231c-.024-.102-.05-.205-.05-.307 0-.072.008-.144.02-.215a.63.63 0 0 0-.02-.283v-4.725c.077.07.164.138.248.206.046.039.089.077.137.115.192.15.4.298.624.443.047.03.1.059.148.089a10.966 10.966 0 0 0 .831.465c.234.118.48.234.737.345.042.018.08.038.124.055.3.127.619.248.95.365l.282.095c.263.088.536.173.818.255.102.03.202.06.306.088.375.103.761.2 1.167.291.056.013.116.023.172.035a29.354 29.354 0 0 0 1.503.283c.363.06.736.114 1.12.163.098.013.192.028.292.04.476.057.97.106 1.475.148.125.01.255.018.382.027.405.03.819.053 1.243.072l.465.02c.552.019 1.114.032 1.696.032.582 0 1.144-.013 1.696-.032l.465-.02c.424-.019.838-.043 1.243-.072.127-.01.256-.017.382-.027.506-.041.999-.09 1.475-.148.1-.012.194-.027.292-.04a34.705 34.705 0 0 0 1.513-.229c.381-.067.752-.14 1.11-.217l.172-.035c.406-.09.792-.189 1.167-.291l.306-.088c.282-.082.555-.167.818-.255l.282-.095c.331-.117.65-.238.95-.365.043-.017.082-.037.124-.055a13.717 13.717 0 0 0 .971-.468c.21-.111.409-.225.597-.342.049-.03.101-.06.148-.09.224-.144.432-.291.624-.442.048-.038.09-.076.137-.115.084-.068.171-.136.248-.206zM522 226.273c8.675 0 14.72 2.515 14.72 4.772 0 2.258-6.045 4.773-14.72 4.773s-14.72-2.515-14.72-4.773c0-2.257 6.045-4.772 14.72-4.772zm14.72 27.81a.646.646 0 0 0-.02.087c-.363 2.2-6.357 4.557-14.7 4.557s-14.337-2.356-14.7-4.557a.69.69 0 0 0-.02-.084v-5.354l.059.049c.14.122.281.244.441.36 2.411 1.814 7.232 3.223 14.22 3.223 6.958 0 11.767-1.398 14.188-3.2.193-.14.368-.284.531-.431l.001-.001v5.352z" fill="#F15A29" fill-rule="nonzero"/></g></g></g></svg>