<svg width="220" height="308" viewBox="0 0 220 308" xmlns="http://www.w3.org/2000/svg" xmlns:xlink="http://www.w3.org/1999/xlink"><title>Group</title><defs><linearGradient x1="0%" y1="100%" y2="0%" id="b"><stop stop-color="#FA5153" offset="0%"/><stop stop-color="#FC624D" offset="45.023%"/><stop stop-color="#FF7645" offset="100%"/></linearGradient><path d="M31 152V79.207C31 35.462 66.37 0 110 0s79 35.462 79 79.207V152h28a3 3 0 0 1 3 3v153H0V155a3 3 0 0 1 3-3h28zm133 0V80.977C164 51.167 140.047 27 110.5 27S57 51.166 57 80.977V152h107z" id="a"/></defs><g fill="none" fill-rule="evenodd"><g><use fill="#FFF" xlink:href="#a"/><use fill="url(#b)" xlink:href="#a"/></g><g fill="#FFF"><path d="M104.565 207.024c.22-.095.572-.238 1.057-.427-.027-.648-.061-1.1-.102-1.357-1.038-6.465-4.84-13.24-16.092-13.24C75.542 192 73 202.314 73 209.635c0 5.24 5.469 24.785 10.686 35.476-3.175-8.816.232-20.902 9.292-30.043 3.54-3.57 7.524-6.269 11.587-8.044z"/><path d="M92.192 255.606c1.5-1.124 6.053-5.236 11.033-19.234 5.934-16.681 4.166-22.55 4.005-23.784-3.914 1.754-7.747 4.366-11.161 7.795-9.06 9.102-12.427 21.16-9.14 29.878.913 1.848 1.819 3.42 2.684 4.588.092.125.245.307.412.5.54.62 1.472.76 2.139.278l.028-.02M138.776 221.9a.012.012 0 0 0-.018.015c4.6 8.927 1.33 22.21-8.608 32.073-2 1.985-4.14 3.702-6.354 5.14a.02.02 0 0 0 0 .036c2.915 1.807 6.37 2.575 10.005 2.268 9.22-.78 16.112-8.18 15.04-20.651-.72-8.38-4.722-15.407-10.065-18.881"/><path d="M93.565 259.45v.004c.815.477 1.67.884 2.56 1.22 6.843 2.591 15.701 1.036 23.593-4.22a39.338 39.338 0 0 0 6.264-5.202c9.768-9.958 12.971-23.376 8.427-32.376a16.353 16.353 0 0 0-2.929-4.1c-5.144-5.245-13.189-6.308-21.271-3.645-.003 0-.006.004-.006.004.96 3.404 3.302 8.529-1.013 23.589-4.314 15.06-14.286 23.8-15.625 24.726"/></g></g></svg>