<svg width="1337" height="865" viewBox="0 0 1337 865" xmlns="http://www.w3.org/2000/svg" xmlns:xlink="http://www.w3.org/1999/xlink"><title>Group 4</title><defs><filter x="-12.9%" y="-17.5%" width="125.9%" height="141.4%" filterUnits="objectBoundingBox" id="a"><feOffset dy="15" in="SourceAlpha" result="shadowOffsetOuter1"/><feGaussianBlur stdDeviation="30" in="shadowOffsetOuter1" result="shadowBlurOuter1"/><feColorMatrix values="0 0 0 0 0.742586097 0 0 0 0 0.742586097 0 0 0 0 0.742586097 0 0 0 0.4 0" in="shadowBlurOuter1" result="shadowMatrixOuter1"/><feMerge><feMergeNode in="shadowMatrixOuter1"/><feMergeNode in="SourceGraphic"/></feMerge></filter><rect id="b" width="76.869" height="26.167" rx="13.083"/><rect id="c" width="76.869" height="26.167" rx="13.083"/><filter x="-44.9%" y="-21.4%" width="189.9%" height="151.9%" filterUnits="objectBoundingBox" id="d"><feOffset dy="15" in="SourceAlpha" result="shadowOffsetOuter1"/><feGaussianBlur stdDeviation="30" in="shadowOffsetOuter1" result="shadowBlurOuter1"/><feColorMatrix values="0 0 0 0 0.742586097 0 0 0 0 0.742586097 0 0 0 0 0.742586097 0 0 0 0.4 0" in="shadowBlurOuter1" result="shadowMatrixOuter1"/><feMerge><feMergeNode in="shadowMatrixOuter1"/><feMergeNode in="SourceGraphic"/></feMerge></filter><rect id="e" width="77.051" height="26.155" rx="13.077"/></defs><g fill="none" fill-rule="evenodd"><g stroke="#F5A623"><path d="M5.166 380.077c-40.828 236.521 223.06 451.73 589.409 480.682 366.35 28.953 696.432-139.316 737.26-375.837 40.827-236.52-223.06-451.729-589.41-480.681C376.075-24.711 45.993 143.555 5.165 380.077z" opacity=".32"/><path d="M262.553 398.487c-25.018 144.434 136.676 275.855 361.15 293.534 224.476 17.68 426.728-85.073 451.745-229.507C1100.464 318.078 938.77 186.66 714.296 168.98c-224.474-17.68-426.727 85.075-451.743 229.508z" opacity=".7"/><path d="M141.298 387.89c-32.325 187.736 176.61 358.556 466.67 381.538 290.062 22.98 551.408-110.582 583.734-298.318 32.325-187.737-176.61-358.557-466.671-381.538-290.061-22.98-551.407 110.58-583.733 298.318z" opacity=".5"/></g><g filter="url(#a)" transform="translate(334 192)"><path fill="#FFF" d="M0 0h753v471H0z"/><path fill="#FAFBFD" d="M0 255.91h753V471H0z"/><path fill="#F7F7F7" d="M0 136.067h753v122.46H0z"/><path fill="#323639" d="M0 0h753v41.867H0z"/><rect fill="#F5631E" x="98.831" y="121.937" width="97.263" height="24.073" rx="12.037"/><g transform="translate(508.798 77.977)"><use fill="#FFF" xlink:href="#b"/><rect stroke="#F0F4FA" stroke-width="4" x="2" y="2" width="72.869" height="22.167" rx="11.083"/></g><path fill="#F0F4FA" d="M523.963 91.06h47.063v2.093h-47.063z"/><g transform="translate(601.354 77.977)"><use fill="#FFF" xlink:href="#c"/><rect stroke="#F0F4FA" stroke-width="4" x="2" y="2" width="72.869" height="22.167" rx="11.083"/></g><path fill="#F0F4FA" d="M615.996 91.06h47.063v2.093h-47.063z"/><path fill="#CAD7E6" d="M100.4 83.21h84.713v7.85H100.4z"/><path fill="#E2E8F0" d="M195.048 83.21h84.713v7.85h-84.713z"/><path fill="#FFF" d="M114.519 132.927h65.888v2.093h-65.888z"/><g transform="translate(98.831 284.693)"><path fill="#EFF2F8" d="M27.192 4.187h327.869V9.42H27.192z"/><ellipse fill="#CAD7E6" cx="7.059" cy="7.065" rx="7.059" ry="7.065"/><path fill="#EFF2F8" d="M27.192 34.017h327.869v5.233H27.192z"/><ellipse fill="#CAD7E6" cx="7.059" cy="36.895" rx="7.059" ry="7.065"/><path fill="#EFF2F8" d="M27.192 63.847h327.869v5.233H27.192z"/><ellipse fill="#CAD7E6" cx="7.059" cy="66.725" rx="7.059" ry="7.065"/><path fill="#EFF2F8" d="M27.192 93.677h327.869v5.233H27.192z"/><ellipse fill="#CAD7E6" cx="7.059" cy="96.555" rx="7.059" ry="7.065"/><path fill="#EFF2F8" d="M27.192 123.507h327.869v5.233H27.192z"/><ellipse fill="#CAD7E6" cx="7.059" cy="126.385" rx="7.059" ry="7.065"/></g><ellipse fill="#D8D8D8" opacity=".5" cx="665.934" cy="21.195" rx="12.289" ry="12.298"/><path fill="#F25A29" d="M98.831 253.293h57.521v5.233H98.831z"/><path fill="#E2E8F0" d="M177.269 253.293h57.521v5.233h-57.521zM98.831 167.467h57.521v5.233H98.831zM98.831 182.12h57.521v5.233H98.831zM245.248 167.467h57.521v5.233h-57.521zM245.248 182.12h57.521v5.233h-57.521zM391.665 167.467h57.521v5.233h-57.521zM391.665 182.12h57.521v5.233h-57.521zM98.831 196.773h36.604v5.233H98.831zM245.248 196.773h36.604v5.233h-36.604zM391.665 196.773h36.604v5.233h-36.604zM259.89 253.293h57.521v5.233H259.89zM342.51 253.293h57.521v5.233H342.51z"/><g><path fill="#FFF" d="M479.515 126.123h198.708V467.86H479.515z"/><path fill="#F25A29" d="M479.515 120.89h198.708v5.233H479.515z"/><path fill="#E3E7ED" d="M518.734 339.12h120.794v5.233H518.734zM518.734 378.893h120.794v5.233H518.734z"/><path fill="#F5F6F8" d="M518.734 359.007h120.794v5.233H518.734zM518.734 398.78h120.794v5.233H518.734z"/><path fill="#FFEBE3" d="M479.515 126.123h198.708v175.84H479.515z"/><g fill-rule="nonzero"><path d="M524.91 238.307s6.748 13.939 5.081 25.748c-1.665 11.81-11.035 17.372-15.032 9.976 0 0-19.653 27.932 64.956 27.932v-76.406l-55.006 12.75z" fill="#D65128"/><path d="M634.533 234.856s-8.453 17.39-6.787 29.2c1.665 11.808 11.036 17.371 15.033 9.975 0 0 19.653 27.932-64.956 27.932v-76.406l56.71 9.3z" fill="#D65128"/><g transform="translate(525.008 170.083)"><path fill="#FDCC9B" d="M43.138 93.494h22.096v24.753H43.138z"/><path d="M43.138 96.41s9.294 5.92 22.095 4.548v-7.464H43.138v2.916z" fill="#FCBC85"/><ellipse fill="#916A50" cx="11.276" cy="55.111" rx="10.782" ry="12.304"/><ellipse fill="#916A50" cx="97.095" cy="55.111" rx="10.782" ry="12.304"/><path d="M97.052 31.61C97.052 13.487 83.794.226 54.187.226 24.577.226 11.32 13.487 11.32 31.61c0 18.124-3.093 65.863 42.867 65.863 45.958-.001 42.865-47.74 42.865-65.863z" fill="#FDCC9B"/><g transform="translate(28.564 46.616)"><ellipse fill="#3B2519" cx="4.743" cy="5.548" rx="4.64" ry="5.083"/><ellipse fill="#FFF" cx="2.72" cy="3.304" rx="1.388" ry="1.388"/></g><path d="M25.884 41.204c2.194.841 5.717-2.855 13.782.36 1.47.586 2.348-5.014-6.297-5.014-7.485 0-8.811 4.147-7.485 4.654z" fill="#D96E27"/><g transform="translate(70.66 46.616)"><ellipse fill="#3B2519" cx="4.979" cy="5.548" rx="4.64" ry="5.083"/><ellipse fill="#FFF" cx="2.956" cy="3.304" rx="1.388" ry="1.389"/></g><path d="M82.488 41.204c-2.194.841-5.717-2.855-13.783.36-1.47.586-2.347-5.014 6.298-5.014 7.485 0 8.81 4.147 7.485 4.654z" fill="#D96E27"/><path d="M54.187 70.044c-4.586 0-7.348-3.425-7.348-1.768 0 1.658 1.326 4.807 7.348 4.807 6.02 0 7.346-3.15 7.346-4.807 0-1.657-2.762 1.768-7.346 1.768zM54.187 85.285c-1.586 0-2.542-1.184-2.542-.61 0 .573.459 1.662 2.542 1.662 2.082 0 2.54-1.09 2.54-1.663s-.955.611-2.54.611z" fill="#FCBC85"/><path d="M54.187 81.062c-7.268 0-11.646-2.96-11.646-2.21s2.101 3.703 11.646 3.703c9.544 0 11.645-2.952 11.645-3.703 0-.75-4.379 2.21-11.645 2.21z" fill="#F7945E"/><ellipse fill="#F9AA8D" cx="27.341" cy="68.409" rx="6.298" ry="6.299"/><ellipse fill="#F9AA8D" cx="81.806" cy="68.409" rx="6.297" ry="6.298"/></g><path d="M579.915 274.227v27.736h-48.632c0-11.227 23.094-27.736 48.632-27.736z" fill="#F6A2B1"/><path d="M579.392 274.227v27.736h48.63c0-11.227-23.093-27.736-48.63-27.736z" fill="#F6A2B1"/><path d="M568.41 274.499l11.243 19.614c.673 0 11.243-19.614 11.243-19.614s-11.664-4.145-22.486 0z" fill="#FDCC9B"/><path d="M567.904 271.61l6.368 6.722 4.597 16.305-6.579-9.96-7.401 4.04-6.414-11.642s5.536-5.087 9.43-5.465zM590.356 271.61l-6.368 6.722-4.596 16.305 6.578-9.96 7.401 4.04 6.414-11.642s-5.536-5.087-9.429-5.465z" fill="#F38191"/><path fill="#F38191" d="M579.392 301.44v-7.106l-3.66-5.454zM579.392 301.44v-7.106l3.66-5.454z"/><path d="M611.079 158.815s-26.551-20.074-58.988-9.954c-30.843 9.622-31.495 50.437-30.5 73.444.663 15.338 6.298 22.858 16.907 22.562v-17.476c8.009-22.953 58.49-39.045 58.49-39.045s13.543 26.937 19.084 28.87l1.839 23.393c13.36 6.274 20.04-2.95 20.04-27.672 0-37.083-5.304-56.777-26.872-54.122z" fill="#D65128"/></g></g></g><g filter="url(#d)" transform="translate(170 278)"><path fill="#FFF" d="M0 0h217v388.139H0z"/><path fill="#FAFBFD" d="M0 255.795h217v133.39H0z"/><path fill="#F7F7F7" d="M0 115.605h217V238.01H0z"/><path fill="#323639" d="M0 0h217v41.848H0z"/><g transform="translate(125.797 104.096)"><use fill="#FFF" xlink:href="#e"/><rect stroke="#F0F4FA" stroke-width="4" x="2" y="2" width="73.051" height="22.155" rx="11.077"/></g><path fill="#F0F4FA" d="M140.997 117.173h47.174v2.092h-47.174z"/><path fill="#CAD7E6" d="M15.725 70.095h74.43v7.846h-74.43z"/><path fill="#E2E8F0" d="M100.638 70.095h74.43v7.846h-74.43z"/><g transform="translate(15.725 104.096)"><rect fill="#F5631E" width="97.493" height="24.063" rx="12.031"/><path fill="#FFF" d="M15.725 10.985h66.043v2.092H15.725z"/></g><g transform="translate(15.725 284.565)"><path fill="#EFF2F8" d="M27.256 4.185h145.191v5.231H27.256z"/><ellipse fill="#CAD7E6" cx="7.076" cy="7.062" rx="7.076" ry="7.062"/><path fill="#EFF2F8" d="M27.256 34.001h145.191v5.231H27.256z"/><ellipse fill="#CAD7E6" cx="7.076" cy="36.878" rx="7.076" ry="7.062"/><path fill="#EFF2F8" d="M27.256 63.818h145.191v5.231H27.256z"/><ellipse fill="#CAD7E6" cx="7.076" cy="66.695" rx="7.076" ry="7.062"/><path fill="#EFF2F8" d="M27.256 93.635h145.191v5.231H27.256z"/><ellipse fill="#CAD7E6" cx="7.076" cy="96.512" rx="7.076" ry="7.062"/></g><g fill="#7D7D7D"><path d="M185.55 28.77h20.967v3.663H185.55zM185.55 21.97h20.967v3.662H185.55zM185.55 15.17h20.967v3.662H185.55z"/></g><path fill="#F25A29" d="M18.345 253.179h57.657v5.231H18.345z"/><path fill="#E2E8F0" d="M96.969 253.179h57.657v5.231H96.969z"/><g fill="#E2E8F0"><path d="M15.725 167.391h57.657v5.231H15.725zM15.725 182.038h57.657v5.231H15.725zM15.725 196.684h36.69v5.231h-36.69z"/></g><g fill="#E2E8F0"><path d="M109.024 167.391h57.657v5.231h-57.657zM109.024 182.038h57.657v5.231h-57.657zM109.024 196.684h36.691v5.231h-36.69z"/></g><path fill="#E2E8F0" d="M179.785 253.179h36.691v5.231h-36.691z"/></g></g></svg>