<svg width="535" height="234" viewBox="0 0 535 234" xmlns="http://www.w3.org/2000/svg" xmlns:xlink="http://www.w3.org/1999/xlink"><defs><rect id="a" width="156" height="51" rx="6"/><mask id="g" x="0" y="0" width="156" height="51" fill="#fff"><use xlink:href="#a"/></mask><rect id="b" width="488" height="51" rx="6"/><mask id="h" x="0" y="0" width="488" height="51" fill="#fff"><use xlink:href="#b"/></mask><rect id="c" width="488" height="51" rx="6"/><mask id="i" x="0" y="0" width="488" height="51" fill="#fff"><use xlink:href="#c"/></mask><rect id="d" width="488" height="51" rx="6"/><mask id="j" x="0" y="0" width="488" height="51" fill="#fff"><use xlink:href="#d"/></mask><rect id="e" width="156" height="51" rx="6"/><mask id="k" x="0" y="0" width="156" height="51" fill="#fff"><use xlink:href="#e"/></mask><rect id="f" width="156" height="51" rx="6"/><mask id="l" x="0" y="0" width="156" height="51" fill="#fff"><use xlink:href="#f"/></mask></defs><g fill="none" fill-rule="evenodd"><g transform="translate(47 183)"><path d="M43.072 25.512c-1.088-1.12-1.632-2.49-1.632-4.112 0-1.621.547-2.99 1.64-4.104 1.093-1.115 2.563-1.672 4.408-1.672 1.397 0 2.63.4 3.696 1.2l-.624 1.2c-.384-.277-.853-.507-1.408-.688a5.328 5.328 0 0 0-1.664-.272c-1.355 0-2.43.416-3.224 1.248-.795.832-1.192 1.861-1.192 3.088s.397 2.256 1.192 3.088c.795.832 1.87 1.248 3.224 1.248.555 0 1.11-.09 1.664-.272.555-.181 1.024-.41 1.408-.688l.624 1.2c-1.067.8-2.299 1.2-3.696 1.2-1.845 0-3.317-.555-4.416-1.664zm11.392-10.08V27h-1.552V15.432h1.552zM58.4 19v4.512c0 .79.155 1.368.464 1.736.31.368.699.552 1.168.552.245 0 .499-.045.76-.136.261-.09.536-.24.824-.448.288-.208.525-.528.712-.96.187-.432.28-.947.28-1.544V19h1.552v8h-1.552v-1.6a2.298 2.298 0 0 1-.976 1.312c-.48.31-1.05.464-1.712.464-.917 0-1.659-.304-2.224-.912-.565-.608-.848-1.525-.848-2.752V19H58.4zm15.536 1.04c.736.8 1.104 1.787 1.104 2.96s-.368 2.163-1.104 2.968c-.736.805-1.69 1.208-2.864 1.208-1.248 0-2.213-.485-2.896-1.456V27h-1.552V15.432h1.552v4.848c.683-.97 1.648-1.456 2.896-1.456 1.173 0 2.128.405 2.864 1.216zM68.144 23c.01.81.27 1.48.776 2.008.507.528 1.16.792 1.96.792s1.435-.27 1.904-.808c.47-.539.704-1.203.704-1.992 0-.79-.235-1.453-.704-1.992-.47-.539-1.104-.808-1.904-.808-.8 0-1.453.264-1.96.792-.507.528-.765 1.197-.776 2.008zm14.944 4h-1.6V15.8h7.12v1.312h-5.52v3.744h4.816v1.312h-4.816V27zm13.888-2.208l.864.896c-.885.992-2.053 1.488-3.504 1.488-1.355 0-2.445-.397-3.272-1.192-.827-.795-1.24-1.779-1.24-2.952s.41-2.168 1.232-2.984c.821-.816 1.845-1.224 3.072-1.224 1.141 0 2.107.37 2.896 1.112.79.741 1.184 1.81 1.184 3.208h-6.832c-.021.779.248 1.416.808 1.912s1.283.744 2.168.744c.97 0 1.845-.336 2.624-1.008zm-2.816-4.608c-1.312 0-2.192.587-2.64 1.76h5.088c-.352-1.173-1.168-1.76-2.448-1.76zm12.336 4.608l.864.896c-.885.992-2.053 1.488-3.504 1.488-1.355 0-2.445-.397-3.272-1.192-.827-.795-1.24-1.779-1.24-2.952s.41-2.168 1.232-2.984c.821-.816 1.845-1.224 3.072-1.224 1.141 0 2.107.37 2.896 1.112.79.741 1.184 1.81 1.184 3.208h-6.832c-.021.779.248 1.416.808 1.912s1.283.744 2.168.744c.97 0 1.845-.336 2.624-1.008zm-2.816-4.608c-1.312 0-2.192.587-2.64 1.76h5.088c-.352-1.173-1.168-1.76-2.448-1.76zm10.768.544l-1.376.304c-.213-.587-.63-.88-1.248-.88-.352 0-.637.096-.856.288a.936.936 0 0 0-.328.736c0 .427.32.747.96.96l1.152.384c1.28.395 1.92 1.147 1.92 2.256 0 .736-.277 1.32-.832 1.752-.555.432-1.237.648-2.048.648-.736 0-1.39-.184-1.96-.552a2.592 2.592 0 0 1-1.128-1.544l1.376-.336c.096.32.307.584.632.792.325.208.69.312 1.096.312.395 0 .723-.104.984-.312.261-.208.392-.467.392-.776 0-.437-.336-.773-1.008-1.008l-1.072-.368c-1.312-.395-1.968-1.12-1.968-2.176 0-.693.245-1.264.736-1.712.49-.448 1.125-.672 1.904-.672 1.387 0 2.277.635 2.672 1.904z" fill="#0D0C44"/><use stroke="#CCC" mask="url(#g)" stroke-width="2" stroke-linecap="square" stroke-dasharray="10" xlink:href="#a"/></g><g transform="translate(47 122)"><path d="M126.996 25.512c-1.088-1.12-1.632-2.49-1.632-4.112 0-1.621.547-2.99 1.64-4.104 1.093-1.115 2.563-1.672 4.408-1.672 1.397 0 2.63.4 3.696 1.2l-.624 1.2c-.384-.277-.853-.507-1.408-.688a5.328 5.328 0 0 0-1.664-.272c-1.355 0-2.43.416-3.224 1.248-.795.832-1.192 1.861-1.192 3.088s.397 2.256 1.192 3.088c.795.832 1.87 1.248 3.224 1.248.555 0 1.11-.09 1.664-.272.555-.181 1.024-.41 1.408-.688l.624 1.2c-1.067.8-2.299 1.2-3.696 1.2-1.845 0-3.317-.555-4.416-1.664zm9.84 1.488v-8h1.552v8h-1.552zm0-9.808a1.041 1.041 0 0 1-.304-.768c0-.31.104-.568.312-.776.208-.208.461-.312.76-.312s.555.104.768.312c.213.208.32.467.32.776 0 .299-.104.552-.312.76a1.053 1.053 0 0 1-.776.312c-.299 0-.555-.101-.768-.304zm6 3.024v4.368c0 .416.088.725.264.928a.877.877 0 0 0 .696.304c.267 0 .496-.077.688-.232.192-.155.288-.37.288-.648 0-.256-.043-.475-.128-.656h1.36a1.4 1.4 0 0 1 .096.36c.021.144.032.264.032.36l.016.144c0 .597-.208 1.085-.624 1.464-.416.379-.997.568-1.744.568-.715 0-1.31-.213-1.784-.64-.475-.427-.712-1.115-.712-2.064v-4.256h-1.312V19h1.312l.352-2.304h1.2V19h2.544v1.216h-2.544zm8.048 4.752L153.156 19h1.808l-4.912 11.584h-1.504l1.488-3.856L146.66 19h1.776l2.448 5.968zm16.64-9.728l-6.096 12.384h-1.552l6.08-12.384h1.568zm12.768 9.216c.757-.821 1.136-1.84 1.136-3.056s-.376-2.235-1.128-3.056c-.752-.821-1.752-1.232-3-1.232h-1.968v8.576h1.968c1.248 0 2.245-.41 2.992-1.232zm1.2-7.04c1.045 1.067 1.568 2.395 1.568 3.984 0 1.59-.523 2.92-1.568 3.992S179.049 27 177.3 27h-3.568V15.8h3.568c1.75 0 3.147.539 4.192 1.616zm3.6 9.584v-8h1.552v8h-1.552zm0-9.808a1.041 1.041 0 0 1-.304-.768c0-.31.104-.568.312-.776.208-.208.461-.312.76-.312s.555.104.768.312c.213.208.32.467.32.776 0 .299-.104.552-.312.76a1.053 1.053 0 0 1-.776.312c-.299 0-.555-.101-.768-.304zm9.04 3.536l-1.376.304c-.213-.587-.63-.88-1.248-.88-.352 0-.637.096-.856.288a.936.936 0 0 0-.328.736c0 .427.32.747.96.96l1.152.384c1.28.395 1.92 1.147 1.92 2.256 0 .736-.277 1.32-.832 1.752-.555.432-1.237.648-2.048.648-.736 0-1.39-.184-1.96-.552a2.592 2.592 0 0 1-1.128-1.544l1.376-.336c.096.32.307.584.632.792.325.208.69.312 1.096.312.395 0 .723-.104.984-.312.261-.208.392-.467.392-.776 0-.437-.336-.773-1.008-1.008l-1.072-.368c-1.312-.395-1.968-1.12-1.968-2.176 0-.693.245-1.264.736-1.712.49-.448 1.125-.672 1.904-.672 1.387 0 2.277.635 2.672 1.904zm4.016-.512v4.368c0 .416.088.725.264.928a.877.877 0 0 0 .696.304c.267 0 .496-.077.688-.232.192-.155.288-.37.288-.648 0-.256-.043-.475-.128-.656h1.36a1.4 1.4 0 0 1 .096.36c.021.144.032.264.032.36l.016.144c0 .597-.208 1.085-.624 1.464-.416.379-.997.568-1.744.568-.715 0-1.31-.213-1.784-.64-.475-.427-.712-1.115-.712-2.064v-4.256h-1.312V19h1.312l.352-2.304h1.2V19h2.544v1.216h-2.544zm6.32-1.216v1.808c.128-.619.39-1.104.784-1.456a1.984 1.984 0 0 1 1.36-.528c.213 0 .459.059.736.176v1.52a1.694 1.694 0 0 0-.848-.208c-.192 0-.379.035-.56.104-.181.07-.395.213-.64.432s-.445.597-.6 1.136c-.155.539-.232 1.203-.232 1.992V27h-1.552v-8h1.552zm4.352 8v-8h1.552v8h-1.552zm0-9.808a1.041 1.041 0 0 1-.304-.768c0-.31.104-.568.312-.776.208-.208.461-.312.76-.312s.555.104.768.312c.213.208.32.467.32.776 0 .299-.104.552-.312.76a1.053 1.053 0 0 1-.776.312c-.299 0-.555-.101-.768-.304zm3.472 5.904c0-1.227.397-2.245 1.192-3.056.795-.81 1.896-1.216 3.304-1.216 1.035 0 1.99.325 2.864.976l-.736 1.056c-.576-.437-1.264-.656-2.064-.656-.864 0-1.581.261-2.152.784-.57.523-.856 1.195-.856 2.016s.285 1.493.856 2.016c.57.523 1.288.784 2.152.784.8 0 1.488-.219 2.064-.656l.736 1.056c-.875.65-1.83.976-2.864.976-1.376 0-2.47-.387-3.28-1.16-.81-.773-1.216-1.747-1.216-2.92zM221.38 27v-8h1.552v8h-1.552zm0-9.808a1.041 1.041 0 0 1-.304-.768c0-.31.104-.568.312-.776.208-.208.461-.312.76-.312s.555.104.768.312c.213.208.32.467.32.776 0 .299-.104.552-.312.76a1.053 1.053 0 0 1-.776.312c-.299 0-.555-.101-.768-.304zm6 3.024v4.368c0 .416.088.725.264.928a.877.877 0 0 0 .696.304c.267 0 .496-.077.688-.232.192-.155.288-.37.288-.648 0-.256-.043-.475-.128-.656h1.36a1.4 1.4 0 0 1 .096.36c.021.144.032.264.032.36l.016.144c0 .597-.208 1.085-.624 1.464-.416.379-.997.568-1.744.568-.715 0-1.31-.213-1.784-.64-.475-.427-.712-1.115-.712-2.064v-4.256h-1.312V19h1.312l.352-2.304h1.2V19h2.544v1.216h-2.544zm10.96 3.168h4.512l-2.272-6.048-2.24 6.048zm4.992 1.296h-5.472l-.864 2.32h-1.648l4.304-11.2h1.856l4.32 11.2h-1.616l-.88-2.32zm8.912-3.952l-1.376.304c-.213-.587-.63-.88-1.248-.88-.352 0-.637.096-.856.288a.936.936 0 0 0-.328.736c0 .427.32.747.96.96l1.152.384c1.28.395 1.92 1.147 1.92 2.256 0 .736-.277 1.32-.832 1.752-.555.432-1.237.648-2.048.648-.736 0-1.39-.184-1.96-.552a2.592 2.592 0 0 1-1.128-1.544l1.376-.336c.096.32.307.584.632.792.325.208.69.312 1.096.312.395 0 .723-.104.984-.312.261-.208.392-.467.392-.776 0-.437-.336-.773-1.008-1.008l-1.072-.368c-1.312-.395-1.968-1.12-1.968-2.176 0-.693.245-1.264.736-1.712.49-.448 1.125-.672 1.904-.672 1.387 0 2.277.635 2.672 1.904zm7.056 0l-1.376.304c-.213-.587-.63-.88-1.248-.88-.352 0-.637.096-.856.288a.936.936 0 0 0-.328.736c0 .427.32.747.96.96l1.152.384c1.28.395 1.92 1.147 1.92 2.256 0 .736-.277 1.32-.832 1.752-.555.432-1.237.648-2.048.648-.736 0-1.39-.184-1.96-.552a2.592 2.592 0 0 1-1.128-1.544l1.376-.336c.096.32.307.584.632.792.325.208.69.312 1.096.312.395 0 .723-.104.984-.312.261-.208.392-.467.392-.776 0-.437-.336-.773-1.008-1.008l-1.072-.368c-1.312-.395-1.968-1.12-1.968-2.176 0-.693.245-1.264.736-1.712.49-.448 1.125-.672 1.904-.672 1.387 0 2.277.635 2.672 1.904zm2.704 5.232c-.821-.821-1.232-1.808-1.232-2.96s.41-2.136 1.232-2.952c.821-.816 1.808-1.224 2.96-1.224 1.163 0 2.155.41 2.976 1.232.821.821 1.232 1.803 1.232 2.944 0 1.152-.41 2.136-1.232 2.952-.821.816-1.813 1.224-2.976 1.224-1.152 0-2.139-.405-2.96-1.216zm.32-2.944c0 .768.259 1.424.776 1.968s1.139.816 1.864.816c.736 0 1.363-.272 1.88-.816.517-.544.776-1.2.776-1.968 0-.779-.259-1.443-.776-1.992-.517-.55-1.144-.824-1.88-.824-.725 0-1.347.275-1.864.824-.517.55-.776 1.213-.776 1.992zm8.112.08c0-1.227.397-2.245 1.192-3.056.795-.81 1.896-1.216 3.304-1.216 1.035 0 1.99.325 2.864.976l-.736 1.056c-.576-.437-1.264-.656-2.064-.656-.864 0-1.581.261-2.152.784-.57.523-.856 1.195-.856 2.016s.285 1.493.856 2.016c.57.523 1.288.784 2.152.784.8 0 1.488-.219 2.064-.656l.736 1.056c-.875.65-1.83.976-2.864.976-1.376 0-2.47-.387-3.28-1.16-.81-.773-1.216-1.747-1.216-2.92zM279.524 27v-8h1.552v8h-1.552zm0-9.808a1.041 1.041 0 0 1-.304-.768c0-.31.104-.568.312-.776.208-.208.461-.312.76-.312s.555.104.768.312c.213.208.32.467.32.776 0 .299-.104.552-.312.76a1.053 1.053 0 0 1-.776.312c-.299 0-.555-.101-.768-.304zm4.576 8.784c-.736-.81-1.104-1.803-1.104-2.976s.368-2.163 1.104-2.968c.736-.805 1.69-1.208 2.864-1.208 1.248 0 2.213.485 2.896 1.456V19h1.552v8h-1.552v-1.28c-.683.97-1.648 1.456-2.896 1.456-1.173 0-2.128-.4-2.864-1.2zM289.892 23c-.01-.81-.27-1.48-.776-2.008-.507-.528-1.16-.792-1.96-.792s-1.435.27-1.904.808c-.47.539-.704 1.203-.704 1.992 0 .79.235 1.453.704 1.992.47.539 1.104.808 1.904.808.8 0 1.453-.264 1.96-.792.507-.528.765-1.197.776-2.008zm5.92-2.784v4.368c0 .416.088.725.264.928a.877.877 0 0 0 .696.304c.267 0 .496-.077.688-.232.192-.155.288-.37.288-.648 0-.256-.043-.475-.128-.656h1.36a1.4 1.4 0 0 1 .096.36c.021.144.032.264.032.36l.016.144c0 .597-.208 1.085-.624 1.464-.416.379-.997.568-1.744.568-.715 0-1.31-.213-1.784-.64-.475-.427-.712-1.115-.712-2.064v-4.256h-1.312V19h1.312l.352-2.304h1.2V19h2.544v1.216h-2.544zM300.628 27v-8h1.552v8h-1.552zm0-9.808a1.041 1.041 0 0 1-.304-.768c0-.31.104-.568.312-.776.208-.208.461-.312.76-.312s.555.104.768.312c.213.208.32.467.32.776 0 .299-.104.552-.312.76a1.053 1.053 0 0 1-.776.312c-.299 0-.555-.101-.768-.304zm4.688 8.768c-.821-.821-1.232-1.808-1.232-2.96s.41-2.136 1.232-2.952c.821-.816 1.808-1.224 2.96-1.224 1.163 0 2.155.41 2.976 1.232.821.821 1.232 1.803 1.232 2.944 0 1.152-.41 2.136-1.232 2.952-.821.816-1.813 1.224-2.976 1.224-1.152 0-2.139-.405-2.96-1.216zm.32-2.944c0 .768.259 1.424.776 1.968s1.139.816 1.864.816c.736 0 1.363-.272 1.88-.816.517-.544.776-1.2.776-1.968 0-.779-.259-1.443-.776-1.992-.517-.55-1.144-.824-1.88-.824-.725 0-1.347.275-1.864.824-.517.55-.776 1.213-.776 1.992zM320.1 27v-4.512c0-.79-.155-1.368-.464-1.736a1.462 1.462 0 0 0-1.168-.552c-.245 0-.499.045-.76.136a3.25 3.25 0 0 0-.824.448c-.288.208-.525.528-.712.96-.187.432-.28.947-.28 1.544V27h-1.552v-8h1.552v1.6c.17-.565.496-1.003.976-1.312.48-.31 1.05-.464 1.712-.464.917 0 1.659.304 2.224.912.565.608.848 1.525.848 2.752V27H320.1zm10.064 0h-1.6V15.8h7.12v1.312h-5.52v3.744h4.816v1.312h-4.816V27zm13.888-2.208l.864.896c-.885.992-2.053 1.488-3.504 1.488-1.355 0-2.445-.397-3.272-1.192-.827-.795-1.24-1.779-1.24-2.952s.41-2.168 1.232-2.984c.821-.816 1.845-1.224 3.072-1.224 1.141 0 2.107.37 2.896 1.112.79.741 1.184 1.81 1.184 3.208h-6.832c-.021.779.248 1.416.808 1.912s1.283.744 2.168.744c.97 0 1.845-.336 2.624-1.008zm-2.816-4.608c-1.312 0-2.192.587-2.64 1.76h5.088c-.352-1.173-1.168-1.76-2.448-1.76zm12.336 4.608l.864.896c-.885.992-2.053 1.488-3.504 1.488-1.355 0-2.445-.397-3.272-1.192-.827-.795-1.24-1.779-1.24-2.952s.41-2.168 1.232-2.984c.821-.816 1.845-1.224 3.072-1.224 1.141 0 2.107.37 2.896 1.112.79.741 1.184 1.81 1.184 3.208h-6.832c-.021.779.248 1.416.808 1.912s1.283.744 2.168.744c.97 0 1.845-.336 2.624-1.008zm-2.816-4.608c-1.312 0-2.192.587-2.64 1.76h5.088c-.352-1.173-1.168-1.76-2.448-1.76zm10.768.544l-1.376.304c-.213-.587-.63-.88-1.248-.88-.352 0-.637.096-.856.288a.936.936 0 0 0-.328.736c0 .427.32.747.96.96l1.152.384c1.28.395 1.92 1.147 1.92 2.256 0 .736-.277 1.32-.832 1.752-.555.432-1.237.648-2.048.648-.736 0-1.39-.184-1.96-.552a2.592 2.592 0 0 1-1.128-1.544l1.376-.336c.096.32.307.584.632.792.325.208.69.312 1.096.312.395 0 .723-.104.984-.312.261-.208.392-.467.392-.776 0-.437-.336-.773-1.008-1.008l-1.072-.368c-1.312-.395-1.968-1.12-1.968-2.176 0-.693.245-1.264.736-1.712.49-.448 1.125-.672 1.904-.672 1.387 0 2.277.635 2.672 1.904z" fill="#0D0C44"/><use stroke="#CCC" mask="url(#h)" stroke-width="2" stroke-linecap="square" stroke-dasharray="10" xlink:href="#b"/></g><g transform="translate(47 61)"><path d="M146.628 27h-1.6V15.8h4.672c1.035 0 1.856.341 2.464 1.024.608.683.912 1.515.912 2.496 0 .853-.235 1.59-.704 2.208-.47.619-1.115 1.008-1.936 1.168.064.725.293 1.427.688 2.104.395.677.875 1.016 1.44 1.016.512 0 .95-.17 1.312-.512l.56 1.088c-.512.523-1.168.784-1.968.784a2.81 2.81 0 0 1-1.368-.336 3.107 3.107 0 0 1-.992-.824 5.18 5.18 0 0 1-.648-1.12 6.853 6.853 0 0 1-.392-1.152 6.323 6.323 0 0 1-.152-.984h-2.288V27zm0-5.52h2.736c.63 0 1.128-.2 1.496-.6.368-.4.552-.925.552-1.576 0-.65-.184-1.179-.552-1.584-.368-.405-.867-.608-1.496-.608h-2.736v4.368zm15.584 3.312l.864.896c-.885.992-2.053 1.488-3.504 1.488-1.355 0-2.445-.397-3.272-1.192-.827-.795-1.24-1.779-1.24-2.952s.41-2.168 1.232-2.984c.821-.816 1.845-1.224 3.072-1.224 1.141 0 2.107.37 2.896 1.112.79.741 1.184 1.81 1.184 3.208h-6.832c-.021.779.248 1.416.808 1.912s1.283.744 2.168.744c.97 0 1.845-.336 2.624-1.008zm-2.816-4.608c-1.312 0-2.192.587-2.64 1.76h5.088c-.352-1.173-1.168-1.76-2.448-1.76zM173.012 19v7.936c0 1.259-.4 2.21-1.2 2.856-.8.645-1.792.968-2.976.968-1.333 0-2.475-.384-3.424-1.152l.624-1.216c.768.672 1.701 1.008 2.8 1.008.8 0 1.437-.227 1.912-.68.475-.453.712-1.096.712-1.928V25.72c-.683.97-1.648 1.456-2.896 1.456-1.173 0-2.128-.403-2.864-1.208-.736-.805-1.104-1.795-1.104-2.968s.368-2.163 1.104-2.968c.736-.805 1.69-1.208 2.864-1.208 1.248 0 2.213.485 2.896 1.456V19h1.552zm-1.52 4c-.01-.81-.27-1.48-.776-2.008-.507-.528-1.16-.792-1.96-.792s-1.435.27-1.904.808c-.47.539-.704 1.203-.704 1.992 0 .79.235 1.453.704 1.992.47.539 1.104.808 1.904.808.8 0 1.453-.264 1.96-.792.507-.528.765-1.197.776-2.008zm4.032 4v-8h1.552v8h-1.552zm0-9.808a1.041 1.041 0 0 1-.304-.768c0-.31.104-.568.312-.776.208-.208.461-.312.76-.312s.555.104.768.312c.213.208.32.467.32.776 0 .299-.104.552-.312.76a1.053 1.053 0 0 1-.776.312c-.299 0-.555-.101-.768-.304zm4.688 8.768c-.821-.821-1.232-1.808-1.232-2.96s.41-2.136 1.232-2.952c.821-.816 1.808-1.224 2.96-1.224 1.163 0 2.155.41 2.976 1.232.821.821 1.232 1.803 1.232 2.944 0 1.152-.41 2.136-1.232 2.952-.821.816-1.813 1.224-2.976 1.224-1.152 0-2.139-.405-2.96-1.216zm.32-2.944c0 .768.259 1.424.776 1.968s1.139.816 1.864.816c.736 0 1.363-.272 1.88-.816.517-.544.776-1.2.776-1.968 0-.779-.259-1.443-.776-1.992-.517-.55-1.144-.824-1.88-.824-.725 0-1.347.275-1.864.824-.517.55-.776 1.213-.776 1.992zM194.996 27v-4.512c0-.79-.155-1.368-.464-1.736a1.462 1.462 0 0 0-1.168-.552c-.245 0-.499.045-.76.136a3.25 3.25 0 0 0-.824.448c-.288.208-.525.528-.712.96-.187.432-.28.947-.28 1.544V27h-1.552v-8h1.552v1.6c.17-.565.496-1.003.976-1.312.48-.31 1.05-.464 1.712-.464.917 0 1.659.304 2.224.912.565.608.848 1.525.848 2.752V27h-1.552zm4.416-1.024c-.736-.81-1.104-1.803-1.104-2.976s.368-2.163 1.104-2.968c.736-.805 1.69-1.208 2.864-1.208 1.248 0 2.213.485 2.896 1.456V19h1.552v8h-1.552v-1.28c-.683.97-1.648 1.456-2.896 1.456-1.173 0-2.128-.4-2.864-1.2zM205.204 23c-.01-.81-.27-1.48-.776-2.008-.507-.528-1.16-.792-1.96-.792s-1.435.27-1.904.808c-.47.539-.704 1.203-.704 1.992 0 .79.235 1.453.704 1.992.47.539 1.104.808 1.904.808.8 0 1.453-.264 1.96-.792.507-.528.765-1.197.776-2.008zm5.584-7.568V27h-1.552V15.432h1.552zm8.704 7.952h4.512l-2.272-6.048-2.24 6.048zm4.992 1.296h-5.472l-.864 2.32H216.5l4.304-11.2h1.856l4.32 11.2h-1.616l-.88-2.32zm8.912-3.952l-1.376.304c-.213-.587-.63-.88-1.248-.88-.352 0-.637.096-.856.288a.936.936 0 0 0-.328.736c0 .427.32.747.96.96l1.152.384c1.28.395 1.92 1.147 1.92 2.256 0 .736-.277 1.32-.832 1.752-.555.432-1.237.648-2.048.648-.736 0-1.39-.184-1.96-.552a2.592 2.592 0 0 1-1.128-1.544l1.376-.336c.096.32.307.584.632.792.325.208.69.312 1.096.312.395 0 .723-.104.984-.312.261-.208.392-.467.392-.776 0-.437-.336-.773-1.008-1.008l-1.072-.368c-1.312-.395-1.968-1.12-1.968-2.176 0-.693.245-1.264.736-1.712.49-.448 1.125-.672 1.904-.672 1.387 0 2.277.635 2.672 1.904zm7.056 0l-1.376.304c-.213-.587-.63-.88-1.248-.88-.352 0-.637.096-.856.288a.936.936 0 0 0-.328.736c0 .427.32.747.96.96l1.152.384c1.28.395 1.92 1.147 1.92 2.256 0 .736-.277 1.32-.832 1.752-.555.432-1.237.648-2.048.648-.736 0-1.39-.184-1.96-.552a2.592 2.592 0 0 1-1.128-1.544l1.376-.336c.096.32.307.584.632.792.325.208.69.312 1.096.312.395 0 .723-.104.984-.312.261-.208.392-.467.392-.776 0-.437-.336-.773-1.008-1.008l-1.072-.368c-1.312-.395-1.968-1.12-1.968-2.176 0-.693.245-1.264.736-1.712.49-.448 1.125-.672 1.904-.672 1.387 0 2.277.635 2.672 1.904zm2.704 5.232c-.821-.821-1.232-1.808-1.232-2.96s.41-2.136 1.232-2.952c.821-.816 1.808-1.224 2.96-1.224 1.163 0 2.155.41 2.976 1.232.821.821 1.232 1.803 1.232 2.944 0 1.152-.41 2.136-1.232 2.952-.821.816-1.813 1.224-2.976 1.224-1.152 0-2.139-.405-2.96-1.216zm.32-2.944c0 .768.259 1.424.776 1.968s1.139.816 1.864.816c.736 0 1.363-.272 1.88-.816.517-.544.776-1.2.776-1.968 0-.779-.259-1.443-.776-1.992-.517-.55-1.144-.824-1.88-.824-.725 0-1.347.275-1.864.824-.517.55-.776 1.213-.776 1.992zm8.112.08c0-1.227.397-2.245 1.192-3.056.795-.81 1.896-1.216 3.304-1.216 1.035 0 1.99.325 2.864.976l-.736 1.056c-.576-.437-1.264-.656-2.064-.656-.864 0-1.581.261-2.152.784-.57.523-.856 1.195-.856 2.016s.285 1.493.856 2.016c.57.523 1.288.784 2.152.784.8 0 1.488-.219 2.064-.656l.736 1.056c-.875.65-1.83.976-2.864.976-1.376 0-2.47-.387-3.28-1.16-.81-.773-1.216-1.747-1.216-2.92zM260.676 27v-8h1.552v8h-1.552zm0-9.808a1.041 1.041 0 0 1-.304-.768c0-.31.104-.568.312-.776.208-.208.461-.312.76-.312s.555.104.768.312c.213.208.32.467.32.776 0 .299-.104.552-.312.76a1.053 1.053 0 0 1-.776.312c-.299 0-.555-.101-.768-.304zm4.576 8.784c-.736-.81-1.104-1.803-1.104-2.976s.368-2.163 1.104-2.968c.736-.805 1.69-1.208 2.864-1.208 1.248 0 2.213.485 2.896 1.456V19h1.552v8h-1.552v-1.28c-.683.97-1.648 1.456-2.896 1.456-1.173 0-2.128-.4-2.864-1.2zM271.044 23c-.01-.81-.27-1.48-.776-2.008-.507-.528-1.16-.792-1.96-.792s-1.435.27-1.904.808c-.47.539-.704 1.203-.704 1.992 0 .79.235 1.453.704 1.992.47.539 1.104.808 1.904.808.8 0 1.453-.264 1.96-.792.507-.528.765-1.197.776-2.008zm5.92-2.784v4.368c0 .416.088.725.264.928a.877.877 0 0 0 .696.304c.267 0 .496-.077.688-.232.192-.155.288-.37.288-.648 0-.256-.043-.475-.128-.656h1.36a1.4 1.4 0 0 1 .096.36c.021.144.032.264.032.36l.016.144c0 .597-.208 1.085-.624 1.464-.416.379-.997.568-1.744.568-.715 0-1.31-.213-1.784-.64-.475-.427-.712-1.115-.712-2.064v-4.256H274.1V19h1.312l.352-2.304h1.2V19h2.544v1.216h-2.544zM281.78 27v-8h1.552v8h-1.552zm0-9.808a1.041 1.041 0 0 1-.304-.768c0-.31.104-.568.312-.776.208-.208.461-.312.76-.312s.555.104.768.312c.213.208.32.467.32.776 0 .299-.104.552-.312.76a1.053 1.053 0 0 1-.776.312c-.299 0-.555-.101-.768-.304zm4.688 8.768c-.821-.821-1.232-1.808-1.232-2.96s.41-2.136 1.232-2.952c.821-.816 1.808-1.224 2.96-1.224 1.163 0 2.155.41 2.976 1.232.821.821 1.232 1.803 1.232 2.944 0 1.152-.41 2.136-1.232 2.952-.821.816-1.813 1.224-2.976 1.224-1.152 0-2.139-.405-2.96-1.216zm.32-2.944c0 .768.259 1.424.776 1.968s1.139.816 1.864.816c.736 0 1.363-.272 1.88-.816.517-.544.776-1.2.776-1.968 0-.779-.259-1.443-.776-1.992-.517-.55-1.144-.824-1.88-.824-.725 0-1.347.275-1.864.824-.517.55-.776 1.213-.776 1.992zM301.252 27v-4.512c0-.79-.155-1.368-.464-1.736a1.462 1.462 0 0 0-1.168-.552c-.245 0-.499.045-.76.136a3.25 3.25 0 0 0-.824.448c-.288.208-.525.528-.712.96-.187.432-.28.947-.28 1.544V27h-1.552v-8h1.552v1.6c.17-.565.496-1.003.976-1.312.48-.31 1.05-.464 1.712-.464.917 0 1.659.304 2.224.912.565.608.848 1.525.848 2.752V27h-1.552zm10.064 0h-1.6V15.8h7.12v1.312h-5.52v3.744h4.816v1.312h-4.816V27zm13.888-2.208l.864.896c-.885.992-2.053 1.488-3.504 1.488-1.355 0-2.445-.397-3.272-1.192-.827-.795-1.24-1.779-1.24-2.952s.41-2.168 1.232-2.984c.821-.816 1.845-1.224 3.072-1.224 1.141 0 2.107.37 2.896 1.112.79.741 1.184 1.81 1.184 3.208h-6.832c-.021.779.248 1.416.808 1.912s1.283.744 2.168.744c.97 0 1.845-.336 2.624-1.008zm-2.816-4.608c-1.312 0-2.192.587-2.64 1.76h5.088c-.352-1.173-1.168-1.76-2.448-1.76zm12.336 4.608l.864.896c-.885.992-2.053 1.488-3.504 1.488-1.355 0-2.445-.397-3.272-1.192-.827-.795-1.24-1.779-1.24-2.952s.41-2.168 1.232-2.984c.821-.816 1.845-1.224 3.072-1.224 1.141 0 2.107.37 2.896 1.112.79.741 1.184 1.81 1.184 3.208h-6.832c-.021.779.248 1.416.808 1.912s1.283.744 2.168.744c.97 0 1.845-.336 2.624-1.008zm-2.816-4.608c-1.312 0-2.192.587-2.64 1.76h5.088c-.352-1.173-1.168-1.76-2.448-1.76zm10.768.544l-1.376.304c-.213-.587-.63-.88-1.248-.88-.352 0-.637.096-.856.288a.936.936 0 0 0-.328.736c0 .427.32.747.96.96l1.152.384c1.28.395 1.92 1.147 1.92 2.256 0 .736-.277 1.32-.832 1.752-.555.432-1.237.648-2.048.648-.736 0-1.39-.184-1.96-.552a2.592 2.592 0 0 1-1.128-1.544l1.376-.336c.096.32.307.584.632.792.325.208.69.312 1.096.312.395 0 .723-.104.984-.312.261-.208.392-.467.392-.776 0-.437-.336-.773-1.008-1.008l-1.072-.368c-1.312-.395-1.968-1.12-1.968-2.176 0-.693.245-1.264.736-1.712.49-.448 1.125-.672 1.904-.672 1.387 0 2.277.635 2.672 1.904z" fill="#0D0C44"/><use stroke="#CCC" mask="url(#i)" stroke-width="2" stroke-linecap="square" stroke-dasharray="10" xlink:href="#c"/></g><g transform="translate(47)"><path d="M153.644 27l-6.144-8.288V27h-1.6V15.8h1.184l6.128 8.256V15.8h1.616V27h-1.184zm4.496-1.024c-.736-.81-1.104-1.803-1.104-2.976s.368-2.163 1.104-2.968c.736-.805 1.69-1.208 2.864-1.208 1.248 0 2.213.485 2.896 1.456V19h1.552v8H163.9v-1.28c-.683.97-1.648 1.456-2.896 1.456-1.173 0-2.128-.4-2.864-1.2zM163.932 23c-.01-.81-.27-1.48-.776-2.008-.507-.528-1.16-.792-1.96-.792s-1.435.27-1.904.808c-.47.539-.704 1.203-.704 1.992 0 .79.235 1.453.704 1.992.47.539 1.104.808 1.904.808.8 0 1.453-.264 1.96-.792.507-.528.765-1.197.776-2.008zm5.92-2.784v4.368c0 .416.088.725.264.928a.877.877 0 0 0 .696.304c.267 0 .496-.077.688-.232.192-.155.288-.37.288-.648 0-.256-.043-.475-.128-.656h1.36a1.4 1.4 0 0 1 .096.36c.021.144.032.264.032.36l.016.144c0 .597-.208 1.085-.624 1.464-.416.379-.997.568-1.744.568-.715 0-1.31-.213-1.784-.64-.475-.427-.712-1.115-.712-2.064v-4.256h-1.312V19h1.312l.352-2.304h1.2V19h2.544v1.216h-2.544zM174.668 27v-8h1.552v8h-1.552zm0-9.808a1.041 1.041 0 0 1-.304-.768c0-.31.104-.568.312-.776.208-.208.461-.312.76-.312s.555.104.768.312c.213.208.32.467.32.776 0 .299-.104.552-.312.76a1.053 1.053 0 0 1-.776.312c-.299 0-.555-.101-.768-.304zm4.688 8.768c-.821-.821-1.232-1.808-1.232-2.96s.41-2.136 1.232-2.952c.821-.816 1.808-1.224 2.96-1.224 1.163 0 2.155.41 2.976 1.232.821.821 1.232 1.803 1.232 2.944 0 1.152-.41 2.136-1.232 2.952-.821.816-1.813 1.224-2.976 1.224-1.152 0-2.139-.405-2.96-1.216zm.32-2.944c0 .768.259 1.424.776 1.968s1.139.816 1.864.816c.736 0 1.363-.272 1.88-.816.517-.544.776-1.2.776-1.968 0-.779-.259-1.443-.776-1.992-.517-.55-1.144-.824-1.88-.824-.725 0-1.347.275-1.864.824-.517.55-.776 1.213-.776 1.992zM194.14 27v-4.512c0-.79-.155-1.368-.464-1.736a1.462 1.462 0 0 0-1.168-.552c-.245 0-.499.045-.76.136a3.25 3.25 0 0 0-.824.448c-.288.208-.525.528-.712.96-.187.432-.28.947-.28 1.544V27h-1.552v-8h1.552v1.6c.17-.565.496-1.003.976-1.312.48-.31 1.05-.464 1.712-.464.917 0 1.659.304 2.224.912.565.608.848 1.525.848 2.752V27h-1.552zm4.416-1.024c-.736-.81-1.104-1.803-1.104-2.976s.368-2.163 1.104-2.968c.736-.805 1.69-1.208 2.864-1.208 1.248 0 2.213.485 2.896 1.456V19h1.552v8h-1.552v-1.28c-.683.97-1.648 1.456-2.896 1.456-1.173 0-2.128-.4-2.864-1.2zM204.348 23c-.01-.81-.27-1.48-.776-2.008-.507-.528-1.16-.792-1.96-.792s-1.435.27-1.904.808c-.47.539-.704 1.203-.704 1.992 0 .79.235 1.453.704 1.992.47.539 1.104.808 1.904.808.8 0 1.453-.264 1.96-.792.507-.528.765-1.197.776-2.008zm5.584-7.568V27h-1.552V15.432h1.552zm8.704 7.952h4.512l-2.272-6.048-2.24 6.048zm4.992 1.296h-5.472l-.864 2.32h-1.648l4.304-11.2h1.856l4.32 11.2h-1.616l-.88-2.32zm8.912-3.952l-1.376.304c-.213-.587-.63-.88-1.248-.88-.352 0-.637.096-.856.288a.936.936 0 0 0-.328.736c0 .427.32.747.96.96l1.152.384c1.28.395 1.92 1.147 1.92 2.256 0 .736-.277 1.32-.832 1.752-.555.432-1.237.648-2.048.648-.736 0-1.39-.184-1.96-.552a2.592 2.592 0 0 1-1.128-1.544l1.376-.336c.096.32.307.584.632.792.325.208.69.312 1.096.312.395 0 .723-.104.984-.312.261-.208.392-.467.392-.776 0-.437-.336-.773-1.008-1.008l-1.072-.368c-1.312-.395-1.968-1.12-1.968-2.176 0-.693.245-1.264.736-1.712.49-.448 1.125-.672 1.904-.672 1.387 0 2.277.635 2.672 1.904zm7.056 0l-1.376.304c-.213-.587-.63-.88-1.248-.88-.352 0-.637.096-.856.288a.936.936 0 0 0-.328.736c0 .427.32.747.96.96l1.152.384c1.28.395 1.92 1.147 1.92 2.256 0 .736-.277 1.32-.832 1.752-.555.432-1.237.648-2.048.648-.736 0-1.39-.184-1.96-.552a2.592 2.592 0 0 1-1.128-1.544l1.376-.336c.096.32.307.584.632.792.325.208.69.312 1.096.312.395 0 .723-.104.984-.312.261-.208.392-.467.392-.776 0-.437-.336-.773-1.008-1.008l-1.072-.368c-1.312-.395-1.968-1.12-1.968-2.176 0-.693.245-1.264.736-1.712.49-.448 1.125-.672 1.904-.672 1.387 0 2.277.635 2.672 1.904zm2.704 5.232c-.821-.821-1.232-1.808-1.232-2.96s.41-2.136 1.232-2.952c.821-.816 1.808-1.224 2.96-1.224 1.163 0 2.155.41 2.976 1.232.821.821 1.232 1.803 1.232 2.944 0 1.152-.41 2.136-1.232 2.952-.821.816-1.813 1.224-2.976 1.224-1.152 0-2.139-.405-2.96-1.216zm.32-2.944c0 .768.259 1.424.776 1.968s1.139.816 1.864.816c.736 0 1.363-.272 1.88-.816.517-.544.776-1.2.776-1.968 0-.779-.259-1.443-.776-1.992-.517-.55-1.144-.824-1.88-.824-.725 0-1.347.275-1.864.824-.517.55-.776 1.213-.776 1.992zm8.112.08c0-1.227.397-2.245 1.192-3.056.795-.81 1.896-1.216 3.304-1.216 1.035 0 1.99.325 2.864.976l-.736 1.056c-.576-.437-1.264-.656-2.064-.656-.864 0-1.581.261-2.152.784-.57.523-.856 1.195-.856 2.016s.285 1.493.856 2.016c.57.523 1.288.784 2.152.784.8 0 1.488-.219 2.064-.656l.736 1.056c-.875.65-1.83.976-2.864.976-1.376 0-2.47-.387-3.28-1.16-.81-.773-1.216-1.747-1.216-2.92zM259.82 27v-8h1.552v8h-1.552zm0-9.808a1.041 1.041 0 0 1-.304-.768c0-.31.104-.568.312-.776.208-.208.461-.312.76-.312s.555.104.768.312c.213.208.32.467.32.776 0 .299-.104.552-.312.76a1.053 1.053 0 0 1-.776.312c-.299 0-.555-.101-.768-.304zm4.576 8.784c-.736-.81-1.104-1.803-1.104-2.976s.368-2.163 1.104-2.968c.736-.805 1.69-1.208 2.864-1.208 1.248 0 2.213.485 2.896 1.456V19h1.552v8h-1.552v-1.28c-.683.97-1.648 1.456-2.896 1.456-1.173 0-2.128-.4-2.864-1.2zM270.188 23c-.01-.81-.27-1.48-.776-2.008-.507-.528-1.16-.792-1.96-.792s-1.435.27-1.904.808c-.47.539-.704 1.203-.704 1.992 0 .79.235 1.453.704 1.992.47.539 1.104.808 1.904.808.8 0 1.453-.264 1.96-.792.507-.528.765-1.197.776-2.008zm5.92-2.784v4.368c0 .416.088.725.264.928a.877.877 0 0 0 .696.304c.267 0 .496-.077.688-.232.192-.155.288-.37.288-.648 0-.256-.043-.475-.128-.656h1.36a1.4 1.4 0 0 1 .096.36c.021.144.032.264.032.36l.016.144c0 .597-.208 1.085-.624 1.464-.416.379-.997.568-1.744.568-.715 0-1.31-.213-1.784-.64-.475-.427-.712-1.115-.712-2.064v-4.256h-1.312V19h1.312l.352-2.304h1.2V19h2.544v1.216h-2.544zM280.924 27v-8h1.552v8h-1.552zm0-9.808a1.041 1.041 0 0 1-.304-.768c0-.31.104-.568.312-.776.208-.208.461-.312.76-.312s.555.104.768.312c.213.208.32.467.32.776 0 .299-.104.552-.312.76a1.053 1.053 0 0 1-.776.312c-.299 0-.555-.101-.768-.304zm4.688 8.768c-.821-.821-1.232-1.808-1.232-2.96s.41-2.136 1.232-2.952c.821-.816 1.808-1.224 2.96-1.224 1.163 0 2.155.41 2.976 1.232.821.821 1.232 1.803 1.232 2.944 0 1.152-.41 2.136-1.232 2.952-.821.816-1.813 1.224-2.976 1.224-1.152 0-2.139-.405-2.96-1.216zm.32-2.944c0 .768.259 1.424.776 1.968s1.139.816 1.864.816c.736 0 1.363-.272 1.88-.816.517-.544.776-1.2.776-1.968 0-.779-.259-1.443-.776-1.992-.517-.55-1.144-.824-1.88-.824-.725 0-1.347.275-1.864.824-.517.55-.776 1.213-.776 1.992zM300.396 27v-4.512c0-.79-.155-1.368-.464-1.736a1.462 1.462 0 0 0-1.168-.552c-.245 0-.499.045-.76.136a3.25 3.25 0 0 0-.824.448c-.288.208-.525.528-.712.96-.187.432-.28.947-.28 1.544V27h-1.552v-8h1.552v1.6c.17-.565.496-1.003.976-1.312.48-.31 1.05-.464 1.712-.464.917 0 1.659.304 2.224.912.565.608.848 1.525.848 2.752V27h-1.552zm10.064 0h-1.6V15.8h7.12v1.312h-5.52v3.744h4.816v1.312h-4.816V27zm13.888-2.208l.864.896c-.885.992-2.053 1.488-3.504 1.488-1.355 0-2.445-.397-3.272-1.192-.827-.795-1.24-1.779-1.24-2.952s.41-2.168 1.232-2.984c.821-.816 1.845-1.224 3.072-1.224 1.141 0 2.107.37 2.896 1.112.79.741 1.184 1.81 1.184 3.208h-6.832c-.021.779.248 1.416.808 1.912s1.283.744 2.168.744c.97 0 1.845-.336 2.624-1.008zm-2.816-4.608c-1.312 0-2.192.587-2.64 1.76h5.088c-.352-1.173-1.168-1.76-2.448-1.76zm12.336 4.608l.864.896c-.885.992-2.053 1.488-3.504 1.488-1.355 0-2.445-.397-3.272-1.192-.827-.795-1.24-1.779-1.24-2.952s.41-2.168 1.232-2.984c.821-.816 1.845-1.224 3.072-1.224 1.141 0 2.107.37 2.896 1.112.79.741 1.184 1.81 1.184 3.208h-6.832c-.021.779.248 1.416.808 1.912s1.283.744 2.168.744c.97 0 1.845-.336 2.624-1.008zm-2.816-4.608c-1.312 0-2.192.587-2.64 1.76h5.088c-.352-1.173-1.168-1.76-2.448-1.76zm10.768.544l-1.376.304c-.213-.587-.63-.88-1.248-.88-.352 0-.637.096-.856.288a.936.936 0 0 0-.328.736c0 .427.32.747.96.96l1.152.384c1.28.395 1.92 1.147 1.92 2.256 0 .736-.277 1.32-.832 1.752-.555.432-1.237.648-2.048.648-.736 0-1.39-.184-1.96-.552a2.592 2.592 0 0 1-1.128-1.544l1.376-.336c.096.32.307.584.632.792.325.208.69.312 1.096.312.395 0 .723-.104.984-.312.261-.208.392-.467.392-.776 0-.437-.336-.773-1.008-1.008l-1.072-.368c-1.312-.395-1.968-1.12-1.968-2.176 0-.693.245-1.264.736-1.712.49-.448 1.125-.672 1.904-.672 1.387 0 2.277.635 2.672 1.904z" fill="#0D0C44"/><use stroke="#CCC" mask="url(#j)" stroke-width="2" stroke-linecap="square" stroke-dasharray="10" xlink:href="#d"/></g><g transform="translate(213 183)"><path d="M10.768 15.8h9.056v1.312h-3.728V27h-1.6v-9.888h-3.728V15.8zm11.2 10.16c-.821-.821-1.232-1.808-1.232-2.96s.41-2.136 1.232-2.952c.821-.816 1.808-1.224 2.96-1.224 1.163 0 2.155.41 2.976 1.232.821.821 1.232 1.803 1.232 2.944 0 1.152-.41 2.136-1.232 2.952-.821.816-1.813 1.224-2.976 1.224-1.152 0-2.139-.405-2.96-1.216zm.32-2.944c0 .768.259 1.424.776 1.968s1.139.816 1.864.816c.736 0 1.363-.272 1.88-.816.517-.544.776-1.2.776-1.968 0-.779-.259-1.443-.776-1.992-.517-.55-1.144-.824-1.88-.824-.725 0-1.347.275-1.864.824-.517.55-.776 1.213-.776 1.992zM32.416 19v4.512c0 .79.155 1.368.464 1.736.31.368.699.552 1.168.552.245 0 .499-.045.76-.136.261-.09.536-.24.824-.448.288-.208.525-.528.712-.96.187-.432.28-.947.28-1.544V19h1.552v8h-1.552v-1.6a2.298 2.298 0 0 1-.976 1.312c-.48.31-1.05.464-1.712.464-.917 0-1.659-.304-2.224-.912-.565-.608-.848-1.525-.848-2.752V19h1.552zm9.776 0v1.808c.128-.619.39-1.104.784-1.456a1.984 1.984 0 0 1 1.36-.528c.213 0 .459.059.736.176v1.52a1.694 1.694 0 0 0-.848-.208c-.192 0-.379.035-.56.104-.181.07-.395.213-.64.432s-.445.597-.6 1.136c-.155.539-.232 1.203-.232 1.992V27H40.64v-8h1.552zm10.064 8v-4.512c0-.79-.155-1.368-.464-1.736a1.462 1.462 0 0 0-1.168-.552c-.245 0-.499.045-.76.136a3.25 3.25 0 0 0-.824.448c-.288.208-.525.528-.712.96-.187.432-.28.947-.28 1.544V27h-1.552v-8h1.552v1.6c.17-.565.496-1.003.976-1.312.48-.31 1.05-.464 1.712-.464.917 0 1.659.304 2.224.912.565.608.848 1.525.848 2.752V27h-1.552zm4.416-1.024c-.736-.81-1.104-1.803-1.104-2.976s.368-2.163 1.104-2.968c.736-.805 1.69-1.208 2.864-1.208 1.248 0 2.213.485 2.896 1.456V19h1.552v8h-1.552v-1.28c-.683.97-1.648 1.456-2.896 1.456-1.173 0-2.128-.4-2.864-1.2zM62.464 23c-.01-.81-.27-1.48-.776-2.008-.507-.528-1.16-.792-1.96-.792s-1.435.27-1.904.808c-.47.539-.704 1.203-.704 1.992 0 .79.235 1.453.704 1.992.47.539 1.104.808 1.904.808.8 0 1.453-.264 1.96-.792.507-.528.787-1.197.776-2.008zm9.44 4v-4.512c0-.79-.155-1.368-.464-1.736a1.462 1.462 0 0 0-1.168-.552c-.235 0-.472.045-.712.136-.24.09-.483.24-.728.448-.245.208-.445.528-.6.96-.155.432-.232.947-.232 1.544V27h-1.552v-8H68v1.6c.16-.565.475-1.003.944-1.312.47-.31 1.008-.464 1.616-.464 1.205 0 2.053.56 2.544 1.68.523-1.12 1.43-1.68 2.72-1.68.981 0 1.741.299 2.28.896.539.597.808 1.52.808 2.768V27H77.36v-4.512c0-.79-.155-1.368-.464-1.736a1.462 1.462 0 0 0-1.168-.552c-.224 0-.448.04-.672.12-.224.08-.459.216-.704.408-.245.192-.45.493-.616.904-.165.41-.259.904-.28 1.48V27h-1.552zm15.904-2.208l.864.896c-.885.992-2.053 1.488-3.504 1.488-1.355 0-2.445-.397-3.272-1.192-.827-.795-1.24-1.779-1.24-2.952s.41-2.168 1.232-2.984c.821-.816 1.845-1.224 3.072-1.224 1.141 0 2.107.37 2.896 1.112.79.741 1.184 1.81 1.184 3.208h-6.832c-.021.779.248 1.416.808 1.912s1.283.744 2.168.744c.97 0 1.845-.336 2.624-1.008zm-2.816-4.608c-1.312 0-2.192.587-2.64 1.76h5.088c-.352-1.173-1.168-1.76-2.448-1.76zM96.544 27v-4.512c0-.79-.155-1.368-.464-1.736a1.462 1.462 0 0 0-1.168-.552c-.245 0-.499.045-.76.136a3.25 3.25 0 0 0-.824.448c-.288.208-.525.528-.712.96-.187.432-.28.947-.28 1.544V27h-1.552v-8h1.552v1.6c.17-.565.496-1.003.976-1.312.48-.31 1.05-.464 1.712-.464.917 0 1.659.304 2.224.912.565.608.848 1.525.848 2.752V27h-1.552zm5.84-6.784v4.368c0 .416.088.725.264.928a.877.877 0 0 0 .696.304c.267 0 .496-.077.688-.232.192-.155.288-.37.288-.648 0-.256-.043-.475-.128-.656h1.36a1.4 1.4 0 0 1 .096.36c.021.144.032.264.032.36l.016.144c0 .597-.208 1.085-.624 1.464-.416.379-.997.568-1.744.568-.715 0-1.31-.213-1.784-.64-.475-.427-.712-1.115-.712-2.064v-4.256H99.52V19h1.312l.352-2.304h1.2V19h2.544v1.216h-2.544zM113.312 27h-1.6V15.8h7.12v1.312h-5.52v3.744h4.816v1.312h-4.816V27zm13.888-2.208l.864.896c-.885.992-2.053 1.488-3.504 1.488-1.355 0-2.445-.397-3.272-1.192-.827-.795-1.24-1.779-1.24-2.952s.41-2.168 1.232-2.984c.821-.816 1.845-1.224 3.072-1.224 1.141 0 2.107.37 2.896 1.112.79.741 1.184 1.81 1.184 3.208H121.6c-.021.779.248 1.416.808 1.912s1.283.744 2.168.744c.97 0 1.845-.336 2.624-1.008zm-2.816-4.608c-1.312 0-2.192.587-2.64 1.76h5.088c-.352-1.173-1.168-1.76-2.448-1.76zm12.336 4.608l.864.896c-.885.992-2.053 1.488-3.504 1.488-1.355 0-2.445-.397-3.272-1.192-.827-.795-1.24-1.779-1.24-2.952s.41-2.168 1.232-2.984c.821-.816 1.845-1.224 3.072-1.224 1.141 0 2.107.37 2.896 1.112.79.741 1.184 1.81 1.184 3.208h-6.832c-.021.779.248 1.416.808 1.912s1.283.744 2.168.744c.97 0 1.845-.336 2.624-1.008zm-2.816-4.608c-1.312 0-2.192.587-2.64 1.76h5.088c-.352-1.173-1.168-1.76-2.448-1.76zm10.768.544l-1.376.304c-.213-.587-.63-.88-1.248-.88-.352 0-.637.096-.856.288a.936.936 0 0 0-.328.736c0 .427.32.747.96.96l1.152.384c1.28.395 1.92 1.147 1.92 2.256 0 .736-.277 1.32-.832 1.752-.555.432-1.237.648-2.048.648-.736 0-1.39-.184-1.96-.552a2.592 2.592 0 0 1-1.128-1.544l1.376-.336c.096.32.307.584.632.792.325.208.69.312 1.096.312.395 0 .723-.104.984-.312.261-.208.392-.467.392-.776 0-.437-.336-.773-1.008-1.008l-1.072-.368c-1.312-.395-1.968-1.12-1.968-2.176 0-.693.245-1.264.736-1.712.49-.448 1.125-.672 1.904-.672 1.387 0 2.277.635 2.672 1.904z" fill="#0D0C44"/><use stroke="#CCC" mask="url(#k)" stroke-width="2" stroke-linecap="square" stroke-dasharray="10" xlink:href="#e"/></g><g transform="translate(379 183)"><path d="M37.592 25.688V27h-6.72V15.8h1.6v9.888h5.12zm8.016-.896l.864.896c-.885.992-2.053 1.488-3.504 1.488-1.355 0-2.445-.397-3.272-1.192-.827-.795-1.24-1.779-1.24-2.952s.41-2.168 1.232-2.984c.821-.816 1.845-1.224 3.072-1.224 1.141 0 2.107.37 2.896 1.112.79.741 1.184 1.81 1.184 3.208h-6.832c-.021.779.248 1.416.808 1.912s1.283.744 2.168.744c.97 0 1.845-.336 2.624-1.008zm-2.816-4.608c-1.312 0-2.192.587-2.64 1.76h5.088c-.352-1.173-1.168-1.76-2.448-1.76zm6.304 5.792c-.736-.81-1.104-1.803-1.104-2.976s.368-2.163 1.104-2.968c.736-.805 1.69-1.208 2.864-1.208 1.248 0 2.213.485 2.896 1.456V19h1.552v8h-1.552v-1.28c-.683.97-1.648 1.456-2.896 1.456-1.173 0-2.128-.4-2.864-1.2zM54.888 23c-.01-.81-.27-1.48-.776-2.008-.507-.528-1.16-.792-1.96-.792s-1.435.27-1.904.808c-.47.539-.704 1.203-.704 1.992 0 .79.235 1.453.704 1.992.47.539 1.104.808 1.904.808.8 0 1.453-.264 1.96-.792.507-.528.765-1.197.776-2.008zm11.808-4v7.936c0 1.259-.4 2.21-1.2 2.856-.8.645-1.792.968-2.976.968-1.333 0-2.475-.384-3.424-1.152l.624-1.216c.768.672 1.701 1.008 2.8 1.008.8 0 1.437-.227 1.912-.68.475-.453.712-1.096.712-1.928V25.72c-.683.97-1.648 1.456-2.896 1.456-1.173 0-2.128-.403-2.864-1.208-.736-.805-1.104-1.795-1.104-2.968s.368-2.163 1.104-2.968c.736-.805 1.69-1.208 2.864-1.208 1.248 0 2.213.485 2.896 1.456V19h1.552zm-1.52 4c-.01-.81-.27-1.48-.776-2.008-.507-.528-1.16-.792-1.96-.792s-1.435.27-1.904.808c-.47.539-.704 1.203-.704 1.992 0 .79.235 1.453.704 1.992.47.539 1.104.808 1.904.808.8 0 1.453-.264 1.96-.792.507-.528.765-1.197.776-2.008zm5.408-4v4.512c0 .79.155 1.368.464 1.736.31.368.699.552 1.168.552.245 0 .499-.045.76-.136.261-.09.536-.24.824-.448.288-.208.525-.528.712-.96.187-.432.28-.947.28-1.544V19h1.552v8h-1.552v-1.6a2.298 2.298 0 0 1-.976 1.312c-.48.31-1.05.464-1.712.464-.917 0-1.659-.304-2.224-.912-.565-.608-.848-1.525-.848-2.752V19h1.552zm14.768 5.792l.864.896c-.885.992-2.053 1.488-3.504 1.488-1.355 0-2.445-.397-3.272-1.192-.827-.795-1.24-1.779-1.24-2.952s.41-2.168 1.232-2.984c.821-.816 1.845-1.224 3.072-1.224 1.141 0 2.107.37 2.896 1.112.79.741 1.184 1.81 1.184 3.208h-6.832c-.021.779.248 1.416.808 1.912s1.283.744 2.168.744c.97 0 1.845-.336 2.624-1.008zm-2.816-4.608c-1.312 0-2.192.587-2.64 1.76h5.088c-.352-1.173-1.168-1.76-2.448-1.76zM94.488 27h-1.6V15.8h7.12v1.312h-5.52v3.744h4.816v1.312h-4.816V27zm13.888-2.208l.864.896c-.885.992-2.053 1.488-3.504 1.488-1.355 0-2.445-.397-3.272-1.192-.827-.795-1.24-1.779-1.24-2.952s.41-2.168 1.232-2.984c.821-.816 1.845-1.224 3.072-1.224 1.141 0 2.107.37 2.896 1.112.79.741 1.184 1.81 1.184 3.208h-6.832c-.021.779.248 1.416.808 1.912s1.283.744 2.168.744c.97 0 1.845-.336 2.624-1.008zm-2.816-4.608c-1.312 0-2.192.587-2.64 1.76h5.088c-.352-1.173-1.168-1.76-2.448-1.76zm12.336 4.608l.864.896c-.885.992-2.053 1.488-3.504 1.488-1.355 0-2.445-.397-3.272-1.192-.827-.795-1.24-1.779-1.24-2.952s.41-2.168 1.232-2.984c.821-.816 1.845-1.224 3.072-1.224 1.141 0 2.107.37 2.896 1.112.79.741 1.184 1.81 1.184 3.208h-6.832c-.021.779.248 1.416.808 1.912s1.283.744 2.168.744c.97 0 1.845-.336 2.624-1.008zm-2.816-4.608c-1.312 0-2.192.587-2.64 1.76h5.088c-.352-1.173-1.168-1.76-2.448-1.76zm10.768.544l-1.376.304c-.213-.587-.63-.88-1.248-.88-.352 0-.637.096-.856.288a.936.936 0 0 0-.328.736c0 .427.32.747.96.96l1.152.384c1.28.395 1.92 1.147 1.92 2.256 0 .736-.277 1.32-.832 1.752-.555.432-1.237.648-2.048.648-.736 0-1.39-.184-1.96-.552a2.592 2.592 0 0 1-1.128-1.544l1.376-.336c.096.32.307.584.632.792.325.208.69.312 1.096.312.395 0 .723-.104.984-.312.261-.208.392-.467.392-.776 0-.437-.336-.773-1.008-1.008l-1.072-.368c-1.312-.395-1.968-1.12-1.968-2.176 0-.693.245-1.264.736-1.712.49-.448 1.125-.672 1.904-.672 1.387 0 2.277.635 2.672 1.904z" fill="#0D0C44"/><use stroke="#CCC" mask="url(#l)" stroke-width="2" stroke-linecap="square" stroke-dasharray="10" xlink:href="#f"/></g><path d="M10.74 201.452c-1.13 1.13-2.49 1.696-4.08 1.696-1.59 0-2.95-.568-4.08-1.704-1.13-1.136-1.696-2.504-1.696-4.104s.565-2.968 1.696-4.104c1.13-1.136 2.49-1.704 4.08-1.704 1.59 0 2.95.568 4.08 1.704 1.13 1.136 1.696 2.504 1.696 4.104s-.565 2.97-1.696 4.112zM3.572 200.3c.832.81 1.861 1.216 3.088 1.216s2.256-.408 3.088-1.224c.832-.816 1.248-1.8 1.248-2.952s-.416-2.136-1.248-2.952c-.832-.816-1.861-1.224-3.088-1.224s-2.256.408-3.088 1.224c-.832.816-1.248 1.8-1.248 2.952s.416 2.139 1.248 2.96zm8.688-16.496H7.748c-.79 0-1.368.155-1.736.464-.368.31-.552.699-.552 1.168 0 .245.045.499.136.76.09.261.24.536.448.824.208.288.528.525.96.712.432.187.947.28 1.544.28h3.712v1.552h-8v-1.552h1.6a2.298 2.298 0 0 1-1.312-.976c-.31-.48-.464-1.05-.464-1.712 0-.917.304-1.659.912-2.224.608-.565 1.525-.848 2.752-.848h4.512v1.552zm-2.208-10.448l.896-.864c.992.885 1.488 2.053 1.488 3.504 0 1.355-.397 2.445-1.192 3.272-.795.827-1.779 1.24-2.952 1.24s-2.168-.41-2.984-1.232c-.816-.821-1.224-1.845-1.224-3.072 0-1.141.37-2.107 1.112-2.896.741-.79 1.81-1.184 3.208-1.184v6.832c.779.021 1.416-.248 1.912-.808s.744-1.283.744-2.168c0-.97-.336-1.845-1.008-2.624zm-4.608 2.816c0 1.312.587 2.192 1.76 2.64v-5.088c-1.173.352-1.76 1.168-1.76 2.448zm4.192-9.312l-.384-1.504c.48-.096.893-.384 1.24-.864s.52-1.056.52-1.728c0-.725-.16-1.301-.48-1.728-.32-.427-.73-.64-1.232-.64-.768 0-1.355.55-1.76 1.648l-.576 1.68c-.565 1.728-1.563 2.592-2.992 2.592-.928 0-1.675-.352-2.24-1.056-.565-.704-.848-1.552-.848-2.544 0-.981.243-1.795.728-2.44a3.16 3.16 0 0 1 1.928-1.224l.432 1.44c-1.099.267-1.648 1.008-1.648 2.224 0 .555.147 1.024.44 1.408.293.384.685.576 1.176.576.704 0 1.237-.485 1.6-1.456l.64-1.696c.277-.885.69-1.56 1.24-2.024.55-.464 1.139-.696 1.768-.696.992 0 1.781.357 2.368 1.072.587.715.88 1.659.88 2.832 0 1.077-.264 1.984-.792 2.72-.528.736-1.197 1.205-2.008 1.408zm2.624-10.032h-8v-1.552h8v1.552zm-9.808 0a1.041 1.041 0 0 1-.768.304c-.31 0-.568-.104-.776-.312a1.034 1.034 0 0 1-.312-.76c0-.299.104-.555.312-.768a1.04 1.04 0 0 1 .776-.32c.299 0 .552.104.76.312.208.208.312.467.312.776 0 .299-.101.555-.304.768zm9.808-9.824H7.748c-.79 0-1.368.155-1.736.464-.368.31-.552.699-.552 1.168 0 .245.045.499.136.76.09.261.24.536.448.824.208.288.528.525.96.712.432.187.947.28 1.544.28h3.712v1.552h-8v-1.552h1.6a2.298 2.298 0 0 1-1.312-.976c-.31-.48-.464-1.05-.464-1.712 0-.917.304-1.659.912-2.224.608-.565 1.525-.848 2.752-.848h4.512v1.552zm-8-11.728h7.936c1.259 0 2.21.4 2.856 1.2.645.8.968 1.792.968 2.976 0 1.333-.384 2.475-1.152 3.424l-1.216-.624c.672-.768 1.008-1.701 1.008-2.8 0-.8-.227-1.437-.68-1.912-.453-.475-1.096-.712-1.928-.712H10.98c.97.683 1.456 1.648 1.456 2.896 0 1.173-.403 2.128-1.208 2.864-.805.736-1.795 1.104-2.968 1.104s-2.163-.368-2.968-1.104c-.805-.736-1.208-1.69-1.208-2.864 0-1.248.485-2.213 1.456-2.896H4.26v-1.552zm4 1.52c-.81.01-1.48.27-2.008.776-.528.507-.792 1.16-.792 1.96s.27 1.435.808 1.904c.539.47 1.203.704 1.992.704.79 0 1.453-.235 1.992-.704.539-.47.808-1.104.808-1.904 0-.8-.264-1.453-.792-1.96-.528-.507-1.197-.765-2.008-.776zm-7.568-5.584H12.26v1.552H.692v-1.552zm9.36-9.056l.896-.864c.992.885 1.488 2.053 1.488 3.504 0 1.355-.397 2.445-1.192 3.272-.795.827-1.779 1.24-2.952 1.24s-2.168-.41-2.984-1.232c-.816-.821-1.224-1.845-1.224-3.072 0-1.141.37-2.107 1.112-2.896.741-.79 1.81-1.184 3.208-1.184v6.832c.779.021 1.416-.248 1.912-.808s.744-1.283.744-2.168c0-.97-.336-1.845-1.008-2.624zm-4.608 2.816c0 1.312.587 2.192 1.76 2.64v-5.088c-1.173.352-1.76 1.168-1.76 2.448zM1.06 115.9v-9.056h1.312v3.728h9.888v1.6H2.372v3.728H1.06zm3.2-12.128h1.808c-.619-.128-1.104-.39-1.456-.784a1.984 1.984 0 0 1-.528-1.36c0-.213.059-.459.176-.736h1.52a1.694 1.694 0 0 0-.208.848c0 .192.035.379.104.56.07.181.213.395.432.64s.597.445 1.136.6c.539.155 1.203.232 1.992.232h3.024v1.552h-8v-1.552zm6.976-4.816c-.81.736-1.803 1.104-2.976 1.104s-2.163-.368-2.968-1.104c-.805-.736-1.208-1.69-1.208-2.864 0-1.248.485-2.213 1.456-2.896H4.26v-1.552h8v1.552h-1.28c.97.683 1.456 1.648 1.456 2.896 0 1.173-.4 2.128-1.2 2.864zM8.26 93.164c-.81.01-1.48.27-2.008.776-.528.507-.792 1.16-.792 1.96s.27 1.435.808 1.904c.539.47 1.203.704 1.992.704.79 0 1.453-.235 1.992-.704.539-.47.808-1.104.808-1.904 0-.8-.264-1.453-.792-1.96-.528-.507-1.197-.765-2.008-.776zm4-9.744H7.748c-.79 0-1.368.155-1.736.464-.368.31-.552.699-.552 1.168 0 .245.045.499.136.76.09.261.24.536.448.824.208.288.528.525.96.712.432.187.947.28 1.544.28h3.712v1.552h-8v-1.552h1.6a2.298 2.298 0 0 1-1.312-.976c-.31-.48-.464-1.05-.464-1.712 0-.917.304-1.659.912-2.224.608-.565 1.525-.848 2.752-.848h4.512v1.552zm-6.272-8.88l.304 1.376c-.587.213-.88.63-.88 1.248 0 .352.096.637.288.856a.936.936 0 0 0 .736.328c.427 0 .747-.32.96-.96l.384-1.152c.395-1.28 1.147-1.92 2.256-1.92.736 0 1.32.277 1.752.832.432.555.648 1.237.648 2.048 0 .736-.184 1.39-.552 1.96-.368.57-.883.947-1.544 1.128l-.336-1.376c.32-.096.584-.307.792-.632.208-.325.312-.69.312-1.096 0-.395-.104-.723-.312-.984-.208-.261-.467-.392-.776-.392-.437 0-.773.336-1.008 1.008l-.368 1.072c-.395 1.312-1.12 1.968-2.176 1.968-.693 0-1.264-.245-1.712-.736-.448-.49-.672-1.125-.672-1.904 0-1.387.635-2.277 1.904-2.672zm5.248-2.592c-.81.736-1.803 1.104-2.976 1.104s-2.163-.368-2.968-1.104c-.805-.736-1.208-1.69-1.208-2.864 0-1.248.485-2.213 1.456-2.896H4.26v-1.552h8v1.552h-1.28c.97.683 1.456 1.648 1.456 2.896 0 1.173-.4 2.128-1.2 2.864zM8.26 66.156c-.81.01-1.48.27-2.008.776-.528.507-.792 1.16-.792 1.96s.27 1.435.808 1.904c.539.47 1.203.704 1.992.704.79 0 1.453-.235 1.992-.704.539-.47.808-1.104.808-1.904 0-.8-.264-1.453-.792-1.96-.528-.507-1.197-.765-2.008-.776zm.096-3.392c-1.227 0-2.245-.397-3.056-1.192-.81-.795-1.216-1.896-1.216-3.304 0-1.035.325-1.99.976-2.864l1.056.736c-.437.576-.656 1.264-.656 2.064 0 .864.261 1.581.784 2.152.523.57 1.195.856 2.016.856s1.493-.285 2.016-.856c.523-.57.784-1.288.784-2.152 0-.8-.219-1.488-.656-2.064l1.056-.736c.65.875.976 1.83.976 2.864 0 1.376-.387 2.47-1.16 3.28-.773.81-1.747 1.216-2.92 1.216zm-2.88-10.976h4.368c.416 0 .725-.088.928-.264a.877.877 0 0 0 .304-.696c0-.267-.077-.496-.232-.688-.155-.192-.37-.288-.648-.288-.256 0-.475.043-.656.128v-1.36a1.4 1.4 0 0 1 .36-.096c.144-.021.264-.032.36-.032l.144-.016c.597 0 1.085.208 1.464.624.379.416.568.997.568 1.744 0 .715-.213 1.31-.64 1.784-.427.475-1.115.712-2.064.712H5.476v1.312H4.26V53.34l-2.304-.352v-1.2H4.26v-2.544h1.216v2.544zm6.784-4.816h-8V45.42h8v1.552zm-9.808 0a1.041 1.041 0 0 1-.768.304c-.31 0-.568-.104-.776-.312a1.034 1.034 0 0 1-.312-.76c0-.299.104-.555.312-.768a1.04 1.04 0 0 1 .776-.32c.299 0 .552.104.76.312.208.208.312.467.312.776 0 .299-.101.555-.304.768zm8.768-4.688c-.821.821-1.808 1.232-2.96 1.232s-2.136-.41-2.952-1.232c-.816-.821-1.224-1.808-1.224-2.96 0-1.163.41-2.155 1.232-2.976.821-.821 1.803-1.232 2.944-1.232 1.152 0 2.136.41 2.952 1.232.816.821 1.224 1.813 1.224 2.976 0 1.152-.405 2.139-1.216 2.96zm-2.944-.32c.768 0 1.424-.259 1.968-.776s.816-1.139.816-1.864c0-.736-.272-1.363-.816-1.88-.544-.517-1.2-.776-1.968-.776-.779 0-1.443.259-1.992.776-.55.517-.824 1.144-.824 1.88 0 .725.275 1.347.824 1.864.55.517 1.213.776 1.992.776zM12.26 27.5H7.748c-.79 0-1.368.155-1.736.464-.368.31-.552.699-.552 1.168 0 .245.045.499.136.76.09.261.24.536.448.824.208.288.528.525.96.712.432.187.947.28 1.544.28h3.712v1.552h-8v-1.552h1.6a2.298 2.298 0 0 1-1.312-.976c-.31-.48-.464-1.05-.464-1.712 0-.917.304-1.659.912-2.224.608-.565 1.525-.848 2.752-.848h4.512V27.5z" fill="#0D0C44"/><path d="M32.5 4.5v224.891" stroke="#FF5527" stroke-linecap="square"/><path fill="#FF5527" d="M32.5 0L37 9h-9zM32.5 234l4.5-9h-9z"/></g></svg>