<svg width="513" height="468" viewBox="0 0 513 468" xmlns="http://www.w3.org/2000/svg"><title>browser window copy 3</title><defs><filter x="-20.8%" y="-17.6%" width="141.5%" height="145.9%" filterUnits="objectBoundingBox" id="a"><feOffset dy="20" in="SourceAlpha" result="shadowOffsetOuter1"/><feGaussianBlur stdDeviation="25" in="shadowOffsetOuter1" result="shadowBlurOuter1"/><feColorMatrix values="0 0 0 0 0 0 0 0 0 0 0 0 0 0 0 0 0 0 0.12 0" in="shadowBlurOuter1" result="shadowMatrixOuter1"/><feMerge><feMergeNode in="shadowMatrixOuter1"/><feMergeNode in="SourceGraphic"/></feMerge></filter></defs><g fill="none" fill-rule="evenodd"><g filter="url(#a)" transform="translate(50 29)"><path d="M0 1.11h406.434a7 7 0 0 1 7 7v361.774H0V1.11z" fill="#FFF"/><path d="M7 .546h399.434a7 7 0 0 1 7 7v19H0v-19a7 7 0 0 1 7-7z" fill="#4A4A4A"/><g transform="translate(10 9.546)" fill="#E6EAED"><circle cx="4" cy="4" r="4"/><circle cx="18" cy="4" r="4"/><circle cx="32" cy="4" r="4"/></g><path d="M.283 26.046h413.343" stroke="#E6E6E6" stroke-linecap="square"/></g><g fill-rule="nonzero"><path d="M244.333 333H97.667c-3.682 0-6.667-2.98-6.667-6.657V126.657c0-3.676 2.985-6.657 6.667-6.657h146.666c3.682 0 6.667 2.98 6.667 6.657v199.687c0 3.676-2.985 6.656-6.667 6.656z" fill="#F6F6F6"/><path d="M197.3 146.7h-20.1c0-3.7-2.997-6.7-6.7-6.7-3.704 0-6.7 3-6.7 6.7h-20.1c-3.703 0-6.7 3-6.7 6.7s2.996 6.7 6.7 6.7h32.663a48.158 48.158 0 0 1-5.751 14.958c-.847-1.426-1.78-2.775-2.487-4.324a6.692 6.692 0 0 0-8.88-3.313 6.702 6.702 0 0 0-3.317 8.875 58.444 58.444 0 0 0 5.569 9.65c-3.629 3.113-8.08 5.928-13.584 8.13a6.704 6.704 0 0 0-3.736 8.71A6.706 6.706 0 0 0 150.4 207c.831 0 1.675-.157 2.486-.48 7.194-2.877 12.988-6.574 17.7-10.662 5.059 4.394 10.906 8.012 17.527 10.66a6.676 6.676 0 0 0 2.486.483 6.708 6.708 0 0 0 6.223-4.213 6.7 6.7 0 0 0-3.736-8.708c-5.18-2.073-9.617-4.884-13.498-8.214 6.73-9.527 9.386-19.425 10.384-25.765h7.328c3.703 0 6.7-3 6.7-6.7a6.7 6.7 0 0 0-6.7-6.7z" fill="gray"/><path d="M171.299 247H117.7c-3.7 0-6.7-2.91-6.7-6.5s3-6.5 6.7-6.5h53.6c3.7 0 6.7 2.91 6.7 6.5s-3.001 6.5-6.701 6.5z" fill="#CCC"/><path d="M224.333 247h-26.666c-3.682 0-6.667-2.91-6.667-6.5s2.985-6.5 6.667-6.5h26.666c3.682 0 6.667 2.91 6.667 6.5s-2.985 6.5-6.667 6.5z" fill="#999"/><g fill="#999"><path d="M224.09 300.686h-26.704c-3.687 0-6.676-3.002-6.676-6.703 0-3.701 2.99-6.703 6.676-6.703h26.703c3.687 0 6.677 3.002 6.677 6.703 0 3.702-2.99 6.703-6.677 6.703zM143.98 273.876h-26.704c-3.687 0-6.676-3.001-6.676-6.703 0-3.7 2.99-6.702 6.676-6.702h26.703c3.687 0 6.676 3.001 6.676 6.702 0 3.702-2.99 6.703-6.676 6.703z"/></g><path d="M224.3 273h-53.6c-3.7 0-6.7-2.91-6.7-6.5s3-6.5 6.7-6.5h53.6c3.7 0 6.7 2.91 6.7 6.5s-3 6.5-6.7 6.5zM171.299 300H117.7c-3.7 0-6.7-2.91-6.7-6.5s3-6.5 6.7-6.5h53.6c3.7 0 6.7 2.91 6.7 6.5s-3.001 6.5-6.701 6.5z" fill="#CCC"/></g><g fill-rule="nonzero"><path d="M417.333 333H270.667c-3.682 0-6.667-2.98-6.667-6.657V126.657c0-3.676 2.985-6.657 6.667-6.657h146.666c3.682 0 6.667 2.98 6.667 6.657v199.687c0 3.676-2.985 6.656-6.667 6.656z" fill="#F15A29"/><path d="M344.7 287h53.6c3.7 0 6.7 2.91 6.7 6.5s-3 6.5-6.7 6.5h-53.6c-3.7 0-6.7-2.91-6.7-6.5s3-6.5 6.7-6.5z" fill="#FFF" opacity=".603"/><path d="M290.667 287h26.666c3.682 0 6.667 2.91 6.667 6.5s-2.985 6.5-6.667 6.5h-26.666c-3.682 0-6.667-2.91-6.667-6.5s2.985-6.5 6.667-6.5z" fill="#FFC534"/><path d="M344.7 234h53.6c3.7 0 6.7 2.91 6.7 6.5s-3 6.5-6.7 6.5h-53.6c-3.7 0-6.7-2.91-6.7-6.5s3-6.5 6.7-6.5z" fill="#FFF" opacity=".603"/><g fill="#FFC534"><path d="M290.91 233.235h26.704c3.687 0 6.676 3.002 6.676 6.703 0 3.702-2.99 6.703-6.676 6.703H290.91c-3.687 0-6.677-3.001-6.677-6.703 0-3.701 2.99-6.703 6.677-6.703zM371.02 260.046h26.704c3.687 0 6.676 3 6.676 6.702s-2.99 6.703-6.676 6.703h-26.703c-3.687 0-6.676-3.001-6.676-6.703 0-3.702 2.99-6.702 6.676-6.702z"/></g><g fill="#FFF"><path d="M290.927 260.164h53.535c3.696 0 6.693 2.976 6.693 6.646s-2.997 6.646-6.693 6.646h-53.535c-3.695 0-6.692-2.976-6.692-6.646s2.997-6.646 6.692-6.646z" opacity=".603"/><path d="M377.496 198.021l-17.731-46.953c-2.377-6.294-8.52-10.522-15.317-10.522-6.768 0-12.912 4.228-15.289 10.521l-17.73 46.954c-1.298 3.437.455 7.268 3.915 8.557 3.46 1.29 7.319-.452 8.617-3.89l3.39-8.978h34.222l3.39 8.979c1.008 2.668 3.557 4.313 6.267 4.313.78 0 1.575-.137 2.349-.424 3.461-1.29 5.214-5.12 3.917-8.557zm-45.126-17.603l9.321-24.684c.429-1.135 1.537-1.897 2.785-1.897 1.22 0 2.329.762 2.757 1.897l9.321 24.684H332.37z"/></g></g></g></svg>