<svg width="659" height="364" viewBox="0 0 659 364" xmlns="http://www.w3.org/2000/svg"><g fill="none" fill-rule="evenodd"><path d="M228.5 84.5l-61.502 61.502M117.502 243L87 304.502M476.502 243L446 304.502M182 243l30.502 61.502M541 243l30.502 61.502M429.5 84.5l61.502 61.502" stroke="#FF5527" stroke-width="2" stroke-linecap="square" stroke-dasharray="10"/><g transform="translate(239 1)"><rect stroke="#F15A29" stroke-width="2" fill="#FFF" width="180" height="80" rx="10"/><path d="M66.372 43l-6.144-8.288V43h-1.6V31.8h1.184l6.128 8.256V31.8h1.616V43h-1.184zm4.496-1.024c-.736-.81-1.104-1.803-1.104-2.976s.368-2.163 1.104-2.968c.736-.805 1.69-1.208 2.864-1.208 1.248 0 2.213.485 2.896 1.456V35h1.552v8h-1.552v-1.28c-.683.97-1.648 1.456-2.896 1.456-1.173 0-2.128-.4-2.864-1.2zM76.66 39c-.01-.81-.27-1.48-.776-2.008-.507-.528-1.16-.792-1.96-.792s-1.435.27-1.904.808c-.47.539-.704 1.203-.704 1.992 0 .79.235 1.453.704 1.992.47.539 1.104.808 1.904.808.8 0 1.453-.264 1.96-.792.507-.528.765-1.197.776-2.008zm5.92-2.784v4.368c0 .416.088.725.264.928a.877.877 0 0 0 .696.304c.267 0 .496-.077.688-.232.192-.155.288-.37.288-.648 0-.256-.043-.475-.128-.656h1.36a1.4 1.4 0 0 1 .096.36c.021.144.032.264.032.36l.016.144c0 .597-.208 1.085-.624 1.464-.416.379-.997.568-1.744.568-.715 0-1.31-.213-1.784-.64-.475-.427-.712-1.115-.712-2.064v-4.256h-1.312V35h1.312l.352-2.304h1.2V35h2.544v1.216H82.58zM87.396 43v-8h1.552v8h-1.552zm0-9.808a1.041 1.041 0 0 1-.304-.768c0-.31.104-.568.312-.776.208-.208.461-.312.76-.312s.555.104.768.312c.213.208.32.467.32.776 0 .299-.104.552-.312.76a1.053 1.053 0 0 1-.776.312c-.299 0-.555-.101-.768-.304zm4.688 8.768c-.821-.821-1.232-1.808-1.232-2.96s.41-2.136 1.232-2.952c.821-.816 1.808-1.224 2.96-1.224 1.163 0 2.155.41 2.976 1.232.821.821 1.232 1.803 1.232 2.944 0 1.152-.41 2.136-1.232 2.952-.821.816-1.813 1.224-2.976 1.224-1.152 0-2.139-.405-2.96-1.216zm.32-2.944c0 .768.259 1.424.776 1.968s1.139.816 1.864.816c.736 0 1.363-.272 1.88-.816.517-.544.776-1.2.776-1.968 0-.779-.259-1.443-.776-1.992-.517-.55-1.144-.824-1.88-.824-.725 0-1.347.275-1.864.824-.517.55-.776 1.213-.776 1.992zM106.868 43v-4.512c0-.79-.155-1.368-.464-1.736a1.462 1.462 0 0 0-1.168-.552c-.245 0-.499.045-.76.136a3.25 3.25 0 0 0-.824.448c-.288.208-.525.528-.712.96-.187.432-.28.947-.28 1.544V43h-1.552v-8h1.552v1.6c.17-.565.496-1.003.976-1.312.48-.31 1.05-.464 1.712-.464.917 0 1.659.304 2.224.912.565.608.848 1.525.848 2.752V43h-1.552zm4.416-1.024c-.736-.81-1.104-1.803-1.104-2.976s.368-2.163 1.104-2.968c.736-.805 1.69-1.208 2.864-1.208 1.248 0 2.213.485 2.896 1.456V35h1.552v8h-1.552v-1.28c-.683.97-1.648 1.456-2.896 1.456-1.173 0-2.128-.4-2.864-1.2zM117.076 39c-.01-.81-.27-1.48-.776-2.008-.507-.528-1.16-.792-1.96-.792s-1.435.27-1.904.808c-.47.539-.704 1.203-.704 1.992 0 .79.235 1.453.704 1.992.47.539 1.104.808 1.904.808.8 0 1.453-.264 1.96-.792.507-.528.765-1.197.776-2.008zm5.584-7.568V43h-1.552V31.432h1.552z" fill="#0D0C44"/></g><g transform="translate(59 156)"><rect stroke="#F15A29" stroke-width="2" fill="#FFF" width="180" height="80" rx="10"/><path d="M59.356 43h-1.6V31.8h4.672c1.035 0 1.856.341 2.464 1.024.608.683.912 1.515.912 2.496 0 .853-.235 1.59-.704 2.208-.47.619-1.115 1.008-1.936 1.168.064.725.293 1.427.688 2.104.395.677.875 1.016 1.44 1.016.512 0 .95-.17 1.312-.512l.56 1.088c-.512.523-1.168.784-1.968.784a2.81 2.81 0 0 1-1.368-.336 3.107 3.107 0 0 1-.992-.824 5.18 5.18 0 0 1-.648-1.12 6.853 6.853 0 0 1-.392-1.152 6.323 6.323 0 0 1-.152-.984h-2.288V43zm0-5.52h2.736c.63 0 1.128-.2 1.496-.6.368-.4.552-.925.552-1.576 0-.65-.184-1.179-.552-1.584-.368-.405-.867-.608-1.496-.608h-2.736v4.368zm15.584 3.312l.864.896c-.885.992-2.053 1.488-3.504 1.488-1.355 0-2.445-.397-3.272-1.192-.827-.795-1.24-1.779-1.24-2.952s.41-2.168 1.232-2.984c.821-.816 1.845-1.224 3.072-1.224 1.141 0 2.107.37 2.896 1.112.79.741 1.184 1.81 1.184 3.208H69.34c-.021.779.248 1.416.808 1.912s1.283.744 2.168.744c.97 0 1.845-.336 2.624-1.008zm-2.816-4.608c-1.312 0-2.192.587-2.64 1.76h5.088c-.352-1.173-1.168-1.76-2.448-1.76zM85.74 35v7.936c0 1.259-.4 2.21-1.2 2.856-.8.645-1.792.968-2.976.968-1.333 0-2.475-.384-3.424-1.152l.624-1.216c.768.672 1.701 1.008 2.8 1.008.8 0 1.437-.227 1.912-.68.475-.453.712-1.096.712-1.928V41.72c-.683.97-1.648 1.456-2.896 1.456-1.173 0-2.128-.403-2.864-1.208-.736-.805-1.104-1.795-1.104-2.968s.368-2.163 1.104-2.968c.736-.805 1.69-1.208 2.864-1.208 1.248 0 2.213.485 2.896 1.456V35h1.552zm-1.52 4c-.01-.81-.27-1.48-.776-2.008-.507-.528-1.16-.792-1.96-.792s-1.435.27-1.904.808c-.47.539-.704 1.203-.704 1.992 0 .79.235 1.453.704 1.992.47.539 1.104.808 1.904.808.8 0 1.453-.264 1.96-.792.507-.528.765-1.197.776-2.008zm4.032 4v-8h1.552v8h-1.552zm0-9.808a1.041 1.041 0 0 1-.304-.768c0-.31.104-.568.312-.776.208-.208.461-.312.76-.312s.555.104.768.312c.213.208.32.467.32.776 0 .299-.104.552-.312.76a1.053 1.053 0 0 1-.776.312c-.299 0-.555-.101-.768-.304zm4.688 8.768c-.821-.821-1.232-1.808-1.232-2.96s.41-2.136 1.232-2.952c.821-.816 1.808-1.224 2.96-1.224 1.163 0 2.155.41 2.976 1.232.821.821 1.232 1.803 1.232 2.944 0 1.152-.41 2.136-1.232 2.952-.821.816-1.813 1.224-2.976 1.224-1.152 0-2.139-.405-2.96-1.216zm.32-2.944c0 .768.259 1.424.776 1.968s1.139.816 1.864.816c.736 0 1.363-.272 1.88-.816.517-.544.776-1.2.776-1.968 0-.779-.259-1.443-.776-1.992-.517-.55-1.144-.824-1.88-.824-.725 0-1.347.275-1.864.824-.517.55-.776 1.213-.776 1.992zM107.724 43v-4.512c0-.79-.155-1.368-.464-1.736a1.462 1.462 0 0 0-1.168-.552c-.245 0-.499.045-.76.136a3.25 3.25 0 0 0-.824.448c-.288.208-.525.528-.712.96-.187.432-.28.947-.28 1.544V43h-1.552v-8h1.552v1.6c.17-.565.496-1.003.976-1.312.48-.31 1.05-.464 1.712-.464.917 0 1.659.304 2.224.912.565.608.848 1.525.848 2.752V43h-1.552zm4.416-1.024c-.736-.81-1.104-1.803-1.104-2.976s.368-2.163 1.104-2.968c.736-.805 1.69-1.208 2.864-1.208 1.248 0 2.213.485 2.896 1.456V35h1.552v8H117.9v-1.28c-.683.97-1.648 1.456-2.896 1.456-1.173 0-2.128-.4-2.864-1.2zM117.932 39c-.01-.81-.27-1.48-.776-2.008-.507-.528-1.16-.792-1.96-.792s-1.435.27-1.904.808c-.47.539-.704 1.203-.704 1.992 0 .79.235 1.453.704 1.992.47.539 1.104.808 1.904.808.8 0 1.453-.264 1.96-.792.507-.528.765-1.197.776-2.008zm5.584-7.568V43h-1.552V31.432h1.552z" fill="#0D0C44"/></g><g transform="translate(1 311)"><rect stroke="#F15A29" stroke-width="2" fill="#FFF" width="117" height="52" rx="10"/><path d="M46.776 27.688V29h-6.72V17.8h1.6v9.888h5.12zm2.096.272c-.821-.821-1.232-1.808-1.232-2.96s.41-2.136 1.232-2.952c.821-.816 1.808-1.224 2.96-1.224 1.163 0 2.155.41 2.976 1.232.821.821 1.232 1.803 1.232 2.944 0 1.152-.41 2.136-1.232 2.952-.821.816-1.813 1.224-2.976 1.224-1.152 0-2.139-.405-2.96-1.216zm.32-2.944c0 .768.259 1.424.776 1.968s1.139.816 1.864.816c.736 0 1.363-.272 1.88-.816.517-.544.776-1.2.776-1.968 0-.779-.259-1.443-.776-1.992-.517-.55-1.144-.824-1.88-.824-.725 0-1.347.275-1.864.824-.517.55-.776 1.213-.776 1.992zm8.112.08c0-1.227.397-2.245 1.192-3.056.795-.81 1.896-1.216 3.304-1.216 1.035 0 1.99.325 2.864.976l-.736 1.056c-.576-.437-1.264-.656-2.064-.656-.864 0-1.581.261-2.152.784-.57.523-.856 1.195-.856 2.016s.285 1.493.856 2.016c.57.523 1.288.784 2.152.784.8 0 1.488-.219 2.064-.656l.736 1.056c-.875.65-1.83.976-2.864.976-1.376 0-2.47-.387-3.28-1.16-.81-.773-1.216-1.747-1.216-2.92zm9.552 2.88c-.736-.81-1.104-1.803-1.104-2.976s.368-2.163 1.104-2.968c.736-.805 1.69-1.208 2.864-1.208 1.248 0 2.213.485 2.896 1.456V21h1.552v8h-1.552v-1.28c-.683.97-1.648 1.456-2.896 1.456-1.173 0-2.128-.4-2.864-1.2zM72.648 25c-.01-.81-.27-1.48-.776-2.008-.507-.528-1.16-.792-1.96-.792s-1.435.27-1.904.808c-.47.539-.704 1.203-.704 1.992 0 .79.235 1.453.704 1.992.47.539 1.104.808 1.904.808.8 0 1.453-.264 1.96-.792.507-.528.765-1.197.776-2.008zm5.584-7.568V29H76.68V17.432h1.552z" fill="#0D0C44"/></g><g transform="translate(361 311)"><rect stroke="#F15A29" stroke-width="2" fill="#FFF" width="117" height="52" rx="10"/><path d="M46.776 27.688V29h-6.72V17.8h1.6v9.888h5.12zm2.096.272c-.821-.821-1.232-1.808-1.232-2.96s.41-2.136 1.232-2.952c.821-.816 1.808-1.224 2.96-1.224 1.163 0 2.155.41 2.976 1.232.821.821 1.232 1.803 1.232 2.944 0 1.152-.41 2.136-1.232 2.952-.821.816-1.813 1.224-2.976 1.224-1.152 0-2.139-.405-2.96-1.216zm.32-2.944c0 .768.259 1.424.776 1.968s1.139.816 1.864.816c.736 0 1.363-.272 1.88-.816.517-.544.776-1.2.776-1.968 0-.779-.259-1.443-.776-1.992-.517-.55-1.144-.824-1.88-.824-.725 0-1.347.275-1.864.824-.517.55-.776 1.213-.776 1.992zm8.112.08c0-1.227.397-2.245 1.192-3.056.795-.81 1.896-1.216 3.304-1.216 1.035 0 1.99.325 2.864.976l-.736 1.056c-.576-.437-1.264-.656-2.064-.656-.864 0-1.581.261-2.152.784-.57.523-.856 1.195-.856 2.016s.285 1.493.856 2.016c.57.523 1.288.784 2.152.784.8 0 1.488-.219 2.064-.656l.736 1.056c-.875.65-1.83.976-2.864.976-1.376 0-2.47-.387-3.28-1.16-.81-.773-1.216-1.747-1.216-2.92zm9.552 2.88c-.736-.81-1.104-1.803-1.104-2.976s.368-2.163 1.104-2.968c.736-.805 1.69-1.208 2.864-1.208 1.248 0 2.213.485 2.896 1.456V21h1.552v8h-1.552v-1.28c-.683.97-1.648 1.456-2.896 1.456-1.173 0-2.128-.4-2.864-1.2zM72.648 25c-.01-.81-.27-1.48-.776-2.008-.507-.528-1.16-.792-1.96-.792s-1.435.27-1.904.808c-.47.539-.704 1.203-.704 1.992 0 .79.235 1.453.704 1.992.47.539 1.104.808 1.904.808.8 0 1.453-.264 1.96-.792.507-.528.765-1.197.776-2.008zm5.584-7.568V29H76.68V17.432h1.552z" fill="#0D0C44"/></g><g transform="translate(181 311)"><rect stroke="#F15A29" stroke-width="2" fill="#FFF" width="117" height="52" rx="10"/><path d="M46.776 27.688V29h-6.72V17.8h1.6v9.888h5.12zm2.096.272c-.821-.821-1.232-1.808-1.232-2.96s.41-2.136 1.232-2.952c.821-.816 1.808-1.224 2.96-1.224 1.163 0 2.155.41 2.976 1.232.821.821 1.232 1.803 1.232 2.944 0 1.152-.41 2.136-1.232 2.952-.821.816-1.813 1.224-2.976 1.224-1.152 0-2.139-.405-2.96-1.216zm.32-2.944c0 .768.259 1.424.776 1.968s1.139.816 1.864.816c.736 0 1.363-.272 1.88-.816.517-.544.776-1.2.776-1.968 0-.779-.259-1.443-.776-1.992-.517-.55-1.144-.824-1.88-.824-.725 0-1.347.275-1.864.824-.517.55-.776 1.213-.776 1.992zm8.112.08c0-1.227.397-2.245 1.192-3.056.795-.81 1.896-1.216 3.304-1.216 1.035 0 1.99.325 2.864.976l-.736 1.056c-.576-.437-1.264-.656-2.064-.656-.864 0-1.581.261-2.152.784-.57.523-.856 1.195-.856 2.016s.285 1.493.856 2.016c.57.523 1.288.784 2.152.784.8 0 1.488-.219 2.064-.656l.736 1.056c-.875.65-1.83.976-2.864.976-1.376 0-2.47-.387-3.28-1.16-.81-.773-1.216-1.747-1.216-2.92zm9.552 2.88c-.736-.81-1.104-1.803-1.104-2.976s.368-2.163 1.104-2.968c.736-.805 1.69-1.208 2.864-1.208 1.248 0 2.213.485 2.896 1.456V21h1.552v8h-1.552v-1.28c-.683.97-1.648 1.456-2.896 1.456-1.173 0-2.128-.4-2.864-1.2zM72.648 25c-.01-.81-.27-1.48-.776-2.008-.507-.528-1.16-.792-1.96-.792s-1.435.27-1.904.808c-.47.539-.704 1.203-.704 1.992 0 .79.235 1.453.704 1.992.47.539 1.104.808 1.904.808.8 0 1.453-.264 1.96-.792.507-.528.765-1.197.776-2.008zm5.584-7.568V29H76.68V17.432h1.552z" fill="#0D0C44"/></g><g transform="translate(541 311)"><rect stroke="#F15A29" stroke-width="2" fill="#FFF" width="117" height="52" rx="10"/><path d="M46.776 27.688V29h-6.72V17.8h1.6v9.888h5.12zm2.096.272c-.821-.821-1.232-1.808-1.232-2.96s.41-2.136 1.232-2.952c.821-.816 1.808-1.224 2.96-1.224 1.163 0 2.155.41 2.976 1.232.821.821 1.232 1.803 1.232 2.944 0 1.152-.41 2.136-1.232 2.952-.821.816-1.813 1.224-2.976 1.224-1.152 0-2.139-.405-2.96-1.216zm.32-2.944c0 .768.259 1.424.776 1.968s1.139.816 1.864.816c.736 0 1.363-.272 1.88-.816.517-.544.776-1.2.776-1.968 0-.779-.259-1.443-.776-1.992-.517-.55-1.144-.824-1.88-.824-.725 0-1.347.275-1.864.824-.517.55-.776 1.213-.776 1.992zm8.112.08c0-1.227.397-2.245 1.192-3.056.795-.81 1.896-1.216 3.304-1.216 1.035 0 1.99.325 2.864.976l-.736 1.056c-.576-.437-1.264-.656-2.064-.656-.864 0-1.581.261-2.152.784-.57.523-.856 1.195-.856 2.016s.285 1.493.856 2.016c.57.523 1.288.784 2.152.784.8 0 1.488-.219 2.064-.656l.736 1.056c-.875.65-1.83.976-2.864.976-1.376 0-2.47-.387-3.28-1.16-.81-.773-1.216-1.747-1.216-2.92zm9.552 2.88c-.736-.81-1.104-1.803-1.104-2.976s.368-2.163 1.104-2.968c.736-.805 1.69-1.208 2.864-1.208 1.248 0 2.213.485 2.896 1.456V21h1.552v8h-1.552v-1.28c-.683.97-1.648 1.456-2.896 1.456-1.173 0-2.128-.4-2.864-1.2zM72.648 25c-.01-.81-.27-1.48-.776-2.008-.507-.528-1.16-.792-1.96-.792s-1.435.27-1.904.808c-.47.539-.704 1.203-.704 1.992 0 .79.235 1.453.704 1.992.47.539 1.104.808 1.904.808.8 0 1.453-.264 1.96-.792.507-.528.765-1.197.776-2.008zm5.584-7.568V29H76.68V17.432h1.552z" fill="#0D0C44"/></g><g transform="translate(419 156)"><rect stroke="#F15A29" stroke-width="2" fill="#FFF" width="180" height="80" rx="10"/><path d="M59.356 43h-1.6V31.8h4.672c1.035 0 1.856.341 2.464 1.024.608.683.912 1.515.912 2.496 0 .853-.235 1.59-.704 2.208-.47.619-1.115 1.008-1.936 1.168.064.725.293 1.427.688 2.104.395.677.875 1.016 1.44 1.016.512 0 .95-.17 1.312-.512l.56 1.088c-.512.523-1.168.784-1.968.784a2.81 2.81 0 0 1-1.368-.336 3.107 3.107 0 0 1-.992-.824 5.18 5.18 0 0 1-.648-1.12 6.853 6.853 0 0 1-.392-1.152 6.323 6.323 0 0 1-.152-.984h-2.288V43zm0-5.52h2.736c.63 0 1.128-.2 1.496-.6.368-.4.552-.925.552-1.576 0-.65-.184-1.179-.552-1.584-.368-.405-.867-.608-1.496-.608h-2.736v4.368zm15.584 3.312l.864.896c-.885.992-2.053 1.488-3.504 1.488-1.355 0-2.445-.397-3.272-1.192-.827-.795-1.24-1.779-1.24-2.952s.41-2.168 1.232-2.984c.821-.816 1.845-1.224 3.072-1.224 1.141 0 2.107.37 2.896 1.112.79.741 1.184 1.81 1.184 3.208H69.34c-.021.779.248 1.416.808 1.912s1.283.744 2.168.744c.97 0 1.845-.336 2.624-1.008zm-2.816-4.608c-1.312 0-2.192.587-2.64 1.76h5.088c-.352-1.173-1.168-1.76-2.448-1.76zM85.74 35v7.936c0 1.259-.4 2.21-1.2 2.856-.8.645-1.792.968-2.976.968-1.333 0-2.475-.384-3.424-1.152l.624-1.216c.768.672 1.701 1.008 2.8 1.008.8 0 1.437-.227 1.912-.68.475-.453.712-1.096.712-1.928V41.72c-.683.97-1.648 1.456-2.896 1.456-1.173 0-2.128-.403-2.864-1.208-.736-.805-1.104-1.795-1.104-2.968s.368-2.163 1.104-2.968c.736-.805 1.69-1.208 2.864-1.208 1.248 0 2.213.485 2.896 1.456V35h1.552zm-1.52 4c-.01-.81-.27-1.48-.776-2.008-.507-.528-1.16-.792-1.96-.792s-1.435.27-1.904.808c-.47.539-.704 1.203-.704 1.992 0 .79.235 1.453.704 1.992.47.539 1.104.808 1.904.808.8 0 1.453-.264 1.96-.792.507-.528.765-1.197.776-2.008zm4.032 4v-8h1.552v8h-1.552zm0-9.808a1.041 1.041 0 0 1-.304-.768c0-.31.104-.568.312-.776.208-.208.461-.312.76-.312s.555.104.768.312c.213.208.32.467.32.776 0 .299-.104.552-.312.76a1.053 1.053 0 0 1-.776.312c-.299 0-.555-.101-.768-.304zm4.688 8.768c-.821-.821-1.232-1.808-1.232-2.96s.41-2.136 1.232-2.952c.821-.816 1.808-1.224 2.96-1.224 1.163 0 2.155.41 2.976 1.232.821.821 1.232 1.803 1.232 2.944 0 1.152-.41 2.136-1.232 2.952-.821.816-1.813 1.224-2.976 1.224-1.152 0-2.139-.405-2.96-1.216zm.32-2.944c0 .768.259 1.424.776 1.968s1.139.816 1.864.816c.736 0 1.363-.272 1.88-.816.517-.544.776-1.2.776-1.968 0-.779-.259-1.443-.776-1.992-.517-.55-1.144-.824-1.88-.824-.725 0-1.347.275-1.864.824-.517.55-.776 1.213-.776 1.992zM107.724 43v-4.512c0-.79-.155-1.368-.464-1.736a1.462 1.462 0 0 0-1.168-.552c-.245 0-.499.045-.76.136a3.25 3.25 0 0 0-.824.448c-.288.208-.525.528-.712.96-.187.432-.28.947-.28 1.544V43h-1.552v-8h1.552v1.6c.17-.565.496-1.003.976-1.312.48-.31 1.05-.464 1.712-.464.917 0 1.659.304 2.224.912.565.608.848 1.525.848 2.752V43h-1.552zm4.416-1.024c-.736-.81-1.104-1.803-1.104-2.976s.368-2.163 1.104-2.968c.736-.805 1.69-1.208 2.864-1.208 1.248 0 2.213.485 2.896 1.456V35h1.552v8H117.9v-1.28c-.683.97-1.648 1.456-2.896 1.456-1.173 0-2.128-.4-2.864-1.2zM117.932 39c-.01-.81-.27-1.48-.776-2.008-.507-.528-1.16-.792-1.96-.792s-1.435.27-1.904.808c-.47.539-.704 1.203-.704 1.992 0 .79.235 1.453.704 1.992.47.539 1.104.808 1.904.808.8 0 1.453-.264 1.96-.792.507-.528.765-1.197.776-2.008zm5.584-7.568V43h-1.552V31.432h1.552z" fill="#0D0C44"/></g></g></svg>