<svg width="464" height="319" viewBox="0 0 464 319" xmlns="http://www.w3.org/2000/svg" xmlns:xlink="http://www.w3.org/1999/xlink"><defs><path d="M235.614 2.208l230.06 314.611A2 2 0 0 1 464.06 320H3.94a2 2 0 0 1-1.614-3.18L232.386 2.207a2 2 0 0 1 3.228 0z" id="a"/><mask id="b" x="0" y="0" width="468" height="320" fill="#fff"><use xlink:href="#a"/></mask></defs><g transform="translate(-2)" fill="none" fill-rule="evenodd"><use stroke="#CCC" mask="url(#b)" stroke-width="2" stroke-linecap="square" stroke-dasharray="10" transform="matrix(1 0 0 -1 0 320)" xlink:href="#a"/><path d="M188.588 37l-6.144-8.288V37h-1.6V25.8h1.184l6.128 8.256V25.8h1.616V37h-1.184zm4.496-1.024c-.736-.81-1.104-1.803-1.104-2.976s.368-2.163 1.104-2.968c.736-.805 1.69-1.208 2.864-1.208 1.248 0 2.213.485 2.896 1.456V29h1.552v8h-1.552v-1.28c-.683.97-1.648 1.456-2.896 1.456-1.173 0-2.128-.4-2.864-1.2zM198.876 33c-.01-.81-.27-1.48-.776-2.008-.507-.528-1.16-.792-1.96-.792s-1.435.27-1.904.808c-.47.539-.704 1.203-.704 1.992 0 .79.235 1.453.704 1.992.47.539 1.104.808 1.904.808.8 0 1.453-.264 1.96-.792.507-.528.765-1.197.776-2.008zm5.92-2.784v4.368c0 .416.088.725.264.928a.877.877 0 0 0 .696.304c.267 0 .496-.077.688-.232.192-.155.288-.37.288-.648 0-.256-.043-.475-.128-.656h1.36a1.4 1.4 0 0 1 .096.36c.021.144.032.264.032.36l.016.144c0 .597-.208 1.085-.624 1.464-.416.379-.997.568-1.744.568-.715 0-1.31-.213-1.784-.64-.475-.427-.712-1.115-.712-2.064v-4.256h-1.312V29h1.312l.352-2.304h1.2V29h2.544v1.216h-2.544zM209.612 37v-8h1.552v8h-1.552zm0-9.808a1.041 1.041 0 0 1-.304-.768c0-.31.104-.568.312-.776.208-.208.461-.312.76-.312s.555.104.768.312c.213.208.32.467.32.776 0 .299-.104.552-.312.76a1.053 1.053 0 0 1-.776.312c-.299 0-.555-.101-.768-.304zm4.688 8.768c-.821-.821-1.232-1.808-1.232-2.96s.41-2.136 1.232-2.952c.821-.816 1.808-1.224 2.96-1.224 1.163 0 2.155.41 2.976 1.232.821.821 1.232 1.803 1.232 2.944 0 1.152-.41 2.136-1.232 2.952-.821.816-1.813 1.224-2.976 1.224-1.152 0-2.139-.405-2.96-1.216zm.32-2.944c0 .768.259 1.424.776 1.968s1.139.816 1.864.816c.736 0 1.363-.272 1.88-.816.517-.544.776-1.2.776-1.968 0-.779-.259-1.443-.776-1.992-.517-.55-1.144-.824-1.88-.824-.725 0-1.347.275-1.864.824-.517.55-.776 1.213-.776 1.992zM229.084 37v-4.512c0-.79-.155-1.368-.464-1.736a1.462 1.462 0 0 0-1.168-.552c-.245 0-.499.045-.76.136a3.25 3.25 0 0 0-.824.448c-.288.208-.525.528-.712.96-.187.432-.28.947-.28 1.544V37h-1.552v-8h1.552v1.6c.17-.565.496-1.003.976-1.312.48-.31 1.05-.464 1.712-.464.917 0 1.659.304 2.224.912.565.608.848 1.525.848 2.752V37h-1.552zm4.416-1.024c-.736-.81-1.104-1.803-1.104-2.976s.368-2.163 1.104-2.968c.736-.805 1.69-1.208 2.864-1.208 1.248 0 2.213.485 2.896 1.456V29h1.552v8h-1.552v-1.28c-.683.97-1.648 1.456-2.896 1.456-1.173 0-2.128-.4-2.864-1.2zM239.292 33c-.01-.81-.27-1.48-.776-2.008-.507-.528-1.16-.792-1.96-.792s-1.435.27-1.904.808c-.47.539-.704 1.203-.704 1.992 0 .79.235 1.453.704 1.992.47.539 1.104.808 1.904.808.8 0 1.453-.264 1.96-.792.507-.528.765-1.197.776-2.008zm5.584-7.568V37h-1.552V25.432h1.552zm14.752 3.248c0 .619-.181 1.16-.544 1.624-.363.464-.896.787-1.6.968.864.085 1.528.384 1.992.896.464.512.696 1.13.696 1.856 0 .896-.344 1.616-1.032 2.16-.688.544-1.587.816-2.696.816h-4.496V25.8h3.984c1.088 0 1.976.259 2.664.776.688.517 1.032 1.219 1.032 2.104zm-4 3.312h-2.08v3.696h2.896c.608 0 1.107-.157 1.496-.472.39-.315.584-.728.584-1.24 0-.565-.243-1.037-.728-1.416s-1.208-.568-2.168-.568zm-2.08-1.248h1.744c.907 0 1.581-.19 2.024-.568.443-.379.664-.84.664-1.384 0-.523-.197-.933-.592-1.232-.395-.299-.88-.448-1.456-.448h-2.384v3.632zm9.216 5.216c-.821-.821-1.232-1.808-1.232-2.96s.41-2.136 1.232-2.952c.821-.816 1.808-1.224 2.96-1.224 1.163 0 2.155.41 2.976 1.232.821.821 1.232 1.803 1.232 2.944 0 1.152-.41 2.136-1.232 2.952-.821.816-1.813 1.224-2.976 1.224-1.152 0-2.139-.405-2.96-1.216zm.32-2.944c0 .768.259 1.424.776 1.968s1.139.816 1.864.816c.736 0 1.363-.272 1.88-.816.517-.544.776-1.2.776-1.968 0-.779-.259-1.443-.776-1.992-.517-.55-1.144-.824-1.88-.824-.725 0-1.347.275-1.864.824-.517.55-.776 1.213-.776 1.992zm9.232 2.96c-.736-.81-1.104-1.803-1.104-2.976s.368-2.163 1.104-2.968c.736-.805 1.69-1.208 2.864-1.208 1.248 0 2.213.485 2.896 1.456v-4.848h1.552V37h-1.552v-1.28c-.683.97-1.648 1.456-2.896 1.456-1.173 0-2.128-.4-2.864-1.2zM278.108 33c-.01-.81-.27-1.48-.776-2.008-.507-.528-1.16-.792-1.96-.792s-1.435.27-1.904.808c-.47.539-.704 1.203-.704 1.992 0 .79.235 1.453.704 1.992.47.539 1.104.808 1.904.808.8 0 1.453-.264 1.96-.792.507-.528.765-1.197.776-2.008zm7.264 1.968L287.644 29h1.808l-4.912 11.584h-1.504l1.488-3.856L281.148 29h1.776l2.448 5.968zM157.428 109h-1.6V97.8h4.672c1.035 0 1.856.341 2.464 1.024.608.683.912 1.515.912 2.496 0 .853-.235 1.59-.704 2.208-.47.619-1.115 1.008-1.936 1.168.064.725.293 1.427.688 2.104.395.677.875 1.016 1.44 1.016.512 0 .95-.17 1.312-.512l.56 1.088c-.512.523-1.168.784-1.968.784a2.81 2.81 0 0 1-1.368-.336 3.107 3.107 0 0 1-.992-.824 5.18 5.18 0 0 1-.648-1.12 6.853 6.853 0 0 1-.392-1.152 6.323 6.323 0 0 1-.152-.984h-2.288V109zm0-5.52h2.736c.63 0 1.128-.2 1.496-.6.368-.4.552-.925.552-1.576 0-.65-.184-1.179-.552-1.584-.368-.405-.867-.608-1.496-.608h-2.736v4.368zm15.584 3.312l.864.896c-.885.992-2.053 1.488-3.504 1.488-1.355 0-2.445-.397-3.272-1.192-.827-.795-1.24-1.779-1.24-2.952s.41-2.168 1.232-2.984c.821-.816 1.845-1.224 3.072-1.224 1.141 0 2.107.37 2.896 1.112.79.741 1.184 1.81 1.184 3.208h-6.832c-.021.779.248 1.416.808 1.912s1.283.744 2.168.744c.97 0 1.845-.336 2.624-1.008zm-2.816-4.608c-1.312 0-2.192.587-2.64 1.76h5.088c-.352-1.173-1.168-1.76-2.448-1.76zM183.812 101v7.936c0 1.259-.4 2.21-1.2 2.856-.8.645-1.792.968-2.976.968-1.333 0-2.475-.384-3.424-1.152l.624-1.216c.768.672 1.701 1.008 2.8 1.008.8 0 1.437-.227 1.912-.68.475-.453.712-1.096.712-1.928v-1.072c-.683.97-1.648 1.456-2.896 1.456-1.173 0-2.128-.403-2.864-1.208-.736-.805-1.104-1.795-1.104-2.968s.368-2.163 1.104-2.968c.736-.805 1.69-1.208 2.864-1.208 1.248 0 2.213.485 2.896 1.456V101h1.552zm-1.52 4c-.01-.81-.27-1.48-.776-2.008-.507-.528-1.16-.792-1.96-.792s-1.435.27-1.904.808c-.47.539-.704 1.203-.704 1.992 0 .79.235 1.453.704 1.992.47.539 1.104.808 1.904.808.8 0 1.453-.264 1.96-.792.507-.528.765-1.197.776-2.008zm4.032 4v-8h1.552v8h-1.552zm0-9.808a1.041 1.041 0 0 1-.304-.768c0-.31.104-.568.312-.776.208-.208.461-.312.76-.312s.555.104.768.312c.213.208.32.467.32.776 0 .299-.104.552-.312.76a1.053 1.053 0 0 1-.776.312c-.299 0-.555-.101-.768-.304zm4.688 8.768c-.821-.821-1.232-1.808-1.232-2.96s.41-2.136 1.232-2.952c.821-.816 1.808-1.224 2.96-1.224 1.163 0 2.155.41 2.976 1.232.821.821 1.232 1.803 1.232 2.944 0 1.152-.41 2.136-1.232 2.952-.821.816-1.813 1.224-2.976 1.224-1.152 0-2.139-.405-2.96-1.216zm.32-2.944c0 .768.259 1.424.776 1.968s1.139.816 1.864.816c.736 0 1.363-.272 1.88-.816.517-.544.776-1.2.776-1.968 0-.779-.259-1.443-.776-1.992-.517-.55-1.144-.824-1.88-.824-.725 0-1.347.275-1.864.824-.517.55-.776 1.213-.776 1.992zM205.796 109v-4.512c0-.79-.155-1.368-.464-1.736a1.462 1.462 0 0 0-1.168-.552c-.245 0-.499.045-.76.136a3.25 3.25 0 0 0-.824.448c-.288.208-.525.528-.712.96-.187.432-.28.947-.28 1.544V109h-1.552v-8h1.552v1.6c.17-.565.496-1.003.976-1.312.48-.31 1.05-.464 1.712-.464.917 0 1.659.304 2.224.912.565.608.848 1.525.848 2.752V109h-1.552zm4.416-1.024c-.736-.81-1.104-1.803-1.104-2.976s.368-2.163 1.104-2.968c.736-.805 1.69-1.208 2.864-1.208 1.248 0 2.213.485 2.896 1.456V101h1.552v8h-1.552v-1.28c-.683.97-1.648 1.456-2.896 1.456-1.173 0-2.128-.4-2.864-1.2zm5.792-2.976c-.01-.81-.27-1.48-.776-2.008-.507-.528-1.16-.792-1.96-.792s-1.435.27-1.904.808c-.47.539-.704 1.203-.704 1.992 0 .79.235 1.453.704 1.992.47.539 1.104.808 1.904.808.8 0 1.453-.264 1.96-.792.507-.528.765-1.197.776-2.008zm5.584-7.568V109h-1.552V97.432h1.552zm8.704 7.952h4.512l-2.272-6.048-2.24 6.048zm4.992 1.296h-5.472l-.864 2.32H227.3l4.304-11.2h1.856l4.32 11.2h-1.616l-.88-2.32zm8.912-3.952l-1.376.304c-.213-.587-.63-.88-1.248-.88-.352 0-.637.096-.856.288a.936.936 0 0 0-.328.736c0 .427.32.747.96.96l1.152.384c1.28.395 1.92 1.147 1.92 2.256 0 .736-.277 1.32-.832 1.752-.555.432-1.237.648-2.048.648-.736 0-1.39-.184-1.96-.552a2.592 2.592 0 0 1-1.128-1.544l1.376-.336c.096.32.307.584.632.792.325.208.69.312 1.096.312.395 0 .723-.104.984-.312.261-.208.392-.467.392-.776 0-.437-.336-.773-1.008-1.008l-1.072-.368c-1.312-.395-1.968-1.12-1.968-2.176 0-.693.245-1.264.736-1.712.49-.448 1.125-.672 1.904-.672 1.387 0 2.277.635 2.672 1.904zm7.056 0l-1.376.304c-.213-.587-.63-.88-1.248-.88-.352 0-.637.096-.856.288a.936.936 0 0 0-.328.736c0 .427.32.747.96.96l1.152.384c1.28.395 1.92 1.147 1.92 2.256 0 .736-.277 1.32-.832 1.752-.555.432-1.237.648-2.048.648-.736 0-1.39-.184-1.96-.552a2.592 2.592 0 0 1-1.128-1.544l1.376-.336c.096.32.307.584.632.792.325.208.69.312 1.096.312.395 0 .723-.104.984-.312.261-.208.392-.467.392-.776 0-.437-.336-.773-1.008-1.008l-1.072-.368c-1.312-.395-1.968-1.12-1.968-2.176 0-.693.245-1.264.736-1.712.49-.448 1.125-.672 1.904-.672 1.387 0 2.277.635 2.672 1.904zm2.704 5.232c-.821-.821-1.232-1.808-1.232-2.96s.41-2.136 1.232-2.952c.821-.816 1.808-1.224 2.96-1.224 1.163 0 2.155.41 2.976 1.232.821.821 1.232 1.803 1.232 2.944 0 1.152-.41 2.136-1.232 2.952-.821.816-1.813 1.224-2.976 1.224-1.152 0-2.139-.405-2.96-1.216zm.32-2.944c0 .768.259 1.424.776 1.968s1.139.816 1.864.816c.736 0 1.363-.272 1.88-.816.517-.544.776-1.2.776-1.968 0-.779-.259-1.443-.776-1.992-.517-.55-1.144-.824-1.88-.824-.725 0-1.347.275-1.864.824-.517.55-.776 1.213-.776 1.992zm8.112.08c0-1.227.397-2.245 1.192-3.056.795-.81 1.896-1.216 3.304-1.216 1.035 0 1.99.325 2.864.976l-.736 1.056c-.576-.437-1.264-.656-2.064-.656-.864 0-1.581.261-2.152.784-.57.523-.856 1.195-.856 2.016s.285 1.493.856 2.016c.57.523 1.288.784 2.152.784.8 0 1.488-.219 2.064-.656l.736 1.056c-.875.65-1.83.976-2.864.976-1.376 0-2.47-.387-3.28-1.16-.81-.773-1.216-1.747-1.216-2.92zm9.088 3.904v-8h1.552v8h-1.552zm0-9.808a1.041 1.041 0 0 1-.304-.768c0-.31.104-.568.312-.776.208-.208.461-.312.76-.312s.555.104.768.312c.213.208.32.467.32.776 0 .299-.104.552-.312.76a1.053 1.053 0 0 1-.776.312c-.299 0-.555-.101-.768-.304zm4.576 8.784c-.736-.81-1.104-1.803-1.104-2.976s.368-2.163 1.104-2.968c.736-.805 1.69-1.208 2.864-1.208 1.248 0 2.213.485 2.896 1.456V101h1.552v8h-1.552v-1.28c-.683.97-1.648 1.456-2.896 1.456-1.173 0-2.128-.4-2.864-1.2zm5.792-2.976c-.01-.81-.27-1.48-.776-2.008-.507-.528-1.16-.792-1.96-.792s-1.435.27-1.904.808c-.47.539-.704 1.203-.704 1.992 0 .79.235 1.453.704 1.992.47.539 1.104.808 1.904.808.8 0 1.453-.264 1.96-.792.507-.528.765-1.197.776-2.008zm5.92-2.784v4.368c0 .416.088.725.264.928a.877.877 0 0 0 .696.304c.267 0 .496-.077.688-.232.192-.155.288-.37.288-.648 0-.256-.043-.475-.128-.656h1.36a1.4 1.4 0 0 1 .096.36c.021.144.032.264.032.36l.016.144c0 .597-.208 1.085-.624 1.464-.416.379-.997.568-1.744.568-.715 0-1.31-.213-1.784-.64-.475-.427-.712-1.115-.712-2.064v-4.256H284.9V101h1.312l.352-2.304h1.2V101h2.544v1.216h-2.544zM292.58 109v-8h1.552v8h-1.552zm0-9.808a1.041 1.041 0 0 1-.304-.768c0-.31.104-.568.312-.776.208-.208.461-.312.76-.312s.555.104.768.312c.213.208.32.467.32.776 0 .299-.104.552-.312.76a1.053 1.053 0 0 1-.776.312c-.299 0-.555-.101-.768-.304zm4.688 8.768c-.821-.821-1.232-1.808-1.232-2.96s.41-2.136 1.232-2.952c.821-.816 1.808-1.224 2.96-1.224 1.163 0 2.155.41 2.976 1.232.821.821 1.232 1.803 1.232 2.944 0 1.152-.41 2.136-1.232 2.952-.821.816-1.813 1.224-2.976 1.224-1.152 0-2.139-.405-2.96-1.216zm.32-2.944c0 .768.259 1.424.776 1.968s1.139.816 1.864.816c.736 0 1.363-.272 1.88-.816.517-.544.776-1.2.776-1.968 0-.779-.259-1.443-.776-1.992-.517-.55-1.144-.824-1.88-.824-.725 0-1.347.275-1.864.824-.517.55-.776 1.213-.776 1.992zM312.052 109v-4.512c0-.79-.155-1.368-.464-1.736a1.462 1.462 0 0 0-1.168-.552c-.245 0-.499.045-.76.136a3.25 3.25 0 0 0-.824.448c-.288.208-.525.528-.712.96-.187.432-.28.947-.28 1.544V109h-1.552v-8h1.552v1.6c.17-.565.496-1.003.976-1.312.48-.31 1.05-.464 1.712-.464.917 0 1.659.304 2.224.912.565.608.848 1.525.848 2.752V109h-1.552zM219.372 179.512c-1.088-1.12-1.632-2.49-1.632-4.112 0-1.621.547-2.99 1.64-4.104 1.093-1.115 2.563-1.672 4.408-1.672 1.397 0 2.63.4 3.696 1.2l-.624 1.2c-.384-.277-.853-.507-1.408-.688a5.328 5.328 0 0 0-1.664-.272c-1.355 0-2.43.416-3.224 1.248-.795.832-1.192 1.861-1.192 3.088s.397 2.256 1.192 3.088c.795.832 1.87 1.248 3.224 1.248.555 0 1.11-.09 1.664-.272.555-.181 1.024-.41 1.408-.688l.624 1.2c-1.067.8-2.299 1.2-3.696 1.2-1.845 0-3.317-.555-4.416-1.664zm11.392-10.08V181h-1.552v-11.568h1.552zM234.7 173v4.512c0 .79.155 1.368.464 1.736.31.368.699.552 1.168.552.245 0 .499-.045.76-.136.261-.09.536-.24.824-.448.288-.208.525-.528.712-.96.187-.432.28-.947.28-1.544V173h1.552v8h-1.552v-1.6a2.298 2.298 0 0 1-.976 1.312c-.48.31-1.05.464-1.712.464-.917 0-1.659-.304-2.224-.912-.565-.608-.848-1.525-.848-2.752V173h1.552zm15.536 1.04c.736.8 1.104 1.787 1.104 2.96s-.368 2.163-1.104 2.968c-.736.805-1.69 1.208-2.864 1.208-1.248 0-2.213-.485-2.896-1.456V181h-1.552v-11.568h1.552v4.848c.683-.97 1.648-1.456 2.896-1.456 1.173 0 2.128.405 2.864 1.216zm-5.792 2.96c.01.81.27 1.48.776 2.008.507.528 1.16.792 1.96.792s1.435-.27 1.904-.808c.47-.539.704-1.203.704-1.992 0-.79-.235-1.453-.704-1.992-.47-.539-1.104-.808-1.904-.808-.8 0-1.453.264-1.96.792-.507.528-.765 1.197-.776 2.008z" fill="#0D0C44"/><path d="M57.5 70.5h355.023M111.5 142.5h245.051M167.49 214.5h138.068" stroke="#CCC" stroke-linecap="square" stroke-dasharray="10"/><path d="M234 255a6 6 0 1 0 0-12 6 6 0 0 0 0 12zm3.114 2h-5.227c-4.349 0-7.887 3.485-7.887 7.768v6.295l.016.098.44.136c4.151 1.277 7.757 1.703 10.725 1.703 5.796 0 9.156-1.628 9.363-1.731l.412-.205.044-6.296c.002-4.283-3.537-7.768-7.886-7.768zM54 93H43.5a5 5 0 0 1-5-5V69.5" stroke="#F15A29" stroke-width="2"/><path fill="#FF5527" d="M38.5 66l4.5 9h-9z"/><path d="M102 159H91.5a5 5 0 0 1-5-5v-18.5" stroke="#F15A29" stroke-width="2"/><path fill="#FF5527" d="M86.5 132l4.5 9h-9z"/><g><path d="M159 236h-10.5a5 5 0 0 1-5-5v-18.5" stroke="#F15A29" stroke-width="2"/><path fill="#FF5527" d="M143.5 209l4.5 9h-9z"/></g></g></svg>