<svg xmlns="http://www.w3.org/2000/svg" viewBox="0 0 108.76 101.99">
  <title>sporty-hq-icon-white</title>
  <g id="Layer_2" data-name="Layer 2">
    <g id="Layer_1-2" data-name="Layer 1">
      <path
        d="M29.36,33.61a54.85,54.85,0,0,1,18.69-12.4C47,11.26,41.81,0,24.14,0,3.74,0,0,15,0,25.69c0,7.68,8.13,36.43,15.83,51.94C11,64.79,16,47,29.36,33.61Z"
        style="fill:#FF7133"/>
      <path
        d="M41.74,64.49c8.4-25.47,8.31-33.23,8.07-35A55.37,55.37,0,0,0,33.29,40.93c-8.62,8.62-13.76,19-15,28.79a31.3,31.3,0,0,0,4.92,21.17A12.74,12.74,0,0,0,26,93.71S34.87,85.29,41.74,64.49Z"
        style="fill:#EF3D14"/>
      <path
        d="M95.16,45.57c6.67,13,.85,31.18-13.49,45.52a57.38,57.38,0,0,1-9.17,7.47,0,0,0,0,0,0,0,23.2,23.2,0,0,0,14.43,3.3c13.29-1.13,23.22-11.88,21.67-30C107.56,59.71,102.89,50.6,95.16,45.57Z"
        style="fill:#FFB600"/>
      <path
        d="M90.41,38.62a23.54,23.54,0,0,0-4.3-5.91c-7.55-7.55-19.37-9.08-31.24-5.24,1.41,4.89,2,17.05-4.7,37.19-5.65,17.12-14.49,28.85-19.74,32.4,10.41,6,25.32,4.24,38.41-4.32A57.08,57.08,0,0,0,78,85.25C92.38,70.91,97.09,51.58,90.41,38.62Z"
        style="fill:#FF5527"/>
    </g>
  </g>
</svg>
