<?xml version="1.0" standalone="no"?>
<!DOCTYPE svg PUBLIC "-//W3C//DTD SVG 20010904//EN"
 "http://www.w3.org/TR/2001/REC-SVG-20010904/DTD/svg10.dtd">
<svg version="1.0" xmlns="http://www.w3.org/2000/svg"
 width="418.000000pt" height="418.000000pt" viewBox="0 0 418.000000 418.000000"
 preserveAspectRatio="xMidYMid meet">
<metadata>
Created by potrace 1.11, written by Peter Selinger 2001-2013
</metadata>
<g transform="translate(0.000000,418.000000) scale(0.100000,-0.100000)"
fill="#000000" stroke="none">
<path d="M716 4000 c-196 -31 -351 -105 -467 -222 -200 -202 -291 -571 -229
-928 77 -440 309 -1189 504 -1625 12 -27 28 -65 36 -83 19 -49 23 -31 6 29 -8
30 -20 85 -26 123 -11 70 -14 287 -5 341 3 17 10 59 16 95 32 189 134 447 251
635 45 72 174 242 227 299 202 217 394 363 637 483 l132 65 -5 41 c-8 71 -43
205 -73 276 -97 237 -294 399 -552 456 -87 19 -366 28 -452 15z"/>
<path d="M2351 3028 c-46 -5 -132 -22 -190 -36 -124 -32 -119 -20 -78 -177 58
-225 57 -449 -4 -779 -101 -545 -307 -1003 -634 -1411 -75 -94 -238 -265 -289
-303 -16 -12 -27 -24 -25 -25 19 -13 125 -60 171 -76 141 -48 338 -67 517 -48
107 12 280 58 410 110 338 136 676 408 907 732 318 445 432 971 299 1380 -106
325 -371 555 -714 621 -95 18 -262 23 -370 12z"/>
<path d="M1780 2828 c-543 -291 -934 -793 -1056 -1358 -29 -131 -26 -423 4
-545 29 -115 120 -293 205 -398 21 -25 69 -40 98 -28 119 45 370 414 503 741
15 36 31 74 36 85 24 51 102 265 148 405 150 458 208 811 177 1077 -3 32 -9
61 -13 65 -4 4 -50 -16 -102 -44z"/>
<path d="M3640 2315 c24 -56 59 -170 66 -214 3 -18 8 -43 11 -55 3 -11 6 -83
7 -160 8 -441 -213 -920 -600 -1298 -90 -89 -191 -173 -276 -231 -26 -18 -48
-35 -48 -39 -1 -22 195 -100 295 -117 66 -12 246 -16 290 -7 11 2 40 7 65 11
56 9 182 51 235 77 245 124 408 353 471 658 19 93 25 335 11 450 -45 370 -227
725 -471 919 -35 28 -66 51 -70 51 -3 0 3 -20 14 -45z"/>
</g>
</svg>
